<svg xmlns="http://www.w3.org/2000/svg" width="29" height="29" viewBox="0 0 29 29">
  <path id="Union_4" data-name="Union 4" d="M4.247,24.753A14.5,14.5,0,1,1,24.753,4.247,14.5,14.5,0,1,1,4.247,24.753ZM2,14.5A12.5,12.5,0,1,0,14.5,2,12.515,12.515,0,0,0,2,14.5Zm11.045,4.678a2.517,2.517,0,0,1-.01-.331V15.059h-4a.99.99,0,0,1-1-.749,1,1,0,0,1,.749-1.245,2.147,2.147,0,0,1,.427-.039h3.822V9.083a1.018,1.018,0,1,1,2.033-.049c.014.652,0,1.3,0,1.955v2.042h3.821a1.746,1.746,0,0,1,.526.068,1.006,1.006,0,0,1-.3,1.959c-1.235.01-2.475,0-3.711,0h-.33V19a1.051,1.051,0,0,1-.447.92,1,1,0,0,1-.569.18A1.024,1.024,0,0,1,13.045,19.178Z" fill="#4bae00"/>
</svg>
