<svg xmlns="http://www.w3.org/2000/svg" width="30" height="30" viewBox="0 0 30 30">
  <g id="Group_429" data-name="Group 429" transform="translate(-308 -490)">
    <g id="Path_215" data-name="Path 215" transform="translate(308 490)" fill="#fff">
      <path d="M 25 29.5 L 5 29.5 C 2.51869010925293 29.5 0.5 27.48130989074707 0.5 25 L 0.5 5 C 0.5 2.51869010925293 2.51869010925293 0.5 5 0.5 L 25 0.5 C 27.48130989074707 0.5 29.5 2.51869010925293 29.5 5 L 29.5 25 C 29.5 25.9759521484375 28.40517044067383 27.72480201721191 27.91513061523438 28.41605949401855 C 27.35228538513184 28.75970268249512 25.94341278076172 29.5 25 29.5 Z" stroke="none"/>
      <path d="M 5 1 C 2.794389724731445 1 1 2.794389724731445 1 5 L 1 25 C 1 27.20561027526855 2.794389724731445 29 5 29 L 25 29 C 25.7128963470459 29 26.88443183898926 28.44805908203125 27.56685447692871 28.04241943359375 C 28.19650268554688 27.13937377929688 29 25.69740295410156 29 25 L 29 5 C 29 2.794389724731445 27.20561027526855 1 25 1 L 5 1 M 5 0 L 25 0 C 27.76141929626465 0 30 2.238580703735352 30 5 L 30 25 C 30 26.40279006958008 28.26350975036621 28.78817939758301 28.26350975036621 28.78817939758301 C 28.26350975036621 28.78817939758301 26.35862922668457 30 25 30 L 5 30 C 2.238580703735352 30 0 27.76141929626465 0 25 L 0 5 C 0 2.238580703735352 2.238580703735352 0 5 0 Z" stroke="none" fill="#0cae00"/>
    </g>
    <path id="Path_195" data-name="Path 195" d="M4.493,10.544a2.6,2.6,0,0,1-.223-.178Q2.647,8.754,1.024,7.146A.831.831,0,0,1,.757,6.34a.814.814,0,0,1,1.35-.424c.186.171.361.357.539.539a1.133,1.133,0,0,1,.119.171c2.193-1.7,4.35-3.372,6.524-5.056-.056-.059-.1-.108-.149-.156A.82.82,0,1,1,10.3.25c.55.535,1.093,1.082,1.639,1.621q2,1.98,3.989,3.959a.861.861,0,0,1,.3.673.822.822,0,0,1-1.357.591c-.067-.056-.13-.119-.208-.19-1.673,2.164-3.338,4.32-5.026,6.506.219.208.442.416.654.628a.779.779,0,0,1,.216.788.815.815,0,0,1-1.376.368c-.494-.483-.981-.978-1.472-1.465-.621-.621-1.242-1.238-1.863-1.859-.045-.045-.089-.086-.145-.138-.056.052-.108.1-.156.145Q3.47,13.9,1.455,15.927a.9.9,0,0,1-.595.3.8.8,0,0,1-.792-.457.8.8,0,0,1,.108-.892,1.66,1.66,0,0,1,.16-.164l3.974-3.974a1.964,1.964,0,0,1,.164-.134c0-.026.007-.048.011-.074ZM4.08,7.719c1.476,1.487,2.948,2.963,4.42,4.446,1.68-2.123,3.372-4.257,5.041-6.368L10.493,2.748C8.355,4.406,6.2,6.076,4.08,7.719Z" transform="translate(315.021 496.993)" fill="#0cae00"/>
  </g>
</svg>
