<svg xmlns="http://www.w3.org/2000/svg" width="29" height="29" viewBox="0 0 29 29">
  <g id="bottom-delete" transform="translate(0.001 -0.002)">
    <path id="Path_225" data-name="Path 225" d="M3.027,6.393H1.963c-.314,0-.626.008-.94-.008A1.1,1.1,0,0,1,0,5.422,1.053,1.053,0,0,1,.819,4.3a2.47,2.47,0,0,1,.549-.049q3.559,0,7.137-.008h.4V3.714a9.117,9.117,0,0,1,.058-1.353A2.9,2.9,0,0,1,11.869.013C13.61,0,15.347,0,17.09.013a3.044,3.044,0,0,1,2.129.844,2.749,2.749,0,0,1,.85,2.039V4.231h.42c2.373,0,4.755,0,7.137.014a2.157,2.157,0,0,1,.615.072,1.062,1.062,0,0,1,.742,1.148,1.076,1.076,0,0,1-1,.9c-.534.027-1.069.008-1.6.014h-.421c-.039.467-.071.9-.1,1.339q-.279,4.148-.549,8.291c-.125,1.926-.243,3.854-.372,5.784-.082,1.189-.125,2.384-.277,3.564a4.374,4.374,0,0,1-3.871,3.592,8.581,8.581,0,0,1-.9.049H8.961a4.473,4.473,0,0,1-4.606-3.8c-.105-.705-.114-1.431-.162-2.143q-.2-2.888-.4-5.784c-.105-1.5-.2-2.992-.3-4.49Q3.3,10.015,3.1,7.246c-.019-.272-.039-.545-.058-.858Zm2.363.063c0,.241-.009.467,0,.694.028.526.076,1.058.11,1.584q.222,3.665.445,7.336.265,4.345.544,8.69A2.093,2.093,0,0,0,8,26.713a3.1,3.1,0,0,0,1.026.141c3.632.008,7.267,0,10.892,0a4.986,4.986,0,0,0,.521-.027,2.234,2.234,0,0,0,2.042-2.053q.271-4.148.549-8.291.314-4.788.626-9.58c.009-.141,0-.282,0-.454H5.391ZM11.151,4.2h6.664V3.151c0-.758-.176-.921-.988-.927H12.866c-.349,0-.7-.008-1.038,0a.66.66,0,0,0-.491.186.594.594,0,0,0-.178.473c-.009.432,0,.858,0,1.312Z" transform="translate(0.008)" fill="#fff"/>
    <path id="Path_226" data-name="Path 226" d="M18.667,26.6V22.613a.745.745,0,0,1,.808-.776.754.754,0,0,1,.7.669v8.021a.844.844,0,0,1-.026.254.755.755,0,0,1-1.487-.2c0-1.2,0-2.391,0-3.589Z" transform="translate(-9.511 -9.435)" fill="#fff"/>
    <path id="Path_227" data-name="Path 227" d="M27.994,26.567v-3.94a.76.76,0,0,1,1.514-.116c0,.045,0,.093,0,.142v7.879a.767.767,0,0,1-.7.821.754.754,0,0,1-.814-.75c-.006-.618,0-1.236,0-1.851V26.573Z" transform="translate(-14.26 -9.431)" fill="#fff"/>
    <path id="Path_228" data-name="Path 228" d="M38.853,26.621V30.56a.758.758,0,0,1-1.513.087V22.653a.758.758,0,1,1,1.513-.039v4.012Z" transform="translate(-19.026 -9.444)" fill="#fff"/>
  </g>
</svg>
