<svg xmlns="http://www.w3.org/2000/svg" width="33" height="33" viewBox="0 0 33 33">
  <g id="Group_118" data-name="Group 118" transform="translate(-603 -348)">
    <rect id="Rectangle_102" data-name="Rectangle 102" width="33" height="33" rx="6" transform="translate(603 348)" fill="#fff"/>
    <g id="Group_114" data-name="Group 114" transform="translate(609 355.009)">
      <path id="Path_199" data-name="Path 199" d="M0,5.715c.065-.248.115-.5.2-.745A3.19,3.19,0,0,1,3.1,2.88c.394-.011.787,0,1.177,0a.854.854,0,0,0,.906-.634,7.437,7.437,0,0,1,.432-1.047,2.344,2.344,0,0,1,2.1-1.2c.466-.008.932,0,1.4,0,1.2,0,2.4,0,3.6,0a2.332,2.332,0,0,1,2.148,1.219,6.458,6.458,0,0,1,.4,1,.858.858,0,0,0,.921.661,15.784,15.784,0,0,1,1.594.05,3.176,3.176,0,0,1,2.648,2.629,4.2,4.2,0,0,1,.042.535V11.2a.824.824,0,0,1-.271.661.761.761,0,0,1-.837.138.781.781,0,0,1-.489-.676,2.072,2.072,0,0,1,0-.218V6.17a1.6,1.6,0,0,0-.9-1.529,1.685,1.685,0,0,0-.772-.168H16.149a2.416,2.416,0,0,1-2.4-1.72c-.069-.195-.13-.39-.2-.585a.812.812,0,0,0-.8-.573H7.75a.821.821,0,0,0-.841.581c-.107.279-.195.566-.321.837a2.357,2.357,0,0,1-2.2,1.456c-.386.015-.772,0-1.158,0A1.579,1.579,0,0,0,1.666,5.654a1.921,1.921,0,0,0-.065.512v8.992a1.577,1.577,0,0,0,1.177,1.628,2.047,2.047,0,0,0,.55.065q6.9,0,13.807.008a1.649,1.649,0,0,0,1.727-1.609.792.792,0,0,1,1.2-.676.764.764,0,0,1,.39.676,3.215,3.215,0,0,1-2.679,3.164,4.187,4.187,0,0,1-.577.042H3.256A3.193,3.193,0,0,1,.168,16.289C.1,16.079.057,15.85,0,15.624Z" fill="#a7a9ac"/>
      <path id="Path_200" data-name="Path 200" d="M23.793,18.811a5,5,0,1,1-5-4.991A5.012,5.012,0,0,1,23.793,18.811Zm-1.6.011a3.393,3.393,0,1,0-3.4,3.386A3.408,3.408,0,0,0,22.192,18.822Z" transform="translate(-8.526 -8.544)" fill="#a7a9ac"/>
    </g>
  </g>
</svg>
