<svg width="20" height="20" viewBox="0 0 20 20" fill="none" xmlns="http://www.w3.org/2000/svg">
<path fill-rule="evenodd" clip-rule="evenodd" d="M6.25 8.75017C6.94036 8.75017 7.5 8.19053 7.5 7.50017C7.5 6.80982 6.94036 6.25017 6.25 6.25017C5.55965 6.25017 5 6.80982 5 7.50017C5 8.19053 5.55965 8.75017 6.25 8.75017ZM10 6.87517C10.6904 6.87517 11.25 6.31553 11.25 5.62517C11.25 4.93482 10.6904 4.37517 10 4.37517C9.30965 4.37517 8.75 4.93482 8.75 5.62517C8.75 6.31553 9.30965 6.87517 10 6.87517ZM13.75 8.75017C14.4404 8.75017 15 8.19053 15 7.50017C15 6.80982 14.4404 6.25017 13.75 6.25017C13.0596 6.25017 12.5 6.80982 12.5 7.50017C12.5 8.19053 13.0596 8.75017 13.75 8.75017ZM14.375 12.5002C15.0654 12.5002 15.625 11.9405 15.625 11.2502C15.625 10.5598 15.0654 10.0002 14.375 10.0002C13.6846 10.0002 13.125 10.5598 13.125 11.2502C13.125 11.9405 13.6846 12.5002 14.375 12.5002ZM11.875 15.6252C12.5654 15.6252 13.125 15.0655 13.125 14.3752C13.125 13.6848 12.5654 13.1252 11.875 13.1252C11.1846 13.1252 10.625 13.6848 10.625 14.3752C10.625 15.0655 11.1846 15.6252 11.875 15.6252ZM3.93097 3.69054C5.64565 2.03954 7.95895 1.15836 10.3375 1.25017C14.9034 1.4382 18.562 5.09673 18.75 9.66267C18.8418 12.0412 17.9606 14.3545 16.3096 16.0692C14.6586 17.7839 12.3803 18.7519 10 18.7502C8.96447 18.7502 8.125 17.9107 8.125 16.8752V14.5252C8.12615 13.9401 7.85409 13.388 7.38941 13.0324C6.92473 12.6768 6.32071 12.5586 5.75625 12.7127L5.05625 12.9064C4.15029 13.1539 3.18075 12.9647 2.43431 12.3947C1.68787 11.8248 1.24994 10.9393 1.25 10.0002C1.24823 7.61985 2.21629 5.34154 3.93097 3.69054ZM10 17.5002C12.0418 17.5041 13.996 16.6705 15.4063 15.1939V15.2002C16.8297 13.7346 17.587 11.7476 17.5 9.70642C17.2973 5.81359 14.1866 2.70292 10.2938 2.50017C8.25424 2.42023 6.27023 3.17497 4.79952 4.59025C3.32881 6.00553 2.49844 7.95909 2.5 10.0002C2.49881 10.5488 2.75317 11.0667 3.18807 11.4011C3.62298 11.7356 4.18882 11.8484 4.71875 11.7064L5.41875 11.5127C5.68963 11.4385 5.96916 11.4007 6.25 11.4002C7.97589 11.4002 9.375 12.7993 9.375 14.5252V16.8752C9.375 17.2204 9.65482 17.5002 10 17.5002Z" fill="#001528"/>
</svg>
