<svg xmlns="http://www.w3.org/2000/svg" width="30" height="30" viewBox="0 0 30 30">
  <g id="Group_431" data-name="Group 431" transform="translate(-354 -490)">
    <g id="Path_216" data-name="Path 216" transform="translate(354 490)" fill="#fff">
      <path d="M 25 29.5 L 5 29.5 C 2.51869010925293 29.5 0.5 27.48130989074707 0.5 25 L 0.5 5 C 0.5 2.51869010925293 2.51869010925293 0.5 5 0.5 L 25 0.5 C 27.48130989074707 0.5 29.5 2.51869010925293 29.5 5 L 29.5 25 C 29.5 27.48130989074707 27.48130989074707 29.5 25 29.5 Z" stroke="none"/>
      <path d="M 5 1 C 2.794389724731445 1 1 2.794389724731445 1 5 L 1 25 C 1 27.20561027526855 2.794389724731445 29 5 29 L 25 29 C 27.20561027526855 29 29 27.20561027526855 29 25 L 29 5 C 29 2.794389724731445 27.20561027526855 1 25 1 L 5 1 M 5 0 L 25 0 C 27.76141929626465 0 30 2.238580703735352 30 5 L 30 25 C 30 27.76141929626465 27.76141929626465 30 25 30 L 5 30 C 2.238580703735352 30 0 27.76141929626465 0 25 L 0 5 C 0 2.238580703735352 2.238580703735352 0 5 0 Z" stroke="none" fill="#0cae00"/>
    </g>
    <path id="Path_196" data-name="Path 196" d="M4.992,8.023a1.756,1.756,0,0,1,.17-.23q3.7-3.706,7.4-7.408a1.028,1.028,0,1,1,1.571,1.326c-.037.041-.078.081-.119.122q-4.145,4.145-8.29,8.294a1,1,0,0,1-1.063.326,1.169,1.169,0,0,1-.444-.27q-1.956-1.939-3.9-3.9A1,1,0,0,1,.306,4.841a.987.987,0,0,1,1.459,0c1,.993,2,2,3,2.993A1.924,1.924,0,0,1,4.9,8c.03.007.063.011.093.019Z" transform="translate(361.996 500.001)" fill="#0cae00"/>
  </g>
</svg>
