<svg id="Group_807" data-name="Group 807" xmlns="http://www.w3.org/2000/svg" width="12.636" height="13.785" viewBox="0 0 12.636 13.785">
  <path id="Path_1337" data-name="Path 1337" d="M1.377,16.336A1.88,1.88,0,0,1,.609,16,1.543,1.543,0,0,1,0,14.79V6.973A1.574,1.574,0,0,1,1.493,5.426c.132-.005.26-.005.392,0a.427.427,0,0,1,.053.847,2.342,2.342,0,0,1-.334.011.715.715,0,0,0-.741.752v7.684a.713.713,0,0,0,.741.747H8.722a.713.713,0,0,0,.747-.741v-.281a.431.431,0,0,1,.853-.058,1.728,1.728,0,0,1-.466,1.5,1.582,1.582,0,0,1-.81.424.578.578,0,0,0-.09.026Z" transform="translate(0 -2.551)" fill="#fff"/>
  <path id="Path_1338" data-name="Path 1338" d="M15.7,5.179V8.733a1.561,1.561,0,0,1-1.107,1.531,1.709,1.709,0,0,1-.461.074c-2.012,0-4.025.005-6.043,0A1.574,1.574,0,0,1,6.51,8.765V1.578A1.577,1.577,0,0,1,8.093,0h5.99A1.57,1.57,0,0,1,15.7,1.615V5.179Zm-.869-.011V1.631a.716.716,0,0,0-.763-.768H8.146a.718.718,0,0,0-.773.773V8.7a.723.723,0,0,0,.773.773h5.9a.969.969,0,0,0,.175-.011.709.709,0,0,0,.6-.741V5.169Z" transform="translate(-3.062)" fill="#fff"/>
</svg>
