<svg xmlns="http://www.w3.org/2000/svg" width="12.58" height="9.265" viewBox="0 0 12.58 9.265">
  <path id="Path_268" data-name="Path 268" d="M4.125,7.457A1.883,1.883,0,0,1,4.3,7.215c2.284-2.3,4.6-4.6,6.893-6.906A.86.86,0,0,1,11.8,0a.715.715,0,0,1,.7.417.737.737,0,0,1-.094.82,2.066,2.066,0,0,1-.161.175L4.73,8.922a.791.791,0,0,1-1.3,0C2.378,7.874,1.343,6.826.3,5.791a.81.81,0,0,1-.282-.752.746.746,0,0,1,1.169-.47,1.438,1.438,0,0,1,.215.188L3.883,7.242l.228.228Z" transform="translate(0)" fill="#40b84c"/>
</svg>
