<svg xmlns="http://www.w3.org/2000/svg" width="10.256" height="10.271" viewBox="0 0 10.256 10.271">
  <path id="Path_257" data-name="Path 257" d="M5.116,6c-.084.1-.128.17-.184.226Q3.04,8.117,1.151,10.009a.664.664,0,0,1-.675.226.631.631,0,0,1-.34-1.01,2,2,0,0,1,.151-.159L4.042,5.31a1.6,1.6,0,0,1,.19-.142V5.1a1.334,1.334,0,0,1-.176-.126L.244,1.167A.691.691,0,0,1,0,.645.6.6,0,0,1,.347.087a.606.606,0,0,1,.67.061A1.583,1.583,0,0,1,1.19.31Q3.073,2.194,4.96,4.08a2.009,2.009,0,0,1,.137.17c.078-.075.134-.126.19-.181L9.1.257a.641.641,0,1,1,.954.851c-.112.12-.232.234-.349.352Q7.945,3.218,6.185,4.975a1.352,1.352,0,0,1-.176.128c0,.028-.008.053-.011.081a1.233,1.233,0,0,1,.2.134L10,9.113a.678.678,0,0,1,.254.494.644.644,0,0,1-.4.608.574.574,0,0,1-.661-.109c-.05-.045-.095-.092-.142-.14L5.289,6.212C5.239,6.161,5.2,6.1,5.116,6Z" transform="translate(0.006 -0.004)" fill="#ff5656"/>
</svg>
