<?xml version="1.0" encoding="UTF-8"?>
<svg id="Layer_2" data-name="Layer 2" xmlns="http://www.w3.org/2000/svg" viewBox="0 0 26.81 30.6">
  <defs>
    <style>
      .cls-1 {
        fill: #a8a9ac;
      }
    </style>
  </defs>
  <g id="Layer_1-2" data-name="Layer 1">
    <g>
      <path class="cls-1" d="M3.63,4.68h7.57c.14,0,.27-.06,.37-.16s.15-.23,.15-.38c0-.14-.06-.28-.15-.38-.1-.1-.23-.16-.37-.16H3.63c-.14,0-.27,.06-.37,.16-.1,.1-.15,.23-.15,.38s.06,.27,.15,.38c.1,.1,.23,.16,.37,.16Z"/>
      <path class="cls-1" d="M3.63,7.52h15.41c.14,0,.27-.06,.37-.16,.1-.1,.15-.23,.15-.38s-.06-.27-.15-.38c-.1-.1-.23-.16-.37-.16H3.63c-.14,0-.27,.06-.37,.16-.1,.1-.15,.23-.15,.38s.05,.27,.15,.38c.1,.1,.23,.16,.37,.16Z"/>
      <path class="cls-1" d="M3.63,10.36h15.41c.14,0,.27-.06,.37-.16,.1-.1,.15-.23,.15-.38s-.06-.27-.15-.38c-.1-.1-.23-.16-.37-.16H3.63c-.14,0-.27,.06-.37,.16s-.15,.23-.15,.38,.05,.27,.15,.38c.1,.1,.23,.16,.37,.16Z"/>
      <path class="cls-1" d="M3.63,13.2h15.41c.14,0,.27-.06,.37-.16,.1-.1,.15-.23,.15-.38s-.06-.27-.15-.38c-.1-.1-.23-.16-.37-.16H3.63c-.14,0-.27,.06-.37,.16-.1,.1-.15,.23-.15,.38s.05,.27,.15,.38c.1,.1,.23,.16,.37,.16Z"/>
      <path class="cls-1" d="M3.63,16.03h15.41c.14,0,.27-.06,.37-.16,.1-.1,.15-.23,.15-.38s-.06-.27-.15-.38c-.1-.1-.23-.16-.37-.16H3.63c-.14,0-.27,.06-.37,.16s-.15,.23-.15,.38,.05,.27,.15,.38c.1,.1,.23,.16,.37,.16Z"/>
      <path class="cls-1" d="M8.24,17.8H3.63c-.14,0-.27,.06-.37,.16-.1,.1-.15,.23-.15,.38,0,.14,.06,.28,.15,.38,.1,.1,.23,.16,.37,.16h4.61c.14,0,.27-.06,.37-.16,.1-.1,.15-.23,.15-.38s-.06-.27-.15-.38c-.1-.1-.23-.16-.37-.16Z"/>
      <path class="cls-1" d="M19.82,30.6c-1.24,0-2.45-.33-3.52-.95-1.02-.59-1.87-1.43-2.48-2.44H2.73c-.73,0-1.41-.29-1.93-.8-.52-.51-.8-1.2-.8-1.93V2.73C0,2,.28,1.31,.8,.8,1.31,.29,2,0,2.73,0H19.66c.73,0,1.41,.28,1.93,.8,.52,.51,.8,1.2,.8,1.93v14.32c3.65,1.46,4.81,4.91,4.33,7.71-.49,2.85-2.8,5.76-6.88,5.84h0Zm0-12.35c-2.47,0-5.2,1.67-5.35,5.33,0,1.42,.56,2.76,1.57,3.77,1.01,1.01,2.35,1.57,3.78,1.57,1.43,0,2.77-.56,3.78-1.57,1.01-1.01,1.57-2.35,1.57-3.78-.15-3.65-2.88-5.32-5.35-5.32ZM2.73,1.67c-.28,0-.55,.11-.75,.31s-.31,.46-.31,.75V24.48c0,.28,.11,.55,.31,.75,.2,.2,.46,.31,.75,.31H13.08c-.6-1.96-.25-4.15,.98-5.93,1.32-1.91,3.43-3.06,5.64-3.06h.13c.29,0,.59,.02,.88,.06V2.73c0-.28-.11-.55-.31-.75s-.46-.31-.75-.31H2.73Z"/>
      <path class="cls-1" d="M22.08,17.25V2.73c0-.64-.26-1.26-.71-1.72-.46-.46-1.07-.71-1.72-.71H2.73c-.64,0-1.26,.26-1.72,.71-.45,.46-.71,1.07-.71,1.72V24.48c0,.64,.26,1.26,.71,1.72,.45,.46,1.07,.71,1.72,.71H13.99c.59,1.03,1.44,1.88,2.46,2.48,1.02,.6,2.19,.91,3.37,.91,7.56-.14,9.26-10.44,2.26-13.05ZM2.73,25.84c-.36,0-.7-.14-.96-.4-.25-.25-.4-.6-.4-.96V2.73c0-.36,.14-.7,.4-.96,.25-.25,.6-.4,.96-.4H19.66c.36,0,.7,.14,.96,.4,.25,.25,.4,.6,.4,.96v14.24c-.39-.07-.79-.11-1.19-.11-4.56-.09-7.95,4.74-6.32,8.99H2.73Zm17.1,3.39c-1.5,0-2.94-.6-4-1.66-1.06-1.06-1.66-2.5-1.66-4,.31-7.5,11-7.5,11.3,0,0,1.5-.6,2.94-1.66,4-1.06,1.06-2.5,1.66-3.99,1.66Z"/>
      <path class="cls-1" d="M19.82,19.41c-.07,0-.14,.01-.2,.04s-.12,.07-.17,.12-.09,.11-.12,.17c-.03,.07-.04,.13-.04,.21v3.41l-1.88,1.88c-.1,.1-.16,.24-.15,.38,0,.14,.06,.28,.16,.38,.1,.1,.24,.16,.38,.16,.14,0,.28-.06,.38-.15l2.04-2.04s.09-.11,.12-.17c.03-.07,.04-.13,.04-.2v-3.63c0-.07-.01-.14-.04-.21-.03-.07-.07-.12-.12-.17-.05-.05-.11-.09-.17-.12-.07-.03-.13-.04-.21-.04Z"/>
    </g>
  </g>
</svg>