<?xml version="1.0" encoding="utf-8"?>
<!-- Generator: Adobe Illustrator 27.0.0, SVG Export Plug-In . SVG Version: 6.00 Build 0)  -->
<svg version="1.1" id="Layer_1" xmlns="http://www.w3.org/2000/svg" xmlns:xlink="http://www.w3.org/1999/xlink" x="0px" y="0px"
	 viewBox="0 0 12 12" style="enable-background:new 0 0 12 12;" xml:space="preserve">
<style type="text/css">
	.st0{fill:#A7A9AC;}
</style>
<path class="st0" d="M6,0.1C2.7,0.1,0.1,2.7,0.1,6s2.7,5.9,5.9,5.9s5.9-2.7,5.9-5.9S9.3,0.1,6,0.1z M9.2,9.3c-0.1,0-0.2,0-0.3,0
	c0,0,0,0-0.1-0.1C8,8.3,7,7.4,6.1,6.4c0,0,0,0-0.1-0.1c0,0-0.1,0.1-0.1,0.1C5,7.4,4,8.3,3.1,9.3C3,9.3,2.9,9.4,2.8,9.3
	C2.6,9.3,2.6,9.1,2.7,9c0,0,0,0,0.1-0.1C3.7,8,4.7,7,5.6,6.1c0,0,0,0,0.1-0.1c0,0-0.1,0-0.1-0.1C4.6,5,3.7,4,2.7,3.1
	C2.7,3,2.6,2.9,2.7,2.8c0-0.2,0.2-0.2,0.4-0.1c0,0,0,0,0.1,0.1C4,3.7,5,4.7,5.9,5.6c0,0,0,0,0.1,0.1c0,0,0.1-0.1,0.1-0.1
	C7,4.7,8,3.7,8.9,2.8c0,0,0,0,0.1-0.1c0.1-0.1,0.2-0.1,0.3,0c0.1,0.1,0.1,0.2,0,0.3c0,0,0,0-0.1,0.1C8.3,4,7.4,5,6.4,5.9
	c0,0,0,0-0.1,0.1c0,0,0.1,0.1,0.1,0.1c1,1,1.9,1.9,2.9,2.8C9.3,9,9.4,9,9.4,9.1C9.4,9.2,9.3,9.3,9.2,9.3z"/>
</svg>
