<?xml version="1.0" encoding="utf-8"?>
<!-- Generator: Adobe Illustrator 27.0.0, SVG Export Plug-In . SVG Version: 6.00 Build 0)  -->
<svg version="1.1" id="Layer_1" xmlns="http://www.w3.org/2000/svg" xmlns:xlink="http://www.w3.org/1999/xlink" x="0px" y="0px"
	 viewBox="0 0 24 24" style="enable-background:new 0 0 24 24;" xml:space="preserve">
<style type="text/css">
	.st0{fill:#A9A9A9;}
</style>
<g>
	<path class="st0" d="M23.7,5c0,5.2,0,10.3,0,15.5c-0.1,0.2-0.1,0.4-0.2,0.6c-0.4,0.8-1,1.2-1.9,1.2c-1.5,0-3,0-4.5,0
		c-4.8,0-9.6,0-14.5,0c-0.4,0-0.7,0-1-0.2c-0.8-0.4-1.2-1.1-1.2-2c0-4.9,0-9.8,0-14.8c0-0.6,0.2-0.8,0.8-0.8c1.9,0,3.8,0,5.8,0
		c0.1,0,0.2,0,0.3,0c0-0.2,0-0.4,0-0.6c0-1.2,0.9-2.1,2.1-2.1c1.8,0,3.6,0,5.3,0c1.2,0,2.1,0.9,2.1,2.1c0,0.2,0,0.4,0,0.6
		c0.1,0,0.2,0,0.3,0c1.9,0,3.8,0,5.7,0C23.2,4.5,23.5,4.6,23.7,5z M22.3,9.5C22.3,9.5,22.3,9.5,22.3,9.5c-0.1,0-0.1,0.1-0.1,0.1
		c-0.3,0.9-0.6,1.9-1,2.8c-0.3,1-1.1,1.5-2.1,1.5c-1.2,0-2.3,0-3.5,0c-0.1,0-0.2,0-0.3,0c0,0.2,0,0.4,0,0.6c0,0.5-0.3,0.8-0.8,0.8
		c-1.8,0-3.5,0-5.3,0c-0.5,0-0.8-0.3-0.8-0.8c0-0.2,0-0.4,0-0.6c-0.1,0-0.2,0-0.3,0c-1.1,0-2.3,0-3.4,0c-1,0-1.8-0.5-2.1-1.5
		c-0.2-0.6-0.4-1.2-0.6-1.8C2,10.3,1.9,9.9,1.7,9.5c0,0,0,0,0,0c0,0.1,0,0.1,0,0.2c0,3.4,0,6.9,0,10.3c0,0.6,0.3,0.8,0.8,0.8
		c6.3,0,12.6,0,18.9,0c0.6,0,0.8-0.2,0.8-0.8c0-3.4,0-6.9,0-10.3C22.3,9.7,22.3,9.6,22.3,9.5z M8.6,12.7c0-0.2,0-0.4,0-0.6
		c0-0.5,0.3-0.7,0.7-0.7c1.8,0,3.6,0,5.4,0c0.5,0,0.7,0.3,0.7,0.7c0,0.2,0,0.4,0,0.6c0.1,0,0.2,0,0.3,0c1.1,0,2.3,0,3.4,0
		c0.5,0,0.7-0.1,0.9-0.6c0.7-2,1.3-4,2-6C22,6,22,5.9,22,5.9c-6.7,0-13.4,0-20,0c0,0,0,0.1,0,0.1c0.7,2.1,1.4,4.1,2.1,6.2
		c0.1,0.4,0.4,0.5,0.8,0.5c0.9,0,1.8,0,2.7,0C7.9,12.7,8.2,12.7,8.6,12.7z M15.4,4.5c0-0.2,0-0.4,0-0.5c0-0.6-0.3-0.8-0.8-0.8
		c-1.7,0-3.5,0-5.2,0c-0.1,0-0.1,0-0.2,0c-0.3,0-0.6,0.2-0.6,0.5c0,0.3,0,0.5,0,0.8C10.9,4.5,13.1,4.5,15.4,4.5z M10,14
		c1.4,0,2.7,0,4.1,0c0-0.5,0-0.9,0-1.3c-1.4,0-2.7,0-4.1,0C10,13.1,10,13.6,10,14z"/>
</g>
</svg>
