<?xml version="1.0" encoding="utf-8"?>
<!-- Generator: Adobe Illustrator 27.0.0, SVG Export Plug-In . SVG Version: 6.00 Build 0)  -->
<svg version="1.1" id="Layer_1" xmlns="http://www.w3.org/2000/svg" xmlns:xlink="http://www.w3.org/1999/xlink" x="0px" y="0px"
	 viewBox="0 0 25 25" style="enable-background:new 0 0 25 25;" xml:space="preserve">
<style type="text/css">
	.st0{fill:#FFFFFF;}
</style>
<g>
	<path class="st0" d="M2.8,24.4c-0.1,0-0.3-0.1-0.4-0.1C1.3,24,0.6,23,0.6,21.9c0-2.2,0-4.4,0-6.5c0-2.8,0-5.6,0-8.4
		c0-1.2,0.8-2.2,2-2.5c0.2,0,0.4-0.1,0.6-0.1c3.4,0,6.8,0,10.2,0c0.5,0,0.8,0.3,0.8,0.7c0,0.4-0.3,0.7-0.8,0.7c-3.4,0-6.7,0-10.1,0
		c-0.6,0-1.1,0.4-1.2,1C2,6.9,2,7,2,7.1c0,4.9,0,9.8,0,14.7C2,22.6,2.4,23,3.2,23c4.9,0,9.8,0,14.7,0c0.8,0,1.3-0.5,1.3-1.3
		c0-3.3,0-6.7,0-10c0-0.1,0-0.3,0-0.4c0.1-0.3,0.4-0.5,0.8-0.5c0.3,0,0.6,0.3,0.6,0.6c0,0.1,0,0.1,0,0.2c0,3.3,0,6.7,0,10
		c0,1.5-1,2.5-2.1,2.7c0,0,0,0-0.1,0C13.2,24.4,8,24.4,2.8,24.4z"/>
	<path class="st0" d="M24.4,3.8C24.3,4.3,24,4.7,23.6,5c-3.4,3.3-6.7,6.7-10,10c-0.2,0.2-0.5,0.4-0.8,0.4c-1,0.2-2,0.4-3,0.6
		c-0.6,0.1-1-0.3-0.9-0.9c0.2-1.1,0.4-2.1,0.6-3.1c0-0.2,0.1-0.4,0.3-0.5c3.5-3.5,7-7,10.4-10.5c0.7-0.7,1.7-0.7,2.4,0
		c0.4,0.4,0.8,0.8,1.2,1.2c0.3,0.3,0.5,0.6,0.6,1C24.4,3.4,24.4,3.6,24.4,3.8z M19.5,3.9c-2.8,2.8-5.7,5.7-8.6,8.6
		c-0.1,0.6-0.2,1.3-0.4,1.9c0.1,0,0.1,0,0.2,0c0.6-0.1,1.2-0.2,1.7-0.4c0.1,0,0.2-0.1,0.3-0.2c2.7-2.7,5.5-5.5,8.2-8.2
		c0.1-0.1,0.1-0.1,0.2-0.2C20.6,5,20,4.4,19.5,3.9z M20.5,2.8c0.6,0.6,1.1,1.1,1.6,1.6C22.4,4.2,22.7,4,23,3.7
		c0.1-0.1,0.1-0.2,0-0.3c-0.4-0.4-0.9-0.9-1.3-1.3c-0.1-0.1-0.2-0.1-0.4,0C21,2.3,20.8,2.6,20.5,2.8z"/>
</g>
</svg>
