<svg xmlns="http://www.w3.org/2000/svg" width="27.747" height="27.319" viewBox="0 0 27.747 27.319">
  <g id="Group_107" data-name="Group 107" transform="translate(0.008 -0.002)">
    <path id="Path_192" data-name="Path 192" d="M51.462,22.225a1.659,1.659,0,0,1-1.911-1.818c.068-.954.172-1.907.261-2.859.027-.291.063-.581.086-.872a2.16,2.16,0,0,1,.586-1.328c.048-.052.1-.1.146-.153Q57.685,8.137,64.744,1.081A3.592,3.592,0,0,1,69.486.74a10.172,10.172,0,0,1,1.592,1.605,3.434,3.434,0,0,1-.166,4.422c-.464.517-.97,1-1.461,1.489q-6.382,6.385-12.762,12.772a2.92,2.92,0,0,1-1.976.9c-1.135.074-2.268.2-3.251.3Zm.064-2.015c.142,0,.222.006.3,0,.963-.087,1.926-.18,2.889-.262a.841.841,0,0,0,.548-.273q5.693-5.7,11.393-11.4c.061-.061.115-.127.157-.174L63.687,4.973l-11.85,11.82Q51.685,18.455,51.526,20.211ZM68.277,6.67c.365-.366.74-.731,1.1-1.108a1.554,1.554,0,0,0,.042-2.183c-.331-.365-.683-.714-1.046-1.047a1.5,1.5,0,0,0-1.993-.077A16.422,16.422,0,0,0,65.154,3.55L68.277,6.67Z" transform="translate(-46.631 0)" fill="#999"/>
    <path id="Path_193" data-name="Path 193" d="M13.832,432.056H1.252c-.131,0-.262,0-.393-.009a.967.967,0,0,1-.184-1.887,1.65,1.65,0,0,1,.448-.053q12.746,0,25.492,0a1,1,0,0,1,1.122,1.051.959.959,0,0,1-.842.888,3.63,3.63,0,0,1-.393.012Z" transform="translate(0 -404.736)" fill="#999"/>
  </g>
</svg>
