<?xml version="1.0" encoding="utf-8"?>
<!-- Generator: Adobe Illustrator 27.0.0, SVG Export Plug-In . SVG Version: 6.00 Build 0)  -->
<svg version="1.1" id="Layer_1" xmlns="http://www.w3.org/2000/svg" xmlns:xlink="http://www.w3.org/1999/xlink" x="0px" y="0px"
	 viewBox="0 0 45 45" style="enable-background:new 0 0 45 45;" xml:space="preserve">
<style type="text/css">
	.st0{fill:#1C1F66;}
	.st1{fill:#FFFFFF;}
</style>
<circle class="st0" cx="22.5" cy="22.5" r="22"/>
<g>
	<path class="st1" d="M12.1,35.2c-0.1,0-0.3-0.1-0.4-0.1c-1.1-0.4-1.9-1.4-1.9-2.6c0-2.3,0-4.6,0-7c0-3,0-5.9,0-8.9
		c0-1.3,0.8-2.4,2.1-2.7c0.2-0.1,0.4-0.1,0.7-0.1c3.6,0,7.2,0,10.8,0c0.5,0,0.8,0.3,0.8,0.7c0,0.4-0.3,0.8-0.8,0.8
		c-3.6,0-7.2,0-10.8,0c-0.7,0-1.2,0.4-1.3,1c0,0.1,0,0.2,0,0.3c0,5.2,0,10.4,0,15.6c0,0.9,0.5,1.4,1.4,1.4c5.2,0,10.4,0,15.6,0
		c0.9,0,1.4-0.5,1.4-1.4c0-3.5,0-7.1,0-10.6c0-0.1,0-0.3,0.1-0.4c0.1-0.3,0.5-0.5,0.8-0.5c0.3,0,0.6,0.3,0.6,0.7c0,0.1,0,0.1,0,0.2
		c0,3.6,0,7.1,0,10.7c0,1.6-1.1,2.7-2.3,2.8c0,0,0,0-0.1,0C23.2,35.2,17.7,35.2,12.1,35.2z"/>
	<path class="st1" d="M35.2,13.3c-0.1,0.5-0.5,0.9-0.8,1.3c-3.6,3.6-7.1,7.1-10.7,10.7c-0.2,0.2-0.5,0.4-0.8,0.5
		c-1.1,0.2-2.1,0.4-3.2,0.6c-0.6,0.1-1.1-0.3-0.9-0.9c0.2-1.1,0.4-2.2,0.7-3.4c0-0.2,0.2-0.4,0.3-0.5c3.7-3.7,7.4-7.4,11.1-11.1
		c0.8-0.8,1.8-0.7,2.6,0c0.4,0.4,0.8,0.8,1.2,1.2c0.3,0.3,0.5,0.6,0.6,1C35.2,12.8,35.2,13.1,35.2,13.3z M30,13.4
		c-3,3-6.1,6.1-9.2,9.2c-0.1,0.6-0.3,1.3-0.4,2.1c0.1,0,0.1,0,0.2,0c0.6-0.1,1.2-0.2,1.8-0.4c0.1,0,0.2-0.1,0.3-0.2
		c2.9-2.9,5.8-5.8,8.8-8.8c0.1-0.1,0.1-0.1,0.2-0.2C31.1,14.5,30.5,13.9,30,13.4z M31.1,12.2c0.6,0.6,1.2,1.2,1.8,1.8
		c0.3-0.3,0.5-0.5,0.8-0.8c0.1-0.1,0.1-0.3,0-0.4c-0.5-0.5-0.9-0.9-1.4-1.4c-0.1-0.1-0.3-0.1-0.4,0C31.6,11.7,31.3,11.9,31.1,12.2z"
		/>
</g>
</svg>
