<?xml version="1.0" encoding="utf-8"?>
<!-- Generator: Adobe Illustrator 27.0.0, SVG Export Plug-In . SVG Version: 6.00 Build 0)  -->
<svg version="1.1" id="Layer_1" xmlns="http://www.w3.org/2000/svg" xmlns:xlink="http://www.w3.org/1999/xlink" x="0px" y="0px"
	 viewBox="0 0 11 22" style="enable-background:new 0 0 11 22;" xml:space="preserve">
<style type="text/css">
	.st0{fill:#AAAAAA;}
</style>
<g>
	<path class="st0" d="M9.2,20.6c-0.9,0.8-1.8,1.3-3,1.3c-0.6,0-1.2,0-1.8,0c-1.1-0.1-2-0.5-2.7-1.3c-0.8-0.8-1.2-1.8-1.2-3
		c0-3.6,0-7.2,0-10.8c0-0.1,0-0.1,0-0.2c0-0.2,0.2-0.3,0.4-0.3c0.2,0,0.4,0.1,0.4,0.3c0,0.1,0,0.2,0,0.3c0,3.5,0,7.1,0,10.6
		c0,1,0.4,1.9,1.1,2.6c0.6,0.6,1.4,0.9,2.3,0.9c0.5,0,0.9,0,1.4,0c2,0,3.5-1.5,3.5-3.5c0-1.3,0-2.6,0-3.9c0-3.4,0-6.8,0-10.2
		c0-0.6-0.1-1.1-0.5-1.5C8.7,1.3,8.1,1,7.3,0.9c-0.4,0-0.8,0-1.2,0C4.7,1,3.6,2.1,3.6,3.4c0,1.3,0,2.5,0,3.8c0,3,0,5.9,0,8.9
		c0,0.3,0.1,0.6,0.2,0.9c0.3,0.5,0.7,0.7,1.2,0.8c0.3,0,0.6,0,0.9,0c0.8-0.1,1.4-0.7,1.4-1.6c0-0.8,0-1.6,0-2.3c0-2.3,0-4.6,0-6.9
		c0-0.1,0-0.1,0-0.2c0-0.2,0.2-0.4,0.4-0.4c0.2,0,0.4,0.1,0.4,0.4c0,0.1,0,0.1,0,0.2c0,3.1,0,6.1,0,9.2c0,1.4-1.1,2.4-2.4,2.4
		c-0.4,0-0.8,0-1.1-0.1c-1-0.2-1.8-1.1-1.8-2.2c0-1,0-1.9,0-2.9c0-3.3,0-6.6,0-9.8c0-0.7,0.2-1.4,0.6-2C4,0.7,4.8,0.2,5.9,0.1
		c0.5,0,1,0,1.5,0c1.6,0.1,3,1.4,3.1,3.1c0,0.2,0,0.3,0,0.5c0,4.6,0,9.2,0,13.8c0,1-0.3,1.9-0.9,2.7C9.5,20.4,9.3,20.5,9.2,20.6z"/>
</g>
</svg>
