<svg xmlns="http://www.w3.org/2000/svg" width="21.685" height="25.791" viewBox="0 0 21.685 25.791">
  <path id="flag-R" d="M2.2,17.3v7.167a1.407,1.407,0,0,1-.259.892,1.058,1.058,0,0,1-1.166.385,1.1,1.1,0,0,1-.771-.96c-.005-.111,0-.222,0-.332V16.37Q.005,9.863,0,3.361c0-.2,0-.4.011-.591a1.093,1.093,0,0,1,1.683-.881.94.94,0,0,1,.164.121,5.181,5.181,0,0,0,5.1,1.082A20.428,20.428,0,0,0,9.832,2.01,32.953,32.953,0,0,1,13.748.437,8.678,8.678,0,0,1,17.653.089a7.022,7.022,0,0,1,3.673,1.852,1.1,1.1,0,0,1,.359.85V15.1a1.057,1.057,0,0,1-.628,1.029,1.068,1.068,0,0,1-1.2-.164,6.134,6.134,0,0,0-1.837-1.1,5.449,5.449,0,0,0-3.182-.032A19.751,19.751,0,0,0,11.8,15.974a29.342,29.342,0,0,1-4.554,1.694A7.247,7.247,0,0,1,2.8,17.536c-.185-.069-.364-.148-.6-.243ZM19.537,3.234a14.165,14.165,0,0,0-1.256-.676,5.224,5.224,0,0,0-3.494-.127,22.9,22.9,0,0,0-3.531,1.362A23.5,23.5,0,0,1,7.378,5.25a7.7,7.7,0,0,1-4.422-.084c-.248-.084-.486-.19-.744-.29v9.9a5.01,5.01,0,0,0,1.683.865A5.841,5.841,0,0,0,7.177,15.5a28,28,0,0,0,3.562-1.425,21.424,21.424,0,0,1,3.647-1.34,7.7,7.7,0,0,1,4.275.084c.285.095.565.222.865.338V3.234Z" transform="translate(0 0.002)" fill="#e00"/>
</svg>
