<svg width="20" height="20" viewBox="0 0 20 20" fill="none" xmlns="http://www.w3.org/2000/svg">
<g id="Capa_1">
<g id="Group">
<g id="line_expanded_56_">
<g id="Group_2">
<path id="Vector" d="M8.12499 17.5C8.00001 17.5 8.00001 17.5 7.87499 17.5C7.62498 17.375 7.49999 17.125 7.49999 16.875V14.375C7.49999 14 7.75 13.75 8.12499 13.75C8.49999 13.75 8.75 14 8.75 14.375V15.5L14.75 9.99999L8.75 4.50001V8.125C8.75 8.5 8.49999 8.75001 8.12499 8.75001H5.625C3.24999 8.75001 1.25001 10.75 1.25001 13.125V13.375C2.25002 12.125 3.875 11.25 5.625 11.25H8.12499C8.49999 11.25 8.75 11.5 8.75 11.875C8.75 12.25 8.49999 12.5 8.12499 12.5H5.625C3.24999 12.5 1.25001 14.5 1.25001 16.875C1.25001 17.25 1 17.5 0.625007 17.5C0.250009 17.5 0 17.25 0 16.875V13.125C0 9.99999 2.5 7.49999 5.625 7.49999H7.49999V3.12501C7.49999 2.875 7.62498 2.62502 7.87499 2.5C8.12499 2.5 8.37497 2.5 8.49999 2.62499L16 9.49997C16.125 9.62496 16.25 9.87497 16.25 9.99996C16.25 10.1249 16.125 10.375 16 10.4999L8.49999 17.375C8.375 17.5 8.24998 17.5 8.12499 17.5Z" fill="#AAAAAA"/>
</g>
<g id="Group_3">
<path id="Vector_2" d="M11.875 17.5C11.75 17.5 11.5 17.375 11.375 17.25C11.125 17 11.125 16.625 11.375 16.375L18.5 9.99999L11.5 3.62499C11.25 3.37498 11.125 2.99998 11.375 2.75001C11.625 2.5 12 2.5 12.25 2.75001L19.75 9.62499C19.875 9.62499 20 9.875 20 9.99999C20 10.125 19.875 10.375 19.75 10.5L12.25 17.375C12.125 17.5 12 17.5 11.875 17.5Z" fill="#AAAAAA"/>
</g>
</g>
</g>
</g>
</svg>
