<svg xmlns="http://www.w3.org/2000/svg" width="28" height="27.833" viewBox="0 0 28 27.833">
  <g id="Group_81" data-name="Group 81" transform="translate(0.002)">
    <path id="Path_153" data-name="Path 153" d="M13.073,0h1.86c.063.016.12.031.183.042.763.125,1.536.192,2.284.374a13.648,13.648,0,0,1,6.966,4.153,13.6,13.6,0,0,1,3.48,7.3c.057.374.1.748.152,1.123v1.85c-.016.068-.037.14-.047.208-.057.421-.089.847-.167,1.263a13.483,13.483,0,0,1-4.928,8.363A13.621,13.621,0,0,1,11.579,27.61a13.385,13.385,0,0,1-8.387-4.886A13.482,13.482,0,0,1,.438,10.509,13.391,13.391,0,0,1,4.623,3.592,13.763,13.763,0,0,1,11.971.146C12.336.094,12.707.047,13.073,0Zm.941,25.66a11.739,11.739,0,1,0,0,.005Z" transform="translate(0)" fill="#4bae00"/>
    <path id="Path_154" data-name="Path 154" d="M21.419,21.213v3.944a1.049,1.049,0,0,1-.447.919,1.013,1.013,0,0,1-1.58-.744,2.48,2.48,0,0,1-.01-.331V21.213h-4a.991.991,0,0,1-1-.749,1,1,0,0,1,.749-1.245,2.124,2.124,0,0,1,.428-.039h3.822V15.236a1.017,1.017,0,1,1,2.033-.049c.015.652,0,1.3,0,1.955v2.042h3.822a1.732,1.732,0,0,1,.525.068,1.006,1.006,0,0,1-.3,1.96c-1.235.01-2.475,0-3.71,0h-.34Z" transform="translate(-6.399 -6.386)" fill="#4bae00"/>
  </g>
</svg>
