<svg xmlns="http://www.w3.org/2000/svg" width="14" height="14.027" viewBox="0 0 14 14.027">
  <g id="Group_89" data-name="Group 89" transform="translate(0 -0.003)">
    <path id="Path_228" data-name="Path 228" d="M0,77.88Z" transform="translate(0 -66.859)" fill="#a7a9ac"/>
    <path id="Path_229" data-name="Path 229" d="M14,2.14A2.09,2.09,0,0,0,11.907.008Q7,0,2.094.01A2.186,2.186,0,0,0,1.411.13,2.084,2.084,0,0,0,0,2.161Q0,5.993,0,9.825V10.92c0,.144,0,.436,0,.984a2.092,2.092,0,0,0,2.1,2.122q4.895.011,9.79,0a2.176,2.176,0,0,0,.663-.109A2.093,2.093,0,0,0,14,11.86c0-2.811,0-.013,0-2.823,0-2.3,0-4.6,0-6.9Zm-5.412.892a.729.729,0,0,1,.767-.165.694.694,0,0,1,.44.681.771.771,0,0,1-.315.559c-.886.735-1.768,1.475-2.652,2.212L5.4,7.509a.712.712,0,0,1-.645.185.7.7,0,0,1-.308-1.2c.25-.224.512-.432.77-.646Q6.9,4.439,8.585,3.032Zm1.21,3.977a.7.7,0,1,1-.7-.688.7.7,0,0,1,.7.688ZM4.91,2.815A.7.7,0,1,1,4.2,3.5a.7.7,0,0,1,.705-.687Zm6.266,7.854a.7.7,0,0,1-.611.545c-.043,0-.087,0-.13,0H3.573a.709.709,0,0,1-.7-.4A.69.69,0,0,1,3.5,9.824c.335-.01.67,0,1.005,0H7.019c1.128,0,2.258,0,3.387,0a1.007,1.007,0,0,1,.457.109.664.664,0,0,1,.314.732Z" fill="#a7a9ac"/>
  </g>
</svg>
