<svg xmlns="http://www.w3.org/2000/svg" width="52" height="52" viewBox="0 0 52 52">
  <g id="Group_74" data-name="Group 74" transform="translate(-823 -234)">
    <rect id="Rectangle_30" data-name="Rectangle 30" width="52" height="52" rx="12" transform="translate(823 234)" fill="#ff5656"/>
    <g id="Group_73" data-name="Group 73" transform="translate(835.004 246)">
      <path id="Path_83" data-name="Path 83" d="M0,13.639V7.33a7.119,7.119,0,0,1,2.34-5.391A7,7,0,0,1,6.331.061a7.268,7.268,0,0,1,.96-.055C11.011,0,14.725.006,18.438,0a3.756,3.756,0,0,1,2.65,1.051q1.951,1.823,3.9,3.653c.389.365.784.711,1.167,1.082a3.568,3.568,0,0,1,1.167,2.626c0,3.944.012,7.883,0,11.827a6.888,6.888,0,0,1-1.653,4.437,7.2,7.2,0,0,1-4.455,2.571,5.265,5.265,0,0,1-.875.079c-4.455,0-8.91.024-13.365,0a6.78,6.78,0,0,1-4.3-1.629,7.2,7.2,0,0,1-2.6-4.473A5.943,5.943,0,0,1,0,20.233c-.006-2.2,0-4.4,0-6.594H0ZM18.2,1.86H7.437a6.473,6.473,0,0,0-1.185.115A5.28,5.28,0,0,0,3.3,3.616,5.491,5.491,0,0,0,1.852,7.482V19.82a7.07,7.07,0,0,0,.109,1.24,5.2,5.2,0,0,0,1.659,2.972,5.51,5.51,0,0,0,3.872,1.44H19.8a6.859,6.859,0,0,0,1.27-.115,5.183,5.183,0,0,0,2.948-1.647,5.506,5.506,0,0,0,1.447-3.872V8.582a2.878,2.878,0,0,0-.049-.365H21.769a3.321,3.321,0,0,1-.65-.061,3.655,3.655,0,0,1-2.936-3.592c.018-.784,0-1.574,0-2.358V1.854Zm1.9.845-.073.018c.024.717.012,1.44.079,2.152a1.64,1.64,0,0,0,1.434,1.44c.523.061,1.058.043,1.586.055.273.006.541,0,.814,0,.006-.018.018-.036.024-.055L20.091,2.7Z" transform="translate(0)" fill="#fff"/>
      <path id="Path_84" data-name="Path 84" d="M20.181,20.166v3.173a.9.9,0,0,1-.638.881.938.938,0,0,1-1.039-.334.914.914,0,0,1-.182-.583V20.184c-.128-.006-.231-.018-.328-.018H15.148a.885.885,0,0,1-.839-.535.925.925,0,0,1,.875-1.325H18.3c.006-.128.018-.231.018-.328V15.134a.888.888,0,0,1,.912-.924.916.916,0,0,1,.942.924v3.148c.128.006.225.018.328.018h2.844a.927.927,0,0,1,0,1.854H20.181Z" transform="translate(13.662 -13.546) rotate(45)" fill="#fff"/>
    </g>
  </g>
</svg>
