<svg id="sub-task" xmlns="http://www.w3.org/2000/svg" width="17.458" height="22" viewBox="0 0 17.458 22">
  <path id="Path_158" data-name="Path 158" d="M8.941,0a.924.924,0,0,1,.59,1.01c-.017.173,0,.353,0,.573.119,0,.227-.007.336,0a5.958,5.958,0,0,1,1.048.085,2.348,2.348,0,0,1,1.658,1.5h3.97a.811.811,0,0,1,.915.909V21.095a.81.81,0,0,1-.892.905H.9A.809.809,0,0,1,0,21.095c0-7.371,0-9.655,0-17.019A.81.81,0,0,1,.915,3.17h3.97A2.619,2.619,0,0,1,7.93,1.6c0-.224.014-.407,0-.59A.917.917,0,0,1,8.52,0h.424ZM12.7,4.77v.7a.8.8,0,0,1-.868.875H5.618a.8.8,0,0,1-.861-.854V4.784H1.61v15.6H15.844V4.77ZM6.354,4.733H11.1c0-.275.01-.532,0-.787a.779.779,0,0,0-.787-.766q-1.587-.01-3.17,0a.781.781,0,0,0-.787.766c-.01.254,0,.509,0,.787Z" fill="#aaa"/>
  <path id="Path_159" data-name="Path 159" d="M11.752,26.337c.064-.057.132-.122.2-.189.784-.78,1.561-1.567,2.348-2.344a.794.794,0,0,1,1.368.348.819.819,0,0,1-.27.807q-1.12,1.115-2.236,2.233c-.274.274-.544.551-.821.817a.8.8,0,0,1-1.213,0q-.75-.74-1.49-1.49A.8.8,0,1,1,10.769,25.4c.307.3.611.6.915.909a.251.251,0,0,0,.064.027Z" transform="translate(-6.181 -14.534)" fill="#aaa"/>
  <path id="Path_160" data-name="Path 160" d="M11.727,40.412l1.523-1.523c.348-.348.692-.7,1.044-1.04a.8.8,0,1,1,1.125,1.125q-1.53,1.54-3.074,3.074a.791.791,0,0,1-1.209.007c-.507-.5-1.01-1-1.507-1.51a.8.8,0,1,1,1.121-1.128c.324.318.638.649.983,1Z" transform="translate(-6.183 -23.807)" fill="#aaa"/>
  <path id="Path_164" data-name="Path 164" d="M34.341,32.884c.253,0,.507,0,.763,0a.792.792,0,1,1,.01,1.584q-.775.01-1.55,0a.792.792,0,1,1-.01-1.584C33.817,32.877,34.081,32.884,34.341,32.884Z" transform="translate(-21.637 -22.746)" fill="#aaa"/>
  <path id="Path_194" data-name="Path 194" d="M34.341,32.884c.253,0,.507,0,.763,0a.792.792,0,1,1,.01,1.584q-.775.01-1.55,0a.792.792,0,1,1-.01-1.584C33.817,32.877,34.081,32.884,34.341,32.884Z" transform="translate(-21.637 -17.665)" fill="#aaa"/>
</svg>
