<svg id="assignee" xmlns="http://www.w3.org/2000/svg" width="22" height="22" viewBox="0 0 22 22">
  <path id="Path_165" data-name="Path 165" d="M0,10.337c.04-.317.072-.638.12-.954A11.07,11.07,0,0,1,8.212.364,10.24,10.24,0,0,1,12.455.115c.633.1,1.258.253,1.871.377-.481.477-.941.938-1.446,1.444A9.3,9.3,0,0,0,2.516,7.285a9.255,9.255,0,0,0,1.5,9.833,7.26,7.26,0,0,1,4.09-4.956,4.228,4.228,0,0,1-1.35-3.637,4.178,4.178,0,0,1,1.5-2.791,4.28,4.28,0,0,1,5.636,6.44,7.236,7.236,0,0,1,2.624,2,7.549,7.549,0,0,1,1.478,2.939,9.331,9.331,0,0,0,1.446-9.993l1.27-1.271c.092.184.2.377.288.573a11.039,11.039,0,0,1-5.28,14.561,10.711,10.711,0,0,1-3.453.978.8.8,0,0,0-.14.036H9.891c-.2-.032-.393-.06-.593-.092A10.988,10.988,0,0,1,.12,12.671c-.048-.3-.08-.61-.12-.914v-1.42Zm5.6,8.237a9.21,9.21,0,0,0,10.808-.024A5.406,5.406,0,0,0,5.6,18.574ZM11,11.556A2.546,2.546,0,1,0,8.457,9.014,2.54,2.54,0,0,0,11,11.556Z" transform="translate(0 0.002)" fill="#aaa"/>
  <path id="Path_166" data-name="Path 166" d="M34.71,4.821l1.2-1.2c.706.706,1.424,1.424,2.134,2.138Q39.871,3.93,41.626,2.18l1.209,1.209L38.052,8.171C36.961,7.08,35.834,5.952,34.71,4.825Z" transform="translate(-20.907 -1.295)" fill="#aaa"/>
</svg>
