<svg xmlns="http://www.w3.org/2000/svg" width="22" height="22" viewBox="0 0 22 22">
  <path id="date" d="M18.183,22H3.835a.808.808,0,0,0-.12-.038A4.244,4.244,0,0,1,.009,17.807C0,13.83-.011,9.857.016,5.884a4.077,4.077,0,0,1,2.254-3.7,4.216,4.216,0,0,1,2.127-.5h.676c0-.3,0-.573,0-.841A.861.861,0,0,1,6.8.837c.01.278,0,.552,0,.834h8.416c0-.261-.01-.511,0-.758A1.212,1.212,0,0,1,15.3.5a.846.846,0,0,1,.937-.48.855.855,0,0,1,.7.817c.007.278,0,.552,0,.854.305,0,.583-.007.861,0a4.249,4.249,0,0,1,4.1,3.29c.041.172.072.347.106.518V18.219a.808.808,0,0,0-.038.12,4.2,4.2,0,0,1-3.04,3.493c-.24.079-.5.113-.745.168Zm2.1-13.5H1.732v9.147a2.532,2.532,0,0,0,2.608,2.625q6.67.005,13.34,0a2.69,2.69,0,0,0,.6-.058,2.521,2.521,0,0,0,2.011-2.5V8.5ZM16.945,3.448V5.033a.865.865,0,1,1-1.726-.01V3.438H6.8v.254c0,.467,0,.93,0,1.4a.861.861,0,0,1-1.722.01c-.007-.549,0-1.1,0-1.671-.336,0-.659-.021-.974,0A2.632,2.632,0,0,0,1.77,6.742H20.314a8.278,8.278,0,0,0-.106-1.355,2.658,2.658,0,0,0-3.266-1.939Z" transform="translate(0.001)" fill="#aaa"/>
</svg>
