<svg xmlns="http://www.w3.org/2000/svg" width="44" height="44" viewBox="0 0 44 44">
  <g id="Group_163" data-name="Group 163" transform="translate(-312 -552)">
    <circle id="Ellipse_2" data-name="Ellipse 2" cx="22" cy="22" r="22" transform="translate(312 552)" fill="#ffe7e4"/>
    <g id="Group_153" data-name="Group 153" transform="translate(324.993 563)">
      <path id="Path_318" data-name="Path 318" d="M1.552,10.933v-.318q0-4.063,0-8.126a2.393,2.393,0,0,1,.794-1.9A2.163,2.163,0,0,1,3.8,0C6.149,0,8.5,0,10.849,0a.824.824,0,0,1,.676.367q1.258,1.62,2.521,3.236c.915,1.174,1.828,2.35,2.747,3.52a1.146,1.146,0,0,1,.263.757c-.01.93,0,1.86,0,2.79v.268c.072.032.131.056.187.084a2.225,2.225,0,0,1,1.354,2.054c.028,2.094.023,4.189,0,6.283a2.315,2.315,0,0,1-2.353,2.286c-.519.01-1.037,0-1.555,0q-6.113,0-12.226,0a2.27,2.27,0,0,1-2.244-1.4,2.543,2.543,0,0,1-.2-.986C0,17.231.006,15.2.013,13.171a2.329,2.329,0,0,1,1.538-2.239ZM15.476,8.506c-1.033,0-2.038.017-3.042-.01a2.574,2.574,0,0,1-.985-.206,2.248,2.248,0,0,1-1.376-2.2V1.559H4.016c-.62,0-.9.282-.9.908q0,4.039,0,8.077c0,.085.01.171.016.253H15.476Zm-8.1,7.707c0,.768,0,1.535,0,2.3a.764.764,0,0,0,.773.794c.291.01.583.012.874,0a2.261,2.261,0,0,0,2.2-2.218c.021-.6.021-1.2,0-1.793a2.2,2.2,0,0,0-1.758-2.078A6.581,6.581,0,0,0,8.2,13.149a.758.758,0,0,0-.825.834c0,.743,0,1.487,0,2.23Zm-2.729.777c.267,0,.5,0,.733,0a1.576,1.576,0,0,0,1.554-1.307,5.015,5.015,0,0,0,.04-.844,1.6,1.6,0,0,0-1.665-1.691c-.453-.008-.906-.006-1.359,0a.762.762,0,0,0-.832.83q-.009,2.253,0,4.507a.989.989,0,0,0,.121.459.726.726,0,0,0,.834.336.741.741,0,0,0,.569-.725c.006-.508,0-1.016,0-1.565Zm8.532-1.531v-.79h.278c.421,0,.842.005,1.263,0a.757.757,0,0,0,.766-.746.743.743,0,0,0-.742-.768q-1.178-.021-2.356,0a.722.722,0,0,0-.748.757q-.012,2.315,0,4.63a.76.76,0,0,0,.767.773.768.768,0,0,0,.752-.789c.006-.42,0-.84,0-1.26,0-.086.008-.171.013-.272.277,0,.528.005.778,0a.737.737,0,0,0,.7-.473.761.761,0,0,0-.712-1.054c-.248-.012-.5,0-.762,0Zm1.49-8.513L11.7,3.13l-.06.018v.375c0,.873,0,1.746,0,2.619a.746.746,0,0,0,.733.8c.745.011,1.49,0,2.3,0Z" fill="#ff3423"/>
      <path id="Path_319" data-name="Path 319" d="M137.57,229.823v-3.061a.7.7,0,0,1,.77.694c.021.556.021,1.114,0,1.67a.722.722,0,0,1-.768.7Z" transform="translate(-128.645 -212.059)" fill="#ff3423"/>
      <path id="Path_320" data-name="Path 320" d="M71.86,226.52h.749v.749H71.86Z" transform="translate(-67.195 -211.835)" fill="#ff3423"/>
    </g>
  </g>
</svg>
