<?xml version="1.0" encoding="utf-8"?>
<!-- Generator: Adobe Illustrator 27.0.0, SVG Export Plug-In . SVG Version: 6.00 Build 0)  -->
<svg version="1.1" id="Layer_1" xmlns="http://www.w3.org/2000/svg" xmlns:xlink="http://www.w3.org/1999/xlink" x="0px" y="0px"
	 viewBox="0 0 1500 410.6" style="enable-background:new 0 0 1500 410.6;" xml:space="preserve">
<style type="text/css">
	.st0{fill:#1C1F66;}
	.st1{fill:#808080;}
	.st2{fill-rule:evenodd;clip-rule:evenodd;fill:#808080;}
	.st3{fill-rule:evenodd;clip-rule:evenodd;fill:#1C1F66;}
</style>
<g>
	<g>
		<path class="st0" d="M378.2,141.2H404v-37.4h-25.9V65h-45.3v38.8h-15.1v37.4h15.1v90.6h45.3V141.2L378.2,141.2z M485.2,138.4
			c18.7,0,29.5,12.9,29.5,28.7c0,16.5-10.8,28.7-29.5,28.7s-29.5-12.2-29.5-28.7C455.8,152,465.8,138.4,485.2,138.4L485.2,138.4z
			 M558.5,103.1h-45.3v12.2c-9.3-11.5-25.2-16.5-39.5-16.5c-38.1,0-64,31.6-64,68.3s26.6,68.3,64.7,68.3c15.1,0,30.9-5.7,38.8-18.7
			h0.7v14.4h44.6L558.5,103.1L558.5,103.1z M688.6,107.4c-12.9-5.7-28-7.9-42.4-7.9c-28,0-56.8,13.7-56.8,45.3
			c0,23,14.4,30.2,28.7,33.8c14.4,3.6,28.7,4.3,28.7,14.4c0,7.2-8.6,10.1-14.4,10.1c-11.5,0-26.6-6.5-35.9-12.9L579.4,221
			c15.8,9.3,33.8,15.1,51.7,15.1c29.5,0,60.4-13.7,60.4-47.4c0-23.7-15.8-33.8-37.4-38.1c-6.5-1.4-20.8-2.2-20.8-11.5
			c0-6.5,9.3-8.6,14.4-8.6c7.9,0,17.2,2.2,24.4,6.5L688.6,107.4L688.6,107.4z M762.6,24.1h-45.3v207.7h45.3v-52.5l49.6,52.5h64
			l-68.3-69l64-58.9h-61.8l-47.4,46L762.6,24.1L762.6,24.1z"/>
		<path class="st1" d="M934.4,103.1h-45.3v128.6h45.3v-66.8c0-15.8,5-29.5,23.7-29.5c22.3,0,20.8,21.6,20.8,33.8v62.5h45.3v-79.1
			c0-31.6-13.7-53.2-48.2-53.2c-18,0-30.2,5-41,20.8h-0.7V103.1L934.4,103.1z M1121.3,98.8c-41,0-77.6,24.4-77.6,68.3
			s35.9,68.3,77.6,68.3c41,0,77.6-24.4,77.6-68.3C1198.9,124,1162.9,98.8,1121.3,98.8L1121.3,98.8z M1121.3,138.4
			c18.7,0,29.5,12.9,29.5,28.7c0,16.5-10.8,28.7-29.5,28.7s-29.5-12.2-29.5-28.7C1092.5,152,1103.3,138.4,1121.3,138.4L1121.3,138.4
			z M1270,141.2h25.9v-37.4H1270V65h-45.3v38.8h-15.1v37.4h15.1v90.6h45.3V141.2L1270,141.2z M1346.9,149.1
			c2.9-12.9,13.7-20.1,27.3-20.1c12.2,0,23.7,7.9,25.9,20.1H1346.9L1346.9,149.1z M1441.1,170.7c0-43.8-25.9-71.1-70.4-71.1
			c-41.7,0-71.1,25.9-71.1,68.3c0,44.6,31.6,68.3,74,68.3c15.1,0,29.5-3.6,41-10.8c11.5-7.2,20.8-18,24.4-33.1h-43.8
			c-5,8.6-12.2,11.5-21.6,11.5c-18.7,0-28.7-10.1-28.7-28.7h95.6v-4.3H1441.1z"/>
		<path class="st2" d="M16.7,91.6l67.6-66.1l97,1.4v55.3l-13.7,13.7l-7.2-7.2V47.1L95,46.4v56.8l-57.5-0.7l-1.4,107.8l91.3,1.4
			l20.8,20.8l-133.7-0.7L16.7,91.6L16.7,91.6z M49,88.8l30.9-30.2v30.9L49,88.8L49,88.8z"/>
		<polygon class="st2" points="241.6,37 166.9,110.3 148.2,90.9 134.5,104.6 166.9,137.6 255.3,50.7 		"/>
		<polygon class="st3" points="241.6,85.9 166.9,159.9 148.2,140.5 134.5,154.2 166.9,186.5 255.3,99.5 		"/>
		<polygon class="st2" points="241.6,135.5 166.9,208.8 148.2,189.4 134.5,203 166.9,236.1 255.3,149.1 		"/>
	</g>
	<g>
		<path d="M1437.6,29.3v5.3h-10.5v34.2h-6.5V34.5H1410v-5.3H1437.6z"/>
		<path d="M1485.7,29.3v39.5h-6.5v-27l-12,27h-4.5l-12.1-27v27h-6.5V29.3h7l13.8,30.9l13.8-30.9H1485.7z"/>
	</g>
	<g>
		<path class="st1" d="M61.9,319.4c-1.7,3.2-4.5,5.9-8.3,7.9c-3.8,2-8.6,3-14.5,3h-13v29.1H14.3v-71.7h24.8c5.5,0,10.2,1,14,2.8
			c3.8,1.9,6.7,4.5,8.6,7.7c1.9,3.2,2.8,6.8,2.8,10.8C64.5,312.8,63.6,316.2,61.9,319.4z M49.1,317.7c2.2-2,3.3-4.9,3.3-8.6
			c0-7.8-4.4-11.8-13.3-11.8h-13v23.4h13C43.6,320.8,46.9,319.8,49.1,317.7z"/>
		<path class="st1" d="M127.5,335.4H84c0.3,4.5,2,8.2,5.1,10.9c3,2.8,6.7,4.1,11.1,4.1c6.3,0,10.8-2.6,13.4-7.9h12.7
			c-1.7,5.2-4.8,9.5-9.3,12.8c-4.5,3.3-10.1,5-16.8,5c-5.4,0-10.3-1.2-14.6-3.7c-4.3-2.4-7.7-5.9-10.1-10.3
			c-2.4-4.4-3.7-9.6-3.7-15.4c0-5.8,1.2-11,3.6-15.4c2.4-4.4,5.7-7.9,10-10.3c4.3-2.4,9.2-3.6,14.8-3.6c5.4,0,10.1,1.2,14.3,3.5
			s7.5,5.6,9.8,9.9c2.3,4.2,3.5,9.1,3.5,14.6C127.9,331.8,127.7,333.7,127.5,335.4z M115.6,325.9c-0.1-4.3-1.6-7.8-4.6-10.4
			c-3-2.6-6.8-3.9-11.3-3.9c-4.1,0-7.5,1.3-10.4,3.9c-2.9,2.6-4.6,6.1-5.2,10.5H115.6z"/>
		<path class="st1" d="M149.5,356.7c-4.3-2.4-7.7-5.9-10.2-10.3c-2.5-4.4-3.7-9.6-3.7-15.4c0-5.8,1.3-10.9,3.8-15.4
			c2.5-4.5,6-7.9,10.4-10.3c4.4-2.4,9.3-3.6,14.8-3.6s10.4,1.2,14.8,3.6c4.4,2.4,7.9,5.8,10.4,10.3c2.5,4.5,3.8,9.6,3.8,15.4
			c0,5.8-1.3,10.9-3.9,15.4c-2.6,4.5-6.2,7.9-10.7,10.4c-4.5,2.4-9.5,3.7-14.9,3.7C158.7,360.4,153.9,359.2,149.5,356.7z M172.6,348
			c2.6-1.4,4.8-3.6,6.4-6.5c1.7-2.9,2.5-6.4,2.5-10.5c0-4.1-0.8-7.6-2.4-10.5c-1.6-2.9-3.7-5-6.3-6.4c-2.6-1.4-5.4-2.2-8.5-2.2
			s-5.8,0.7-8.4,2.2c-2.6,1.4-4.6,3.6-6.1,6.4c-1.5,2.9-2.3,6.3-2.3,10.5c0,6.1,1.6,10.9,4.7,14.2c3.1,3.3,7.1,5,11.8,5
			C167.1,350.2,170,349.5,172.6,348z"/>
		<path class="st1" d="M225.2,304.4c3.4-1.8,7.3-2.7,11.7-2.7c5,0,9.5,1.2,13.6,3.7c4.1,2.4,7.3,5.9,9.6,10.3
			c2.3,4.4,3.5,9.5,3.5,15.2c0,5.7-1.2,10.8-3.5,15.3c-2.3,4.5-5.6,8-9.6,10.5c-4.1,2.5-8.6,3.8-13.6,3.8c-4.3,0-8.2-0.9-11.6-2.6
			c-3.4-1.7-6.1-3.9-8.3-6.6v35.3h-11.8v-83.9H217v8.4C219,308.4,221.7,306.2,225.2,304.4z M249.2,320.6c-1.6-2.9-3.8-5-6.4-6.5
			c-2.6-1.5-5.5-2.2-8.5-2.2c-3,0-5.8,0.8-8.4,2.3c-2.6,1.5-4.8,3.7-6.4,6.6c-1.6,2.9-2.4,6.3-2.4,10.2s0.8,7.3,2.4,10.3
			c1.6,2.9,3.7,5.1,6.4,6.7c2.6,1.5,5.5,2.3,8.4,2.3c3,0,5.9-0.8,8.5-2.3c2.6-1.5,4.8-3.8,6.4-6.8c1.6-3,2.4-6.4,2.4-10.3
			C251.6,326.9,250.8,323.5,249.2,320.6z"/>
		<path class="st1" d="M287,283.1v76.4h-11.8v-76.4H287z"/>
		<path class="st1" d="M354.2,335.4h-43.4c0.3,4.5,2,8.2,5.1,10.9c3,2.8,6.7,4.1,11.1,4.1c6.3,0,10.8-2.6,13.4-7.9H353
			c-1.7,5.2-4.8,9.5-9.3,12.8c-4.5,3.3-10.1,5-16.8,5c-5.4,0-10.3-1.2-14.6-3.7c-4.3-2.4-7.7-5.9-10.1-10.3
			c-2.4-4.4-3.7-9.6-3.7-15.4c0-5.8,1.2-11,3.6-15.4c2.4-4.4,5.7-7.9,10-10.3c4.3-2.4,9.2-3.6,14.8-3.6c5.4,0,10.1,1.2,14.3,3.5
			c4.2,2.3,7.5,5.6,9.8,9.9c2.3,4.2,3.5,9.1,3.5,14.6C354.6,331.8,354.4,333.7,354.2,335.4z M342.3,325.9c-0.1-4.3-1.6-7.8-4.6-10.4
			c-3-2.6-6.8-3.9-11.3-3.9c-4.1,0-7.5,1.3-10.4,3.9c-2.9,2.6-4.6,6.1-5.2,10.5H342.3z"/>
		<path class="st1" d="M515,319.4c-1.7,3.2-4.5,5.9-8.3,7.9c-3.8,2-8.6,3-14.5,3h-13v29.1h-11.8v-71.7h24.8c5.5,0,10.2,1,14,2.8
			c3.8,1.9,6.7,4.5,8.6,7.7c1.9,3.2,2.8,6.8,2.8,10.8C517.6,312.8,516.8,316.2,515,319.4z M502.3,317.7c2.2-2,3.3-4.9,3.3-8.6
			c0-7.8-4.4-11.8-13.3-11.8h-13v23.4h13C496.7,320.8,500.1,319.8,502.3,317.7z"/>
		<path class="st1" d="M547.5,304.1c2.9-1.6,6.2-2.4,10.2-2.4v12.2h-3c-4.6,0-8.1,1.2-10.5,3.5c-2.4,2.3-3.6,6.4-3.6,12.2v29.9
			h-11.8v-56.9h11.8v8.3C542.4,308,544.6,305.7,547.5,304.1z"/>
		<path class="st1" d="M578.6,356.7c-4.3-2.4-7.7-5.9-10.2-10.3c-2.5-4.4-3.7-9.6-3.7-15.4c0-5.8,1.3-10.9,3.8-15.4
			c2.5-4.5,6-7.9,10.4-10.3c4.4-2.4,9.3-3.6,14.8-3.6s10.4,1.2,14.8,3.6c4.4,2.4,7.9,5.8,10.4,10.3c2.5,4.5,3.8,9.6,3.8,15.4
			c0,5.8-1.3,10.9-3.9,15.4c-2.6,4.5-6.2,7.9-10.7,10.4c-4.5,2.4-9.5,3.7-14.9,3.7C587.8,360.4,582.9,359.2,578.6,356.7z M601.7,348
			c2.6-1.4,4.8-3.6,6.4-6.5c1.7-2.9,2.5-6.4,2.5-10.5c0-4.1-0.8-7.6-2.4-10.5c-1.6-2.9-3.7-5-6.3-6.4c-2.6-1.4-5.4-2.2-8.5-2.2
			s-5.8,0.7-8.4,2.2c-2.6,1.4-4.6,3.6-6.1,6.4c-1.5,2.9-2.3,6.3-2.3,10.5c0,6.1,1.6,10.9,4.7,14.2c3.1,3.3,7.1,5,11.8,5
			C596.2,350.2,599,349.5,601.7,348z"/>
		<path class="st1" d="M634,315.6c2.4-4.4,5.6-7.8,9.7-10.3c4.1-2.4,8.6-3.7,13.7-3.7c3.7,0,7.4,0.8,11,2.4c3.6,1.6,6.5,3.8,8.6,6.4
			v-27.5h11.9v76.4H677v-8.6c-1.9,2.7-4.6,5-8,6.8c-3.4,1.8-7.3,2.7-11.7,2.7c-5,0-9.5-1.3-13.6-3.8c-4.1-2.5-7.3-6-9.7-10.5
			c-2.4-4.5-3.6-9.6-3.6-15.3C630.4,325.1,631.6,320,634,315.6z M674.5,320.8c-1.6-2.9-3.7-5.1-6.3-6.6c-2.6-1.5-5.4-2.3-8.5-2.3
			c-3,0-5.9,0.7-8.5,2.2c-2.6,1.5-4.7,3.6-6.3,6.5c-1.6,2.9-2.4,6.2-2.4,10.2c0,3.9,0.8,7.4,2.4,10.3c1.6,3,3.7,5.2,6.4,6.8
			c2.6,1.5,5.5,2.3,8.4,2.3c3,0,5.8-0.8,8.5-2.3c2.6-1.5,4.7-3.7,6.3-6.7s2.4-6.3,2.4-10.3S676.2,323.7,674.5,320.8z"/>
		<path class="st1" d="M755.8,302.6v56.9H744v-6.7c-1.9,2.3-4.3,4.2-7.3,5.5c-3,1.3-6.2,2-9.5,2c-4.5,0-8.5-0.9-12-2.8
			c-3.5-1.9-6.3-4.6-8.4-8.3c-2-3.6-3-8-3-13.2v-33.4h11.7v31.7c0,5.1,1.3,9,3.8,11.7c2.5,2.7,6,4.1,10.4,4.1
			c4.4,0,7.9-1.4,10.5-4.1c2.6-2.7,3.9-6.6,3.9-11.7v-31.7H755.8z"/>
		<path class="st1" d="M770.9,315.6c2.4-4.4,5.7-7.9,9.9-10.3c4.2-2.4,9-3.6,14.4-3.6c6.9,0,12.6,1.6,17.1,4.9
			c4.5,3.3,7.6,7.9,9.1,14h-12.7c-1-2.8-2.7-5-5-6.6s-5.1-2.4-8.6-2.4c-4.8,0-8.7,1.7-11.5,5.1c-2.9,3.4-4.3,8.2-4.3,14.3
			c0,6.1,1.4,10.9,4.3,14.3c2.9,3.4,6.7,5.2,11.5,5.2c6.8,0,11.3-3,13.5-9h12.7c-1.6,5.8-4.7,10.4-9.3,13.8
			c-4.5,3.4-10.2,5.1-16.9,5.1c-5.4,0-10.3-1.2-14.4-3.7c-4.2-2.4-7.5-5.9-9.9-10.3c-2.4-4.4-3.6-9.6-3.6-15.4
			C767.4,325.1,768.5,320,770.9,315.6z"/>
		<path class="st1" d="M846.9,312.2v31.5c0,2.1,0.5,3.7,1.5,4.6c1,0.9,2.7,1.4,5.1,1.4h7.2v9.8h-9.3c-5.3,0-9.4-1.2-12.2-3.7
			s-4.2-6.5-4.2-12.1v-31.5h-6.7v-9.6h6.7v-14.1h11.9v14.1h13.8v9.6H846.9z"/>
		<path class="st1" d="M872.2,292.9c-1.4-1.4-2.2-3.2-2.2-5.4c0-2.1,0.7-3.9,2.2-5.4c1.4-1.4,3.2-2.2,5.4-2.2c2.1,0,3.8,0.7,5.3,2.2
			c1.4,1.4,2.2,3.2,2.2,5.4c0,2.1-0.7,3.9-2.2,5.4c-1.4,1.4-3.2,2.2-5.3,2.2C875.4,295.1,873.7,294.4,872.2,292.9z M883.4,302.6
			v56.9h-11.8v-56.9H883.4z"/>
		<path class="st1" d="M920.8,349l16.1-46.3h12.5l-21.7,56.9h-14l-21.6-56.9h12.6L920.8,349z"/>
		<path class="st1" d="M958.9,292.9c-1.4-1.4-2.2-3.2-2.2-5.4c0-2.1,0.7-3.9,2.2-5.4c1.4-1.4,3.2-2.2,5.4-2.2c2.1,0,3.8,0.7,5.3,2.2
			c1.4,1.4,2.2,3.2,2.2,5.4c0,2.1-0.7,3.9-2.2,5.4c-1.4,1.4-3.2,2.2-5.3,2.2C962.1,295.1,960.3,294.4,958.9,292.9z M970,302.6v56.9
			h-11.8v-56.9H970z"/>
		<path class="st1" d="M999.2,312.2v31.5c0,2.1,0.5,3.7,1.5,4.6c1,0.9,2.7,1.4,5.1,1.4h7.2v9.8h-9.3c-5.3,0-9.4-1.2-12.2-3.7
			s-4.2-6.5-4.2-12.1v-31.5h-6.7v-9.6h6.7v-14.1h11.9v14.1h13.8v9.6H999.2z"/>
		<path class="st1" d="M1075.1,302.6l-34.9,83.6H1028l11.6-27.7l-22.4-55.9h13.1l16,43.3l16.6-43.3H1075.1z"/>
		<path class="st1" d="M1232.9,319.4c-1.7,3.2-4.5,5.9-8.3,7.9c-3.8,2-8.6,3-14.5,3h-13v29.1h-11.8v-71.7h24.8c5.5,0,10.2,1,14,2.8
			c3.8,1.9,6.7,4.5,8.6,7.7s2.8,6.8,2.8,10.8C1235.4,312.8,1234.6,316.2,1232.9,319.4z M1220.1,317.7c2.2-2,3.3-4.9,3.3-8.6
			c0-7.8-4.4-11.8-13.3-11.8h-13v23.4h13C1214.5,320.8,1217.9,319.8,1220.1,317.7z"/>
		<path class="st1" d="M1265.3,304.1c2.9-1.6,6.2-2.4,10.2-2.4v12.2h-3c-4.6,0-8.1,1.2-10.5,3.5c-2.4,2.3-3.6,6.4-3.6,12.2v29.9
			h-11.8v-56.9h11.8v8.3C1260.2,308,1262.5,305.7,1265.3,304.1z"/>
		<path class="st1" d="M1296.4,356.7c-4.3-2.4-7.7-5.9-10.2-10.3c-2.5-4.4-3.7-9.6-3.7-15.4c0-5.8,1.3-10.9,3.8-15.4
			c2.5-4.5,6-7.9,10.4-10.3c4.4-2.4,9.3-3.6,14.8-3.6s10.4,1.2,14.8,3.6c4.4,2.4,7.9,5.8,10.4,10.3c2.5,4.5,3.8,9.6,3.8,15.4
			c0,5.8-1.3,10.9-3.9,15.4c-2.6,4.5-6.2,7.9-10.7,10.4c-4.5,2.4-9.5,3.7-14.9,3.7C1305.6,360.4,1300.8,359.2,1296.4,356.7z
			 M1319.5,348c2.6-1.4,4.8-3.6,6.4-6.5c1.7-2.9,2.5-6.4,2.5-10.5c0-4.1-0.8-7.6-2.4-10.5c-1.6-2.9-3.7-5-6.3-6.4
			c-2.6-1.4-5.4-2.2-8.5-2.2c-3,0-5.8,0.7-8.4,2.2c-2.6,1.4-4.6,3.6-6.1,6.4c-1.5,2.9-2.3,6.3-2.3,10.5c0,6.1,1.6,10.9,4.7,14.2
			c3.1,3.3,7.1,5,11.8,5C1314,350.2,1316.9,349.5,1319.5,348z"/>
		<path class="st1" d="M1376,312.2h-10.5v47.3h-11.9v-47.3h-6.7v-9.6h6.7v-4c0-6.5,1.7-11.3,5.2-14.3c3.5-3,8.9-4.5,16.4-4.5v9.8
			c-3.6,0-6.1,0.7-7.5,2c-1.4,1.3-2.2,3.7-2.2,7v4h10.5V312.2z"/>
		<path class="st1" d="M1387,292.9c-1.4-1.4-2.2-3.2-2.2-5.4c0-2.1,0.7-3.9,2.2-5.4c1.4-1.4,3.2-2.2,5.4-2.2c2.1,0,3.8,0.7,5.3,2.2
			c1.4,1.4,2.2,3.2,2.2,5.4c0,2.1-0.7,3.9-2.2,5.4c-1.4,1.4-3.2,2.2-5.3,2.2C1390.3,295.1,1388.5,294.4,1387,292.9z M1398.2,302.6
			v56.9h-11.8v-56.9H1398.2z"/>
		<path class="st1" d="M1427.4,312.2v31.5c0,2.1,0.5,3.7,1.5,4.6c1,0.9,2.7,1.4,5.1,1.4h7.2v9.8h-9.3c-5.3,0-9.4-1.2-12.2-3.7
			s-4.2-6.5-4.2-12.1v-31.5h-6.7v-9.6h6.7v-14.1h11.9v14.1h13.8v9.6H1427.4z"/>
		<g>
			<path class="st0" d="M396.2,310.9h12.7l20.3,20.1l-20.3,20.1h-12.7l20.4-20.1L396.2,310.9z"/>
		</g>
		<g>
			<path class="st0" d="M1111.2,310.9h12.7l20.3,20.1l-20.3,20.1h-12.7l20.4-20.1L1111.2,310.9z"/>
		</g>
	</g>
</g>
</svg>
