<?xml version="1.0" encoding="utf-8"?>
<!-- Generator: Adobe Illustrator 27.0.0, SVG Export Plug-In . SVG Version: 6.00 Build 0)  -->
<svg version="1.1" id="Layer_1" xmlns="http://www.w3.org/2000/svg" xmlns:xlink="http://www.w3.org/1999/xlink" x="0px" y="0px"
	 viewBox="0 0 213.3 48.9" style="enable-background:new 0 0 213.3 48.9;" xml:space="preserve">
<style type="text/css">
	.st0{fill:#1C1F66;}
	.st1{fill:#808080;}
	.st2{fill-rule:evenodd;clip-rule:evenodd;fill:#808080;}
	.st3{fill-rule:evenodd;clip-rule:evenodd;fill:#1C1F66;}
</style>
<g>
	<path class="st0" d="M58,26h3.6v-5.2H58v-5.4h-6.3v5.4h-2.1V26h2.1v12.6H58V26L58,26z M72.9,25.6c2.6,0,4.1,1.8,4.1,4
		c0,2.3-1.5,4-4.1,4s-4.1-1.7-4.1-4C68.8,27.5,70.2,25.6,72.9,25.6L72.9,25.6z M83.1,20.7h-6.3v1.7c-1.3-1.6-3.5-2.3-5.5-2.3
		c-5.3,0-8.9,4.4-8.9,9.5s3.7,9.5,9,9.5c2.1,0,4.3-0.8,5.4-2.6h0.1v2h6.2V20.7L83.1,20.7z M101.2,21.3c-1.8-0.8-3.9-1.1-5.9-1.1
		c-3.9,0-7.9,1.9-7.9,6.3c0,3.2,2,4.2,4,4.7s4,0.6,4,2c0,1-1.2,1.4-2,1.4c-1.6,0-3.7-0.9-5-1.8L86,37.1c2.2,1.3,4.7,2.1,7.2,2.1
		c4.1,0,8.4-1.9,8.4-6.6c0-3.3-2.2-4.7-5.2-5.3c-0.9-0.2-2.9-0.3-2.9-1.6c0-0.9,1.3-1.2,2-1.2c1.1,0,2.4,0.3,3.4,0.9L101.2,21.3
		L101.2,21.3z M111.5,9.7h-6.3v28.9h6.3v-7.3l6.9,7.3h8.9l-9.5-9.6l8.9-8.2h-8.6l-6.6,6.4V9.7L111.5,9.7z"/>
	<path class="st1" d="M135.4,20.7h-6.3v17.9h6.3v-9.3c0-2.2,0.7-4.1,3.3-4.1c3.1,0,2.9,3,2.9,4.7v8.7h6.3v-11c0-4.4-1.9-7.4-6.7-7.4
		c-2.5,0-4.2,0.7-5.7,2.9h-0.1V20.7L135.4,20.7z M161.4,20.1c-5.7,0-10.8,3.4-10.8,9.5s5,9.5,10.8,9.5c5.7,0,10.8-3.4,10.8-9.5
		C172.2,23.6,167.2,20.1,161.4,20.1L161.4,20.1z M161.4,25.6c2.6,0,4.1,1.8,4.1,4c0,2.3-1.5,4-4.1,4s-4.1-1.7-4.1-4
		C157.4,27.5,158.9,25.6,161.4,25.6L161.4,25.6z M182.1,26h3.6v-5.2h-3.6v-5.4h-6.3v5.4h-2.1V26h2.1v12.6h6.3V26L182.1,26z
		 M192.8,27.1c0.4-1.8,1.9-2.8,3.8-2.8c1.7,0,3.3,1.1,3.6,2.8H192.8L192.8,27.1z M205.9,30.1c0-6.1-3.6-9.9-9.8-9.9
		c-5.8,0-9.9,3.6-9.9,9.5c0,6.2,4.4,9.5,10.3,9.5c2.1,0,4.1-0.5,5.7-1.5c1.6-1,2.9-2.5,3.4-4.6h-6.1c-0.7,1.2-1.7,1.6-3,1.6
		c-2.6,0-4-1.4-4-4h13.3v-0.6H205.9z"/>
	<path class="st2" d="M7.7,19.1l9.4-9.2l13.5,0.2v7.7l-1.9,1.9l-1-1v-5.8l-9.1-0.1v7.9l-8-0.1l-0.2,15l12.7,0.2l2.9,2.9L7.4,38.6
		L7.7,19.1L7.7,19.1z M12.2,18.7l4.3-4.2v4.3L12.2,18.7L12.2,18.7z"/>
	<polygon class="st2" points="39,11.5 28.6,21.7 26,19 24.1,20.9 28.6,25.5 40.9,13.4 	"/>
	<polygon class="st3" points="39,18.3 28.6,28.6 26,25.9 24.1,27.8 28.6,32.3 40.9,20.2 	"/>
	<polygon class="st2" points="39,25.2 28.6,35.4 26,32.7 24.1,34.6 28.6,39.2 40.9,27.1 	"/>
</g>
</svg>
