<svg xmlns="http://www.w3.org/2000/svg" width="8.652" height="13.428" viewBox="0 0 8.652 13.428">
  <path id="Path_98" data-name="Path 98" d="M6.733,6.218l.989-1.155Q9.7,2.755,11.676.445A.974.974,0,0,1,12.6.051a.951.951,0,0,1,.6,1.571c-.4.484-.812.953-1.22,1.426Q9.757,5.636,7.538,8.225a1.092,1.092,0,0,1-.556.394.973.973,0,0,1-1.036-.354C5.423,7.655,4.9,7.041,4.376,6.431q-2.047-2.4-4.105-4.8a.952.952,0,0,1-.209-1A.917.917,0,0,1,.841.011a.922.922,0,0,1,.87.35Q2.854,1.694,3.993,3.026q1.289,1.5,2.574,3c.047.058.1.112.166.188Z" transform="translate(-0.001 13.428) rotate(-90)" fill="#1c1f66"/>
</svg>
