<?xml version="1.0" encoding="utf-8"?>
<!-- Generator: Adobe Illustrator 27.0.0, SVG Export Plug-In . SVG Version: 6.00 Build 0)  -->
<svg version="1.1" id="Layer_1" xmlns="http://www.w3.org/2000/svg" xmlns:xlink="http://www.w3.org/1999/xlink" x="0px" y="0px"
	 viewBox="0 0 18.2 19.4" style="enable-background:new 0 0 18.2 19.4;" xml:space="preserve">
<style type="text/css">
	.st0{fill:#001528;}
</style>
<path id="Path_237" class="st0" d="M14.4,19.4c-0.1,0-0.3-0.1-0.4-0.1c-1.3-0.3-2.4-1.5-2.5-2.8c-0.1-0.4,0-0.9,0.1-1.3v-0.1
	c-1.8-0.9-3.6-1.8-5.3-2.7c-1.1,1.5-3.2,1.9-4.8,0.8S-0.4,10,0.7,8.4s3.2-1.9,4.8-0.8C5.6,7.6,5.8,7.8,6,8c1.9-1.1,3.7-2.3,5.6-3.4
	c-0.7-1.8,0.2-3.8,1.9-4.5S17.3,0.3,18,2c0.7,1.8-0.2,3.8-1.9,4.5c-1.4,0.5-2.9,0.2-3.9-1C10.3,6.7,8.4,7.9,6.6,9
	c0.3,0.7,0.3,1.5,0.1,2.2C8.5,12.1,10.2,13,12,14c0.1-0.1,0.1-0.1,0.1-0.2c0.7-0.9,1.8-1.3,2.9-1.2c1.9,0.2,3.3,1.8,3.1,3.7
	c-0.1,1.4-1,2.5-2.3,2.9c-0.2,0.1-0.4,0.1-0.7,0.2L14.4,19.4L14.4,19.4z"/>
</svg>
