<?xml version="1.0" encoding="utf-8"?>
<!-- Generator: Adobe Illustrator 27.0.0, SVG Export Plug-In . SVG Version: 6.00 Build 0)  -->
<svg version="1.1" id="Group_425" xmlns="http://www.w3.org/2000/svg" xmlns:xlink="http://www.w3.org/1999/xlink" x="0px" y="0px"
	 viewBox="0 0 20.5 20.5" style="enable-background:new 0 0 20.5 20.5;" xml:space="preserve">
<style type="text/css">
	.st0{fill:#001528;}
</style>
<path id="Path_223" class="st0" d="M0,3.4c0-0.2,0.1-0.3,0.1-0.5C0.4,2.1,1.2,1.5,2,1.5c0.1,0,0.2,0,0.3,0h8.4c0.1,0,0.2,0,0.3,0
	c0.4,0,0.7,0.4,0.7,0.8S11.4,2.9,11,3c-0.1,0-0.2,0-0.3,0H2.4C2.3,3,2.2,3,2,3C1.7,3,1.5,3.3,1.5,3.6c0,0.1,0,0.2,0,0.3v14.3
	c0,0.1,0,0.2,0,0.3c0,0.3,0.3,0.6,0.6,0.6c0.1,0,0.2,0,0.3,0h12.9c0.1,0,0.2,0,0.3,0c0.3,0,0.6-0.3,0.6-0.6c0-0.1,0-0.2,0-0.3v-7
	c0-0.1,0-0.2,0-0.3c0.1-0.4,0.5-0.6,0.9-0.6c0.3,0.1,0.5,0.3,0.6,0.5c0,0.1,0,0.2,0,0.3v7.1c0.1,1.1-0.7,2.1-1.9,2.3c0,0,0,0-0.1,0
	H1.9H1.8c-0.7-0.1-1.4-0.6-1.6-1.3C0.1,19,0,18.8,0,18.6V3.4z"/>
<path id="Path_224" class="st0" d="M20.5,2.9c0,0.7-0.4,1.5-0.9,2c-2.4,2.4-4.8,4.8-7.2,7.2c-0.7,0.7-1.5,1.5-2.2,2.2
	c-0.1,0.1-0.3,0.2-0.5,0.3c-1.4,0.5-2.8,0.9-4.2,1.4c-0.3,0.1-0.6,0.1-0.8-0.1c-0.3-0.2-0.4-0.6-0.2-0.9c0.3-0.9,0.6-1.8,0.9-2.8
	c0.2-0.5,0.3-0.9,0.5-1.4c0.1-0.2,0.2-0.4,0.3-0.5c3.2-3.2,6.3-6.3,9.5-9.5c1-1,2.6-1.2,3.8-0.3C20.2,1.1,20.6,2,20.5,2.9z
	 M6.3,14.2L6.3,14.2c1-0.3,1.9-0.6,2.7-0.9c0.1,0,0.2-0.1,0.2-0.2c3.1-3.1,6.2-6.2,9.3-9.3c0.1-0.1,0.2-0.2,0.2-0.3
	c0.3-0.4,0.4-0.9,0.1-1.3c-0.2-0.4-0.6-0.7-1.1-0.8c-0.4,0-0.9,0.1-1.2,0.5c-3,3-6,6-9.1,9c-0.3,0.2-0.4,0.5-0.5,0.9
	C6.8,12.7,6.6,13.4,6.3,14.2L6.3,14.2z"/>
</svg>
