<svg xmlns="http://www.w3.org/2000/svg" width="20.526" height="20.523" viewBox="0 0 20.526 20.523">
  <path id="Path_238" data-name="Path 238" d="M4.95,14.828c-.13-.1-.211-.146-.282-.211Q2.49,12.438.311,10.265c-.428-.428-.428-.677.022-1.089a7.724,7.724,0,0,1,4.4-2.07,7.551,7.551,0,0,1,3.5.363c1.1-1.106,2.19-2.19,3.29-3.3-.1-.108-.249-.255-.39-.406A2.228,2.228,0,0,1,12.186.1,2.154,2.154,0,0,1,14.11.466a2.508,2.508,0,0,1,.314.271q2.7,2.691,5.387,5.387a2.186,2.186,0,0,1,.7,1.68,2.234,2.234,0,0,1-3.686,1.648c-.173-.141-.325-.309-.461-.439l-3.279,3.279a12.968,12.968,0,0,1,.3,1.322,7.774,7.774,0,0,1-2.141,6.7c-.293.309-.6.287-.927-.033l-4.39-4.39c-.07-.076-.135-.157-.211-.255-.1.092-.168.152-.233.217-1.079,1.079-2.152,2.157-3.236,3.225a1.019,1.019,0,0,1-.439.249.478.478,0,0,1-.547-.26.539.539,0,0,1,.027-.612,1.433,1.433,0,0,1,.2-.211c1.057-1.057,2.114-2.119,3.176-3.176.065-.065.146-.125.282-.238Z" transform="translate(0.008 -0.011)" fill="#ffa1a1"/>
</svg>
