<?xml version="1.0" encoding="utf-8"?>
<!-- Generator: Adobe Illustrator 27.0.0, SVG Export Plug-In . SVG Version: 6.00 Build 0)  -->
<svg version="1.1" id="Group_426" xmlns="http://www.w3.org/2000/svg" xmlns:xlink="http://www.w3.org/1999/xlink" x="0px" y="0px"
	 viewBox="0 0 19.5 20.6" style="enable-background:new 0 0 19.5 20.6;" xml:space="preserve">
<style type="text/css">
	.st0{fill:#001528;}
</style>
<g>
	<path class="st0" d="M2.1,4.6c-0.1,0-0.2,0-0.3,0c-0.3,0-0.7,0-1,0C0.3,4.5,0,4.2,0,3.8c0-0.4,0.3-0.7,0.7-0.8c0.1,0,0.2,0,0.3,0
		c1.6,0,3.2,0,4.8,0c0.1,0,0.2,0,0.3,0c0-0.3,0-0.6,0-0.9c0-1.1,0.8-2.1,2.1-2.1c1.1,0,2.2,0,3.3,0c1.2,0,2.1,0.9,2.1,2.1
		c0,0.3,0,0.6,0,0.9c0.1,0,0.2,0,0.3,0c1.6,0,3.2,0,4.8,0c0.1,0,0.3,0,0.4,0c0.4,0.1,0.6,0.4,0.5,0.8c0,0.3-0.3,0.6-0.7,0.7
		c-0.4,0-0.7,0-1.1,0c-0.1,0-0.2,0-0.3,0c0,0.4,0,0.7-0.1,1c-0.1,1.2-0.1,2.3-0.2,3.5c-0.1,1.1-0.1,2.2-0.2,3.3
		c-0.1,1.1-0.1,2.3-0.2,3.4c0,0.6-0.1,1.2-0.1,1.7c-0.1,1.6-1.4,2.9-3,3c-2.6,0-5.2,0-7.7,0c-1.6,0-2.9-1.3-3-2.9
		c-0.1-1.3-0.2-2.6-0.3-3.9c-0.1-1.1-0.1-2.1-0.2-3.2C2.4,9.2,2.3,7.9,2.2,6.6c0-0.6-0.1-1.2-0.1-1.7C2.1,4.8,2.1,4.7,2.1,4.6z
		 M3.7,4.6c0,0.1,0,0.3,0,0.4c0,0.6,0.1,1.3,0.1,1.9C3.9,8.5,4,10.1,4,11.7c0.1,2,0.2,3.9,0.3,5.9c0,0.7,0.4,1.1,1,1.4
		C5.6,19,5.9,19,6.1,19c2.4,0,4.9,0,7.3,0c0.1,0,0.2,0,0.3,0c0.8-0.1,1.4-0.6,1.4-1.4c0.1-1,0.1-2.1,0.2-3.1
		c0.1-0.8,0.1-1.7,0.2-2.5c0.1-1.2,0.1-2.3,0.2-3.5c0.1-0.9,0.1-1.8,0.2-2.7c0-0.4,0-0.7,0.1-1.1C11.8,4.6,7.7,4.6,3.7,4.6z M12,3
		c0-0.3,0-0.5,0-0.8c0-0.5-0.1-0.6-0.6-0.6c-0.9,0-1.7,0-2.6,0c-0.3,0-0.6,0-0.8,0C7.7,1.7,7.5,1.8,7.5,2c0,0.3,0,0.7,0,1
		C9,3,10.5,3,12,3z"/>
	<path class="st0" d="M6,11.8c0-1.3,0-2.6,0-4c0-0.4,0.3-0.7,0.7-0.8c0.5,0,0.8,0.3,0.8,0.7c0,0.8,0,1.6,0,2.4c0,1.8,0,3.6,0,5.5
		c0,0.5-0.3,0.8-0.8,0.8c-0.4,0-0.7-0.3-0.7-0.8c0-0.7,0-1.4,0-2.1C6,13.1,6,12.4,6,11.8z"/>
	<path class="st0" d="M10.5,11.8c0,1.3,0,2.6,0,3.9c0,0.5-0.3,0.8-0.8,0.8c-0.4,0-0.7-0.3-0.7-0.7c0,0,0-0.1,0-0.1
		c0-2.6,0-5.2,0-7.9c0-0.5,0.3-0.8,0.7-0.8c0.4,0,0.8,0.3,0.8,0.8c0,0.8,0,1.7,0,2.5C10.5,10.8,10.5,11.3,10.5,11.8z"/>
	<path class="st0" d="M13.5,11.8c0,1.3,0,2.6,0,3.9c0,0.5-0.3,0.8-0.7,0.8c-0.4,0-0.7-0.3-0.8-0.7c0-0.2,0-0.3,0-0.5
		c0-2.4,0-4.9,0-7.3c0-0.1,0-0.2,0-0.3c0.1-0.4,0.4-0.6,0.8-0.5c0.4,0,0.6,0.4,0.6,0.7C13.5,9.1,13.5,10.5,13.5,11.8z"/>
</g>
</svg>
