<svg xmlns="http://www.w3.org/2000/svg" width="60" height="59" viewBox="0 0 60 59">
  <g id="notification" transform="translate(-1777 -44)">
    <g id="Rectangle_21" data-name="Rectangle 21" transform="translate(1777 44)" fill="none" stroke="#a7a9ac" stroke-width="2">
      <rect width="60" height="59" rx="15" stroke="none"/>
      <rect x="1" y="1" width="58" height="57" rx="14" fill="none"/>
    </g>
    <g id="Group_15" data-name="Group 15" transform="translate(1796.519 59.249)">
      <path id="Path_69" data-name="Path 69" d="M11.692,0c.148.042.3.079.441.126a2.747,2.747,0,0,1,1.918,2.8c-.007.121-.02.241-.03.374.135.059.271.111.4.172a8.208,8.208,0,0,1,4.837,6.324,8.362,8.362,0,0,1,.1,1.383c.012,1.479,0,2.959,0,4.438,0,.4.062.468.453.5a2.9,2.9,0,0,1,2.732,2.361,2.825,2.825,0,0,1-2.27,3.237,3.84,3.84,0,0,1-.606.049c-1.487,0-2.974,0-4.46,0h-.288a3.678,3.678,0,0,1-1.635,2.627,3.482,3.482,0,0,1-2.147.591A3.546,3.546,0,0,1,8.837,24a3.656,3.656,0,0,1-1.142-2.243H7.389c-1.529,0-3.055.007-4.584,0a2.806,2.806,0,0,1-.874-5.462,4.419,4.419,0,0,1,.879-.18c.369-.047.441-.106.441-.49,0-1.553,0-3.1,0-4.657a8.036,8.036,0,0,1,5.12-7.592l.19-.076c0-.217,0-.418,0-.618A2.738,2.738,0,0,1,10.811.047.678.678,0,0,0,10.922,0h.78ZM11.3,20.138h8.365a1.2,1.2,0,1,0,.123-2.4,4.913,4.913,0,0,1-.507-.054,1.924,1.924,0,0,1-1.538-1.908c-.007-1.568,0-3.139,0-4.707a6.632,6.632,0,0,0-.731-3.05A6.324,6.324,0,0,0,8.709,5,6.168,6.168,0,0,0,4.884,10.73c-.064,1.681-.01,3.365-.015,5.046A1.919,1.919,0,0,1,3.33,17.684c-.214.047-.436.039-.652.074a1.213,1.213,0,0,0-1.029,1.157,1.176,1.176,0,0,0,1,1.2,2.319,2.319,0,0,0,.414.025H11.3ZM9.364,21.77a1.978,1.978,0,0,0,2.07,1.583c.9-.064,1.8-.864,1.79-1.583Zm.817-18.917h2.24a1.074,1.074,0,0,0-.539-1.068,1.064,1.064,0,0,0-1.214.032,1.066,1.066,0,0,0-.487,1.036Z" transform="translate(0)" fill="#fff"/>
      <path id="Path_70" data-name="Path 70" d="M.963,18.85A.794.794,0,0,1,.2,17.789a16.873,16.873,0,0,1,.578-1.8A10.675,10.675,0,0,1,3.1,12.482a.85.85,0,0,1,.714-.3A.771.771,0,0,1,4.5,12.7a.826.826,0,0,1-.187.879c-.436.522-.894,1.034-1.278,1.593a8.549,8.549,0,0,0-1.248,2.939.826.826,0,0,1-.825.746Z" transform="translate(-0.099 -9.184)" fill="#fff"/>
      <path id="Path_71" data-name="Path 71" d="M78,17.958a.825.825,0,0,1-.65.842.808.808,0,0,1-.923-.544c-.089-.278-.148-.566-.234-.844A9.323,9.323,0,0,0,73.9,13.586a.853.853,0,0,1-.3-.738.812.812,0,0,1,1.386-.47,11.05,11.05,0,0,1,2.971,5.356c.02.086.03.175.037.224Z" transform="translate(-55.46 -9.143)" fill="#fff"/>
    </g>
  </g>
</svg>
