<?xml version="1.0" encoding="utf-8"?>
<!-- Generator: Adobe Illustrator 27.0.0, SVG Export Plug-In . SVG Version: 6.00 Build 0)  -->
<svg version="1.1" id="Layer_1" xmlns="http://www.w3.org/2000/svg" xmlns:xlink="http://www.w3.org/1999/xlink" x="0px" y="0px"
	 viewBox="0 0 21.6 21.7" style="enable-background:new 0 0 21.6 21.7;" xml:space="preserve">
<style type="text/css">
	.st0{fill:#001528;}
</style>
<g id="Group_452" transform="translate(-0.005)">
	<path id="Path_239" class="st0" d="M21.6,9.1v1.1c0,0,0,0.1,0,0.1c-0.1,0.4-0.1,0.9-0.3,1.3c-0.3,0.9-0.8,1.8-1.5,2.4
		c-1,0.9-2.3,1.4-3.7,1.4c-0.7,0-1.5,0-2.2,0c-0.2,0-0.4,0-0.6,0c-1,0.2-1.7,1.1-1.5,2.1c0,0.2,0.1,0.4,0.2,0.6
		c0.1,0.2,0.2,0.3,0.3,0.5c0.6,0.8,0.4,1.9-0.4,2.4c0,0-0.1,0.1-0.1,0.1c-0.3,0.1-0.5,0.2-0.8,0.3h-1c-0.2,0-0.4-0.1-0.6-0.1
		c-1.6-0.2-3.1-0.7-4.5-1.7C2,18.1,0.2,15,0,11.6c-0.1-1.3,0-2.5,0.4-3.8c0.6-2.1,1.8-4,3.5-5.4c1.5-1.3,3.4-2.1,5.4-2.4
		C9.6,0.1,9.9,0,10.2,0h1.5c0.1,0,0.1,0,0.2,0c1.2,0.1,2.4,0.4,3.5,0.8c1.8,0.7,3.3,1.9,4.4,3.4c0.8,1.1,1.4,2.3,1.6,3.6
		C21.5,8.3,21.6,8.7,21.6,9.1L21.6,9.1z M11,1.3c-0.4,0-0.8,0.1-1.3,0.1c-2,0.2-3.8,1-5.3,2.4C2,5.9,0.9,9.1,1.4,12.2
		c0.3,2,1.2,3.9,2.6,5.4c1.6,1.7,3.8,2.7,6.1,2.8c0.2,0,0.5,0,0.7,0c0.3,0,0.4-0.3,0.4-0.5c0-0.1,0-0.2-0.1-0.2
		c-0.1-0.1-0.2-0.3-0.3-0.4c-0.9-1.4-0.6-3.3,0.8-4.2c0.6-0.4,1.3-0.6,2-0.6c0.4,0,0.7,0,1.1,0c0.7,0,1.4,0,2.1-0.2
		c1.6-0.3,2.9-1.5,3.2-3.1c0.3-1.3,0.2-2.6-0.3-3.8c-0.7-2-2.2-3.7-4.1-4.8C14.4,1.7,12.7,1.2,11,1.3L11,1.3z"/>
	<path id="Path_240" class="st0" d="M6.3,4.5c0-1,0.9-1.9,1.9-1.9s1.9,0.9,1.9,1.9c0,1-0.9,1.9-1.9,1.9c0,0,0,0,0,0
		C7.2,6.4,6.3,5.6,6.3,4.5z M8.2,3.9c-0.3,0-0.6,0.3-0.6,0.6c0,0.3,0.3,0.6,0.6,0.6c0.3,0,0.6-0.3,0.6-0.6C8.9,4.2,8.6,3.9,8.2,3.9z
		"/>
	<path id="Path_241" class="st0" d="M11.6,4.5c0-1,0.9-1.9,1.9-1.9c1,0,1.9,0.9,1.9,1.9s-0.9,1.9-1.9,1.9c0,0,0,0,0,0
		C12.4,6.4,11.6,5.6,11.6,4.5z M13.5,5.2c0.3,0,0.6-0.3,0.6-0.6c0-0.3-0.3-0.6-0.6-0.6c-0.3,0-0.6,0.3-0.6,0.6
		C12.8,4.9,13.1,5.2,13.5,5.2z"/>
	<path id="Path_242" class="st0" d="M7,13.4c0,1-0.9,1.9-1.9,1.9s-1.9-0.9-1.9-1.9c0-1,0.9-1.9,1.9-1.9c0,0,0,0,0,0
		C6.1,11.5,7,12.4,7,13.4z M5.7,13.4c0-0.3-0.3-0.6-0.6-0.6c-0.3,0-0.6,0.3-0.6,0.6c0,0.3,0.3,0.6,0.6,0.6C5.4,14,5.7,13.7,5.7,13.4
		z"/>
	<path id="Path_243" class="st0" d="M6.3,8.3c0,1-0.9,1.9-1.9,1.9S2.5,9.4,2.5,8.3c0-1,0.8-1.9,1.9-1.9C5.5,6.4,6.3,7.3,6.3,8.3z
		 M4.5,7.7C4.1,7.7,3.8,8,3.8,8.3c0,0.3,0.3,0.6,0.6,0.6c0.3,0,0.6-0.3,0.6-0.6C5.1,8,4.8,7.7,4.5,7.7L4.5,7.7z"/>
	<path id="Path_244" class="st0" d="M15.4,8.3c0-1,0.9-1.9,1.9-1.9c1,0,1.9,0.9,1.9,1.9c0,1-0.9,1.9-1.9,1.9
		C16.2,10.2,15.4,9.4,15.4,8.3z M17.9,8.3c0-0.3-0.3-0.6-0.6-0.6c-0.3,0-0.6,0.3-0.6,0.6S16.9,9,17.3,9l0,0
		C17.6,9,17.9,8.7,17.9,8.3z"/>
</g>
</svg>
