<svg xmlns="http://www.w3.org/2000/svg" width="10.337" height="10.914" viewBox="0 0 10.337 10.914">
  <path id="Path_1337" data-name="Path 1337" d="M1.377,16.336A1.88,1.88,0,0,1,.609,16,1.543,1.543,0,0,1,0,14.79V6.973A1.574,1.574,0,0,1,1.493,5.426c.132-.005.26-.005.392,0a.427.427,0,0,1,.053.847,2.342,2.342,0,0,1-.334.011.715.715,0,0,0-.741.752v7.684a.713.713,0,0,0,.741.747H8.722a.713.713,0,0,0,.747-.741v-.281a.431.431,0,0,1,.853-.058,1.728,1.728,0,0,1-.466,1.5,1.582,1.582,0,0,1-.81.424.578.578,0,0,0-.09.026Z" transform="translate(0 -5.422)" fill="#fff"/>
</svg>
