<svg xmlns="http://www.w3.org/2000/svg" width="24" height="23.909" viewBox="0 0 24 23.909">
  <g id="Group_152" data-name="Group 152" transform="translate(0.001 0.004)">
    <path id="Path_312" data-name="Path 312" d="M11.725,0h.215a.862.862,0,0,1,.886.842.852.852,0,0,1-.859.868A9.729,9.729,0,0,0,9.562,2,10,10,0,0,0,2.121,9.153,10.207,10.207,0,0,0,8.945,21.737a10.466,10.466,0,0,0,2.889.455,1.691,1.691,0,0,1,.318.022.855.855,0,0,1-.187,1.69,10.9,10.9,0,0,1-3.494-.525A11.638,11.638,0,0,1,.381,14.862,11.949,11.949,0,0,1,11.725,0Z" fill="#777"/>
    <path id="Path_313" data-name="Path 313" d="M94.3,102.875V98.029c0-.365,0-.73,0-1.095a.858.858,0,1,1,1.713-.006q0,2.817,0,5.634v.309c.108-.1.179-.161.245-.227.982-.981,1.959-1.969,2.951-2.939a1.219,1.219,0,0,1,.565-.313.793.793,0,0,1,.883.449.849.849,0,0,1-.177,1.006c-.548.56-1.106,1.109-1.659,1.663q-1.482,1.482-2.964,2.963a.872.872,0,0,1-1.4,0q-2.286-2.283-4.57-4.567a.917.917,0,0,1-.323-.756.805.805,0,0,1,.52-.716.832.832,0,0,1,.878.127,2.472,2.472,0,0,1,.193.184l2.889,2.888C94.117,102.705,94.187,102.769,94.3,102.875Z" transform="translate(-83.201 -89.197)" fill="#777"/>
    <path id="Path_314" data-name="Path 314" d="M237.6,263.573a.909.909,0,0,1-.907-.606.9.9,0,0,1,.385-1c.617-.449,1.229-.907,1.828-1.378a7.208,7.208,0,0,0,.6-.6.857.857,0,1,1,1.245,1.178,11.855,11.855,0,0,1-2.783,2.264,1.84,1.84,0,0,1-.372.14Z" transform="translate(-219.833 -241.236)" fill="#777"/>
    <path id="Path_315" data-name="Path 315" d="M301.879,173.92a.849.849,0,0,1,.848.951,11.966,11.966,0,0,1-1,3.5.859.859,0,0,1-1.133.463.851.851,0,0,1-.439-1.14,11.682,11.682,0,0,0,.876-3.039A.83.83,0,0,1,301.879,173.92Z" transform="translate(-278.735 -161.554)" fill="#777"/>
    <path id="Path_316" data-name="Path 316" d="M235.012,16.225a.937.937,0,0,1-.556.8.831.831,0,0,1-.94-.167c-.311-.278-.6-.586-.937-.832-.508-.372-1.042-.709-1.574-1.047a.872.872,0,0,1-.454-.962.837.837,0,0,1,1.185-.588,11.071,11.071,0,0,1,3.018,2.258,1.944,1.944,0,0,1,.257.536Z" transform="translate(-214.136 -12.397)" fill="#777"/>
    <path id="Path_317" data-name="Path 317" d="M299.929,84.768a.871.871,0,0,1-.74.887.847.847,0,0,1-.934-.625c-.105-.395-.158-.805-.291-1.19-.212-.611-.459-1.211-.716-1.805a.89.89,0,0,1,.37-1.231.871.871,0,0,1,1.174.469,12.3,12.3,0,0,1,1.115,3.3c.015.078.017.159.021.2Z" transform="translate(-276.01 -74.982)" fill="#777"/>
  </g>
</svg>
