<svg id="Group_125" data-name="Group 125" xmlns="http://www.w3.org/2000/svg" width="22.052" height="22.052" viewBox="0 0 22.052 22.052">
  <path id="Path_212" data-name="Path 212" d="M0,11.758V10.294c.031-.262.056-.525.094-.785A11.038,11.038,0,0,1,9.1.165C9.5.094,9.9.054,10.294,0h1.464c.262.031.526.057.787.094a10.84,10.84,0,0,1,5.02,2.045,10.809,10.809,0,0,1,4.188,6.337c.141.6.2,1.211.3,1.817v1.464c-.031.262-.056.525-.094.785a11.038,11.038,0,0,1-9.01,9.344c-.394.071-.793.111-1.189.165H10.295c-.262-.031-.526-.057-.787-.094a10.84,10.84,0,0,1-5.02-2.045A10.807,10.807,0,0,1,.3,13.575C.157,12.979.1,12.364,0,11.758Zm20.322-.734a9.3,9.3,0,1,0-9.3,9.3,9.31,9.31,0,0,0,9.3-9.3Z" fill="#fff"/>
  <path id="Path_213" data-name="Path 213" d="M140.492,174.2a2.11,2.11,0,0,1,.16-.2q2.434-2.438,4.87-4.873a.9.9,0,0,1,.949-.3.859.859,0,0,1,.443,1.352,1.862,1.862,0,0,1-.173.191q-2.785,2.786-5.572,5.572a.894.894,0,0,1-1.438,0q-1.295-1.293-2.589-2.587a.875.875,0,0,1-.277-.915.859.859,0,0,1,1.349-.455,2.1,2.1,0,0,1,.223.2q.914.913,1.825,1.828a1.33,1.33,0,0,1,.136.195l.094-.013Z" transform="translate(-130.935 -161.515)" fill="#fff"/>
</svg>
