<svg xmlns="http://www.w3.org/2000/svg" width="13.188" height="15.819" viewBox="0 0 13.188 15.819">
  <g id="Group_79" data-name="Group 79" transform="translate(-0.003 0)">
    <path id="Path_225" data-name="Path 225" d="M2.442,205.786l-.3-.059A2.5,2.5,0,0,1,.013,203.3a8.44,8.44,0,0,1,.548-3.573,3.282,3.282,0,0,1,1.466-1.769,2.892,2.892,0,0,1,1.439-.346,1.1,1.1,0,0,1,.473.163c.243.133.469.3.706.442a3.609,3.609,0,0,0,2.182.587,3.721,3.721,0,0,0,1.669-.548,7.31,7.31,0,0,0,.621-.4,1.344,1.344,0,0,1,1.069-.217,2.936,2.936,0,0,1,2.231,1.621,6.618,6.618,0,0,1,.712,2.552,12.867,12.867,0,0,1,.06,1.387,2.53,2.53,0,0,1-2.336,2.559.638.638,0,0,0-.1.028Z" transform="translate(0 -189.968)" fill="#1c1f66"/>
    <path id="Path_226" data-name="Path 226" d="M77.063,3.812A3.812,3.812,0,1,1,73.256,0a3.809,3.809,0,0,1,3.807,3.812Z" transform="translate(-66.75 0)" fill="#1c1f66"/>
  </g>
</svg>
