<svg id="Group_435" data-name="Group 435" xmlns="http://www.w3.org/2000/svg" width="16.871" height="17.745" viewBox="0 0 16.871 17.745">
  <path id="Path_225" data-name="Path 225" d="M1.758,3.911H1.139c-.183,0-.364.006-.547-.006a.653.653,0,0,1-.6-.589A.641.641,0,0,1,.472,2.63,1.369,1.369,0,0,1,.792,2.6q2.075,0,4.153-.006h.233V2.272a5.861,5.861,0,0,1,.033-.828A1.712,1.712,0,0,1,6.9.008C7.916,0,8.927,0,9.941.008a1.73,1.73,0,0,1,1.733,1.764v.819h.244c1.383,0,2.767,0,4.153.008a1.2,1.2,0,0,1,.358.044.652.652,0,0,1,.428.7.639.639,0,0,1-.583.553c-.311.017-.622.006-.931.008H15.1c-.022.286-.042.553-.058.819q-.162,2.537-.319,5.072c-.072,1.178-.142,2.358-.217,3.536-.047.728-.072,1.458-.161,2.18a2.6,2.6,0,0,1-2.253,2.2,4.752,4.752,0,0,1-.525.031q-3.179,0-6.358,0a2.641,2.641,0,0,1-2.68-2.322c-.061-.433-.067-.875-.094-1.311q-.117-1.767-.233-3.536c-.061-.917-.117-1.83-.175-2.747q-.112-1.7-.228-3.394c-.011-.167-.022-.333-.033-.525Zm1.375.039c0,.147-.006.286,0,.425.017.322.044.647.064.969.086,1.494.169,2.992.258,4.489q.154,2.658.317,5.316a1.271,1.271,0,0,0,.881,1.194,1.72,1.72,0,0,0,.6.086c2.114.006,4.228,0,6.339,0a2.764,2.764,0,0,0,.3-.017,1.336,1.336,0,0,0,1.189-1.256q.158-2.537.319-5.072.183-2.929.364-5.861c.006-.083,0-.169,0-.278H3.133ZM6.486,2.572h3.878V1.928c0-.464-.1-.564-.575-.567H7.483c-.2,0-.406-.006-.608,0a.374.374,0,0,0-.389.4c-.006.264,0,.525,0,.8Z" transform="translate(0.008)" fill="#a7a9ac"/>
  <path id="Path_226" data-name="Path 226" d="M18.667,25.945V22.506a.643.643,0,0,1,.7-.669.65.65,0,0,1,.606.578c0,.039,0,.081,0,.122v6.8a.728.728,0,0,1-.022.219.651.651,0,0,1-1.283-.169c0-1.033,0-2.064,0-3.1Z" transform="translate(-13.479 -15.77)" fill="#a7a9ac"/>
  <path id="Path_227" data-name="Path 227" d="M27.994,25.918v-3.4a.644.644,0,0,1,.7-.683.65.65,0,0,1,.6.583c0,.039,0,.081,0,.122v6.8a.662.662,0,0,1-.6.708.651.651,0,0,1-.7-.647c-.006-.533,0-1.067,0-1.6v-1.88Z" transform="translate(-20.214 -15.769)" fill="#a7a9ac"/>
  <path id="Path_228" data-name="Path 228" d="M38.646,25.966v3.4a.654.654,0,0,1-1.306.075v-6.9a.654.654,0,1,1,1.306-.033c0,.661,0,1.322,0,1.983v1.478Z" transform="translate(-26.966 -15.772)" fill="#a7a9ac"/>
</svg>
