<svg xmlns="http://www.w3.org/2000/svg" width="22.574" height="16.226" viewBox="0 0 22.574 16.226">
  <g id="Group_508" data-name="Group 508" transform="translate(-628.25 -316)">
    <path id="Path_265" data-name="Path 265" d="M8.136,7.513l1.2-1.4Q11.72,3.329,14.109.537A1.177,1.177,0,0,1,15.221.062a1.149,1.149,0,0,1,.72,1.9c-.48.585-.982,1.152-1.475,1.723Q11.79,6.811,9.109,9.939a1.32,1.32,0,0,1-.672.476,1.175,1.175,0,0,1-1.252-.428c-.633-.737-1.265-1.479-1.9-2.216q-2.474-2.9-4.96-5.8A1.15,1.15,0,0,1,.074.764a1.108,1.108,0,0,1,.942-.75A1.114,1.114,0,0,1,2.068.437q1.381,1.61,2.757,3.22,1.557,1.813,3.111,3.63c.057.07.118.135.2.227Z" transform="translate(640.368 332.226) rotate(-90)" fill="#ddd"/>
    <line id="Line_8" data-name="Line 8" x1="18" transform="translate(629.5 323.5)" fill="none" stroke="#ddd" stroke-linecap="round" stroke-width="2.5"/>
  </g>
</svg>
