<svg id="Group_425" data-name="Group 425" xmlns="http://www.w3.org/2000/svg" width="20.541" height="20.523" viewBox="0 0 20.541 20.523">
  <path id="Path_223" data-name="Path 223" d="M0,5.912a4.692,4.692,0,0,1,.135-.456,2.154,2.154,0,0,1,1.943-1.44c.1-.007.2-.007.3-.007H10.8a2.408,2.408,0,0,1,.281.011.728.728,0,0,1-.026,1.451c-.087.007-.175,0-.262,0H2.369a1.671,1.671,0,0,0-.357.033.69.69,0,0,0-.536.623c-.007.087-.007.175-.007.259v14.3a2.73,2.73,0,0,0,.011.3.707.707,0,0,0,.609.6,2.377,2.377,0,0,0,.281.011H15.227a2.408,2.408,0,0,0,.281-.011.708.708,0,0,0,.612-.623,2.385,2.385,0,0,0,.007-.281V13.708a1.531,1.531,0,0,1,.026-.317.725.725,0,0,1,1.414-.04,1.506,1.506,0,0,1,.033.339v7.06a2.2,2.2,0,0,1-1.87,2.3.223.223,0,0,0-.051.026H1.924a1.024,1.024,0,0,0-.113-.036A2.177,2.177,0,0,1,.168,21.715,4.153,4.153,0,0,1,0,21.158Z" transform="translate(0 -2.549)" fill="#fff"/>
  <path id="Path_224" data-name="Path 224" d="M28.223,2.919a2.849,2.849,0,0,1-.911,1.961q-3.625,3.614-7.235,7.231c-.747.747-1.491,1.5-2.245,2.238a1.379,1.379,0,0,1-.5.313c-1.389.474-2.784.933-4.177,1.4a.8.8,0,0,1-.784-.08.75.75,0,0,1-.226-.9c.306-.926.616-1.848.926-2.774.157-.47.3-.94.474-1.4a1.438,1.438,0,0,1,.321-.518C17.027,7.213,20.2,4.06,23.35.886A2.846,2.846,0,0,1,27.122.572,2.882,2.882,0,0,1,28.223,2.919ZM13.987,14.225A.826.826,0,0,0,14.1,14.2c.878-.3,1.76-.587,2.639-.886a.633.633,0,0,0,.222-.157q4.652-4.647,9.3-9.3a2.135,2.135,0,0,0,.226-.255,1.278,1.278,0,0,0,.146-1.345,1.266,1.266,0,0,0-1.1-.776,1.4,1.4,0,0,0-1.159.481Q19.841,6.489,15.3,11.01a2.106,2.106,0,0,0-.547.882c-.237.769-.5,1.531-.769,2.325Z" transform="translate(-7.682 0)" fill="#fff"/>
</svg>
