<svg xmlns="http://www.w3.org/2000/svg" width="35.025" height="35.02" viewBox="0 0 35.025 35.02">
  <g id="Group_429" data-name="Group 429" transform="translate(0.01)">
    <path id="Path_216" data-name="Path 216" d="M19.065,0a6.973,6.973,0,0,1,1.169.457,3.09,3.09,0,0,1,1.581,2.7c.011.26-.073.587.056.762s.463.2.7.3l1.53.649a6.284,6.284,0,0,1,.587-.666A3.178,3.178,0,0,1,28.9,4.177a23.405,23.405,0,0,1,1.908,1.908,3.2,3.2,0,0,1-.124,4.347c-.175.192-.452.361-.5.581-.04.2.181.446.277.677.164.4.339.8.469,1.208a.349.349,0,0,0,.412.288,3.4,3.4,0,0,1,2.128.48A3.126,3.126,0,0,1,35,16.343a18.9,18.9,0,0,1-.068,2.828,3.116,3.116,0,0,1-3.06,2.653c-.271.011-.61-.073-.8.062s-.215.485-.316.734c-.158.378-.3.762-.5,1.123a.341.341,0,0,0,.079.491,3.455,3.455,0,0,1,1.191,1.942,3.059,3.059,0,0,1-.694,2.71A23.142,23.142,0,0,1,28.9,30.822a3.192,3.192,0,0,1-4.347-.135c-.186-.175-.367-.452-.581-.491-.2-.04-.446.186-.677.282-.39.158-.773.333-1.174.457a.385.385,0,0,0-.316.463,3.309,3.309,0,0,1-.621,2.286A3.11,3.11,0,0,1,18.647,35a19.2,19.2,0,0,1-2.794-.062A3.128,3.128,0,0,1,13.166,31.8c-.017-.734-.017-.728-.7-1-.423-.169-.841-.344-1.248-.548a.308.308,0,0,0-.435.079,3.508,3.508,0,0,1-1.936,1.2,3.09,3.09,0,0,1-2.794-.734,25.569,25.569,0,0,1-1.835-1.835,3.118,3.118,0,0,1,.068-4.33.962.962,0,0,0,.22-1.394,6.237,6.237,0,0,1-.469-1.169.307.307,0,0,0-.339-.248,4.753,4.753,0,0,1-1.022-.045A3.182,3.182,0,0,1,.058,19.3c-.023-.073-.045-.152-.068-.226V15.93c.023-.073.045-.152.068-.226a3.169,3.169,0,0,1,2.614-2.473,9.306,9.306,0,0,1,1.056-.056.342.342,0,0,0,.26-.141c.288-.677.553-1.366.852-2.128-.158-.141-.373-.3-.548-.485A3.192,3.192,0,0,1,4.246,6q.83-.906,1.739-1.739a3.192,3.192,0,0,1,4.42.045,7.093,7.093,0,0,1,.5.559c.638-.265,1.2-.514,1.767-.734.485-.192.5-.181.491-.7A3.247,3.247,0,0,1,14.3.768,3.773,3.773,0,0,1,15.921,0ZM2.05,17.494c0,.367-.006.728,0,1.1a1.15,1.15,0,0,0,1.174,1.163c.469.006.931,0,1.4,0a1.045,1.045,0,0,1,1.118.852,13.043,13.043,0,0,0,1.242,2.986A1.029,1.029,0,0,1,6.8,24.985c-.316.327-.649.644-.965.971a1.148,1.148,0,0,0-.017,1.7c.491.508.994,1,1.5,1.5a1.153,1.153,0,0,0,1.7,0c.327-.316.644-.644.971-.965A1.025,1.025,0,0,1,11.382,28a13.208,13.208,0,0,0,3.02,1.248,1.036,1.036,0,0,1,.83,1.1v1.4a1.146,1.146,0,0,0,1.157,1.18q1.092.017,2.185,0a1.146,1.146,0,0,0,1.163-1.174c.006-.469,0-.931,0-1.4a1.044,1.044,0,0,1,.858-1.118,13.043,13.043,0,0,0,2.986-1.242,1.03,1.03,0,0,1,1.394.181c.316.31.627.632.943.943a1.16,1.16,0,0,0,1.778-.011c.469-.463.937-.931,1.4-1.4a1.16,1.16,0,0,0,.017-1.778c-.316-.327-.649-.644-.965-.971a1.013,1.013,0,0,1-.186-1.338,12.975,12.975,0,0,0,1.265-3.048,1.038,1.038,0,0,1,1.106-.83h1.4a1.146,1.146,0,0,0,1.18-1.157q.017-1.092,0-2.185a1.146,1.146,0,0,0-1.174-1.163c-.469-.006-.931,0-1.4,0a1.048,1.048,0,0,1-1.118-.858,13.3,13.3,0,0,0-1.242-2.986A1.031,1.031,0,0,1,28.165,10c.327-.333.666-.655.988-.994a1.143,1.143,0,0,0-.011-1.677c-.491-.508-.994-1-1.5-1.5a1.153,1.153,0,0,0-1.7.006c-.327.316-.644.649-.971.965a1.03,1.03,0,0,1-1.394.186,13.191,13.191,0,0,0-2.986-1.242A1.049,1.049,0,0,1,19.725,4.6V3.235a1.146,1.146,0,0,0-1.157-1.18q-1.092-.017-2.185,0a1.143,1.143,0,0,0-1.163,1.174c-.006.469,0,.931,0,1.4a1.048,1.048,0,0,1-.858,1.118,13.043,13.043,0,0,0-2.986,1.242A1.03,1.03,0,0,1,9.982,6.8c-.333-.327-.655-.666-.994-.988a1.138,1.138,0,0,0-1.677.011c-.508.491-1,.994-1.5,1.5a1.148,1.148,0,0,0,0,1.7c.316.327.649.644.965.971a1.032,1.032,0,0,1,.192,1.394,12.96,12.96,0,0,0-1.248,3.02,1.036,1.036,0,0,1-1.1.83H3.259a1.157,1.157,0,0,0-1.219,1.225v1.027Z" fill="#fff"/>
    <path id="Path_217" data-name="Path 217" d="M32.736,25.132A7.618,7.618,0,1,1,25.121,17.5,7.618,7.618,0,0,1,32.736,25.132Zm-7.621-5.56a5.546,5.546,0,1,1-.006,0Z" transform="translate(-7.625 -7.621)" fill="#fff"/>
  </g>
</svg>
