<svg id="Group_523" data-name="Group 523" xmlns="http://www.w3.org/2000/svg" width="17.973" height="17.957" viewBox="0 0 17.973 17.957">
  <path id="Path_223" data-name="Path 223" d="M0,5.675a4.105,4.105,0,0,1,.118-.4,1.885,1.885,0,0,1,1.7-1.26c.086-.006.175-.006.261-.006h7.37a2.107,2.107,0,0,1,.246.01.637.637,0,0,1-.022,1.269c-.077.006-.153,0-.23,0H2.073a1.462,1.462,0,0,0-.313.029.6.6,0,0,0-.469.545c-.006.077-.006.153-.006.226V18.606a2.389,2.389,0,0,0,.01.261.619.619,0,0,0,.533.526,2.08,2.08,0,0,0,.246.01H13.324a2.107,2.107,0,0,0,.246-.01.62.62,0,0,0,.536-.545,2.087,2.087,0,0,0,.006-.246V12.5a1.34,1.34,0,0,1,.022-.277.634.634,0,0,1,1.237-.035,1.318,1.318,0,0,1,.029.3v6.177a1.921,1.921,0,0,1-1.636,2.009.2.2,0,0,0-.045.022H1.684a.9.9,0,0,0-.1-.032A1.9,1.9,0,0,1,.147,19.5,3.634,3.634,0,0,1,0,19.014Z" transform="translate(0 -2.731)" fill="#707070"/>
  <path id="Path_224" data-name="Path 224" d="M26.206,2.554a2.493,2.493,0,0,1-.8,1.716q-3.171,3.162-6.33,6.327c-.654.654-1.3,1.311-1.964,1.958a1.207,1.207,0,0,1-.437.274c-1.215.415-2.436.816-3.655,1.221a.7.7,0,0,1-.686-.07.656.656,0,0,1-.2-.791c.268-.81.539-1.617.81-2.427.137-.411.262-.823.415-1.228a1.258,1.258,0,0,1,.281-.453c2.765-2.771,5.539-5.53,8.3-8.307A2.49,2.49,0,0,1,25.243.5,2.522,2.522,0,0,1,26.206,2.554ZM13.75,12.447a.723.723,0,0,0,.1-.026c.769-.258,1.54-.513,2.309-.775a.554.554,0,0,0,.195-.137q4.071-4.066,8.138-8.138a1.868,1.868,0,0,0,.2-.223,1.118,1.118,0,0,0,.128-1.177,1.108,1.108,0,0,0-.966-.679,1.225,1.225,0,0,0-1.014.421Q18.871,5.678,14.9,9.634a1.843,1.843,0,0,0-.478.772c-.207.673-.44,1.339-.673,2.035Z" transform="translate(-8.233 0)" fill="#707070"/>
</svg>
