<svg xmlns="http://www.w3.org/2000/svg" width="68.398" height="68.033" viewBox="0 0 68.398 68.033">
  <g id="Group_5" data-name="Group 5" transform="translate(-155.602 -54.981)">
    <path id="Path_22" data-name="Path 22" d="M404.971,20.88a34.46,34.46,0,0,1,8.806,1.142L408.35,32.888a22.98,22.98,0,0,0-3.39-.259,22.231,22.231,0,0,0-15.575,38.237v.024h0a22.346,22.346,0,0,0,37.284-21.426l10.5-6.028a33.632,33.632,0,0,1,1.99,11.466,34.2,34.2,0,1,1-34.2-34.011h0Z" transform="translate(-215.158 34.101)" fill="#a7a9ac" fill-rule="evenodd"/>
    <path id="Path_23" data-name="Path 23" d="M402.356,35.53a17.117,17.117,0,0,1,4.568.624l-2.566,5.38a11.2,11.2,0,0,0-2-.177,10.937,10.937,0,1,0,11,10.937,11.173,11.173,0,0,0-.388-2.9l5.192-2.931a16.507,16.507,0,0,1,1.048,5.827A16.847,16.847,0,1,1,402.356,35.53h0Z" transform="translate(-212.544 36.698)" fill="#1c1f66" fill-rule="evenodd"/>
    <path id="Path_24" data-name="Path 24" d="M414.439,23.54a33.722,33.722,0,0,1,15.74,14.669L397.84,56.8l16.6-33.246h0Z" transform="translate(-210.359 34.573)" fill="#1c1f66" fill-rule="evenodd"/>
  </g>
</svg>
