<?xml version="1.0" encoding="utf-8"?>
<!-- Generator: Adobe Illustrator 27.0.0, SVG Export Plug-In . SVG Version: 6.00 Build 0)  -->
<svg version="1.1" id="Layer_1" xmlns="http://www.w3.org/2000/svg" xmlns:xlink="http://www.w3.org/1999/xlink" x="0px" y="0px"
	 viewBox="0 0 35 35" style="enable-background:new 0 0 35 35;" xml:space="preserve">
<style type="text/css">
	.st0{fill:#AAAAAA;}
</style>
<g>
	<path class="st0" d="M24.6,12.8c0,1.8,0,3.6,0,5.4c0,3.5-2.7,6.5-6.1,7c-3.8,0.5-7.3-2-8-5.8c-0.1-0.4-0.1-0.8-0.1-1.2
		c0-3.6,0-7.1,0-10.7c0-3.1,2.2-6.2,5.6-7c3.9-0.9,7.9,1.7,8.6,5.7c0.1,0.4,0.1,0.7,0.1,1.1C24.6,9.1,24.6,11,24.6,12.8z M22.2,12.8
		c0-1.7,0-3.3,0-5c0-0.3,0-0.6-0.1-1c-0.4-3.5-4.5-5.3-7.4-3.3c-1.4,1-2,2.3-2,3.9c0,3.4,0,6.8,0,10.3c0,0.3,0,0.6,0.1,0.9
		c0.4,3.2,3.8,5.1,6.7,3.7c1.8-0.9,2.7-2.3,2.7-4.3C22.3,16.3,22.2,14.6,22.2,12.8z"/>
	<path class="st0" d="M16.3,30c-1.8-0.2-3.4-0.7-4.9-1.7c-3.1-2-5-4.8-5.6-8.4c-0.1-0.5-0.1-1.1-0.1-1.6c0-0.7,0.5-1.2,1.2-1.2
		c0.7,0,1.2,0.4,1.2,1.1c0,1.9,0.5,3.7,1.6,5.2c1.6,2.4,3.8,3.8,6.6,4.2c5,0.7,9.7-2.7,10.6-7.7c0.1-0.6,0.1-1.2,0.2-1.7
		c0-0.7,0.5-1.2,1.2-1.2c0.7,0,1.2,0.5,1.2,1.2c-0.1,4.6-2.2,8-6.2,10.3c-1.3,0.8-2.7,1.2-4.1,1.4c-0.1,0-0.1,0-0.2,0
		c0,0-0.1,0-0.2,0.1c0,0.8,0,1.6,0,2.3c0,0.6-0.4,1.1-1,1.2c-0.5,0.1-1.1-0.3-1.3-0.8c0-0.1-0.1-0.3-0.1-0.4
		C16.3,31.6,16.3,30.8,16.3,30z"/>
</g>
</svg>
