<?xml version="1.0" encoding="utf-8"?>
<!-- Generator: Adobe Illustrator 24.0.0, SVG Export Plug-In . SVG Version: 6.00 Build 0)  -->
<svg version="1.1" id="Layer_1" xmlns="http://www.w3.org/2000/svg" xmlns:xlink="http://www.w3.org/1999/xlink" x="0px" y="0px"
	 viewBox="0 0 30 30" style="enable-background:new 0 0 30 30;" xml:space="preserve">
<style type="text/css">
	.st0{fill:#AAAAAA;}
</style>
<title>Sub_task</title>
<path class="st0" d="M23.8,29.7c-2.9,0-5.3-2.1-5.7-5H15c-0.6,0-0.9-0.3-0.9-0.9v-7.1c0-0.1,0-0.2-0.1-0.2c-0.3-0.2-0.5-0.5-0.7-0.7
	c0,0,0,0-0.1,0l-1.6,0c-0.3,1.8-1.4,3.4-3.1,4.3c-0.8,0.5-1.8,0.7-2.8,0.7c-0.4,0-0.8,0-1.2-0.1C3.2,20.3,2,19.3,1.2,18
	s-1-2.9-0.6-4.4c0.6-2.2,2.5-3.9,4.8-4.2c0.2,0,0.4,0,0.6,0c2.8,0,5.3,2.1,5.7,4.8h1.6l0.2-0.2c0.2-0.2,0.4-0.3,0.5-0.5
	c0,0,0.1-0.1,0.1-0.1l0-7.1c0-0.6,0.3-0.9,0.9-0.9h4v-4c0-0.6,0.3-0.9,0.9-0.9h8.6c0.6,0,0.9,0.3,0.9,0.9v9.7c0,0.2,0,0.5-0.2,0.7
	c-0.1,0.2-0.4,0.2-0.7,0.2l-8.7,0c-0.6,0-0.9-0.3-0.9-0.9v-4h-3.3l0,6.4l0,0l0,0.1c0.9,0.5,1.2,1.6,0.7,2.4
	c-0.2,0.3-0.4,0.5-0.7,0.7l-0.1,6.6h2.4c0.3-1.8,1.4-3.4,3.1-4.3c0.8-0.4,1.7-0.7,2.6-0.7c0.4,0,0.9,0.1,1.3,0.2
	c1.5,0.4,2.7,1.4,3.5,2.7c0.8,1.3,1,2.9,0.6,4.4c-0.6,2.2-2.5,3.9-4.8,4.2C24.2,29.7,24,29.7,23.8,29.7z M23.8,19.8
	c-2.3,0-4.1,1.9-4.2,4.1c0,2.3,1.8,4.2,4.1,4.2c2.3,0,4.2-1.9,4.2-4.1c0-2.2-1.7-4-3.9-4.2L23.8,19.8L23.8,19.8
	C23.8,19.8,23.8,19.8,23.8,19.8l0-0.2l0-0.1V19.8z M6,10.8c-2.3,0-4.2,1.9-4.2,4.2c0,2.3,1.9,4.2,4.2,4.2c2.3,0,4.2-1.9,4.2-4.2
	C10.2,12.7,8.3,10.8,6,10.8v-0.3V10.8z M14.9,14.8c-0.1,0-0.2,0.1-0.2,0.2c0,0.1,0.1,0.2,0.2,0.2c0.1,0,0.2-0.1,0.2-0.2
	C15.1,14.9,15,14.8,14.9,14.8z M28,10.2V2h-7.3l0,8.2H28z"/>
<path class="st0" d="M23.6,8.6c-0.2,0-0.3-0.1-0.5-0.1C23.1,8.4,23,8.4,23,8.3c-0.4-0.4-0.9-0.9-1.3-1.3c-0.1-0.1-0.2-0.3-0.3-0.5
	c0-0.2,0-0.4,0.1-0.6c0.2-0.2,0.4-0.3,0.7-0.3c0.2,0,0.4,0.1,0.5,0.2l0.9,0.9c0.3-0.3,0.5-0.5,0.8-0.8l2.1-2.1
	c0.1-0.2,0.4-0.3,0.6-0.3c0.1,0,0.3,0,0.4,0.1c0.3,0.1,0.5,0.5,0.4,0.9c0,0.2-0.1,0.3-0.3,0.4l-3.3,3.4C24.1,8.5,23.9,8.6,23.6,8.6
	L23.6,8.6z"/>
</svg>
