<svg xmlns="http://www.w3.org/2000/svg" width="30" height="30" viewBox="0 0 30 30">
  <g id="Group_426" data-name="Group 426" transform="translate(-354 -490)">
    <g id="Rectangle_95" data-name="Rectangle 95" transform="translate(354 490)" fill="#fff" stroke="#bbb" stroke-width="1">
      <rect width="30" height="30" rx="5" stroke="none"/>
      <rect x="0.5" y="0.5" width="29" height="29" rx="4.5" fill="none"/>
    </g>
    <path id="Path_196" data-name="Path 196" d="M4.992,8.023a1.756,1.756,0,0,1,.17-.23q3.7-3.706,7.4-7.408a1.028,1.028,0,1,1,1.571,1.326c-.037.041-.078.081-.119.122q-4.145,4.145-8.29,8.294a1,1,0,0,1-1.063.326,1.169,1.169,0,0,1-.444-.27q-1.956-1.939-3.9-3.9A1,1,0,0,1,.306,4.841a.987.987,0,0,1,1.459,0c1,.993,2,2,3,2.993A1.924,1.924,0,0,1,4.9,8c.03.007.063.011.093.019Z" transform="translate(361.956 502.001)" fill="#aaa"/>
  </g>
</svg>
