<svg id="Group_431" data-name="Group 431" xmlns="http://www.w3.org/2000/svg" width="24.692" height="24.67" viewBox="0 0 24.692 24.67">
  <path id="Path_223" data-name="Path 223" d="M0,6.3a5.64,5.64,0,0,1,.162-.548A2.59,2.59,0,0,1,2.5,4.019c.118-.009.241-.009.359-.009H12.981a2.9,2.9,0,0,1,.337.013.875.875,0,0,1-.031,1.744c-.105.009-.21,0-.315,0H2.848a2.009,2.009,0,0,0-.429.039.83.83,0,0,0-.644.749c-.009.105-.009.21-.009.311V24.063a3.282,3.282,0,0,0,.013.359.85.85,0,0,0,.732.723,2.858,2.858,0,0,0,.337.013H18.3a2.9,2.9,0,0,0,.337-.013.851.851,0,0,0,.736-.749,2.867,2.867,0,0,0,.009-.337v-8.39a1.841,1.841,0,0,1,.031-.381.871.871,0,0,1,1.7-.048,1.811,1.811,0,0,1,.039.407v8.486a2.64,2.64,0,0,1-2.248,2.76.268.268,0,0,0-.061.031H2.313a1.231,1.231,0,0,0-.136-.044A2.616,2.616,0,0,1,.2,25.294a4.992,4.992,0,0,1-.2-.67Z" transform="translate(0 -2.253)" fill="#a7a9ac"/>
  <path id="Path_224" data-name="Path 224" d="M31.484,3.509a3.425,3.425,0,0,1-1.1,2.357q-4.357,4.344-8.7,8.692c-.9.9-1.792,1.8-2.7,2.69a1.658,1.658,0,0,1-.6.377c-1.669.57-3.347,1.122-5.021,1.678a.966.966,0,0,1-.942-.1.9.9,0,0,1-.272-1.087c.368-1.113.74-2.221,1.113-3.334.188-.565.359-1.13.57-1.687a1.729,1.729,0,0,1,.386-.622c3.8-3.807,7.61-7.6,11.4-11.413A3.421,3.421,0,0,1,30.161.688,3.464,3.464,0,0,1,31.484,3.509ZM14.371,17.1a.994.994,0,0,0,.131-.035c1.056-.355,2.116-.705,3.172-1.065a.761.761,0,0,0,.267-.188q5.593-5.586,11.181-11.181a2.567,2.567,0,0,0,.272-.307,1.536,1.536,0,0,0,.175-1.617,1.522,1.522,0,0,0-1.328-.933,1.683,1.683,0,0,0-1.393.578Q21.407,7.8,15.953,13.236A2.532,2.532,0,0,0,15.3,14.3c-.285.924-.6,1.84-.924,2.8Z" transform="translate(-6.792 0)" fill="#a7a9ac"/>
</svg>
