<svg id="Group_430" data-name="Group 430" xmlns="http://www.w3.org/2000/svg" width="23.498" height="24.716" viewBox="0 0 23.498 24.716">
  <path id="Path_225" data-name="Path 225" d="M2.452,5.447H1.589c-.255,0-.507.008-.762-.008A.909.909,0,0,1,0,4.619a.893.893,0,0,1,.665-.956,1.907,1.907,0,0,1,.445-.043Q4,3.615,6.89,3.614h.325V3.165a8.163,8.163,0,0,1,.046-1.153,2.385,2.385,0,0,1,2.356-2C11.029,0,12.438,0,13.85.012a2.41,2.41,0,0,1,2.414,2.457V3.61h.34c1.927,0,3.853,0,5.784.012a1.667,1.667,0,0,1,.5.062.908.908,0,0,1,.6.979.89.89,0,0,1-.812.77c-.433.023-.867.008-1.3.012h-.333c-.031.4-.058.77-.081,1.141q-.226,3.534-.445,7.065c-.1,1.64-.2,3.285-.3,4.925-.066,1.014-.1,2.031-.224,3.037a3.624,3.624,0,0,1-3.138,3.06,6.62,6.62,0,0,1-.731.043q-4.428,0-8.856,0A3.679,3.679,0,0,1,3.531,21.48c-.085-.6-.093-1.219-.132-1.826q-.162-2.461-.325-4.925c-.085-1.277-.162-2.55-.244-3.826q-.157-2.362-.317-4.728c-.015-.232-.031-.464-.046-.731ZM4.367,5.5c0,.205-.008.4,0,.592.023.449.062.9.089,1.35.12,2.081.236,4.167.36,6.252q.215,3.7.441,7.405a1.771,1.771,0,0,0,1.226,1.664,2.4,2.4,0,0,0,.832.12c2.944.008,5.888,0,8.829,0a3.851,3.851,0,0,0,.422-.023,1.86,1.86,0,0,0,1.656-1.749q.221-3.534.445-7.065.255-4.08.507-8.163c.008-.116,0-.236,0-.387H4.367Zm4.67-1.919h5.4v-.9c0-.646-.143-.785-.8-.789H10.426c-.282,0-.565-.008-.847,0a.521.521,0,0,0-.542.561c-.008.368,0,.731,0,1.118Z" transform="translate(0.008)" fill="#a7a9ac"/>
  <path id="Path_226" data-name="Path 226" d="M18.667,27.559V22.77a.9.9,0,0,1,.971-.932.906.906,0,0,1,.843.8c0,.054,0,.112,0,.17v9.471a1.015,1.015,0,0,1-.031.306.907.907,0,0,1-1.787-.236c0-1.439,0-2.875,0-4.314Z" transform="translate(-11.441 -13.388)" fill="#a7a9ac"/>
  <path id="Path_227" data-name="Path 227" d="M27.995,27.523V22.788a.9.9,0,0,1,.979-.952.906.906,0,0,1,.836.812c0,.054,0,.112,0,.17V32.29a.922.922,0,0,1-.84.987.907.907,0,0,1-.979-.9c-.008-.743,0-1.486,0-2.225V27.531Z" transform="translate(-17.159 -13.386)" fill="#a7a9ac"/>
  <path id="Path_228" data-name="Path 228" d="M39.158,27.588v4.736a.911.911,0,0,1-1.818.1v-9.61a.911.911,0,1,1,1.818-.046c0,.921,0,1.842,0,2.762v2.058Z" transform="translate(-22.891 -13.389)" fill="#a7a9ac"/>
</svg>
