<svg xmlns="http://www.w3.org/2000/svg" width="29.466" height="29.464" viewBox="0 0 29.466 29.464">
  <g id="Group_425" data-name="Group 425" transform="translate(0.01 -0.004)">
    <g id="Group_424" data-name="Group 424">
      <path id="Path_198" data-name="Path 198" d="M-.006,3.234a8.613,8.613,0,0,1,.513-1.39A3.449,3.449,0,0,1,3.625.015q8.34-.026,16.675,0A3.64,3.64,0,0,1,23.922,3.65q.026,5.564,0,11.124a3.661,3.661,0,0,1-3.731,3.648q-6.525.007-13.054,0H6.773l-2.53,2.109c-.881.737-1.763,1.473-2.653,2.206a.912.912,0,0,1-1.276.057A2.514,2.514,0,0,1-.01,22.33Q0,12.779-.006,3.234ZM1.84,20.106c.11-.083.171-.127.232-.175C3.244,18.958,4.419,17.989,5.581,17a1.712,1.712,0,0,1,1.175-.434q6.669.02,13.343,0a1.841,1.841,0,0,0,1.978-1.921q.013-5.433,0-10.87a1.83,1.83,0,0,0-1.921-1.921q-8.2-.007-16.39,0a2.119,2.119,0,0,0-.886.193,1.819,1.819,0,0,0-1.039,1.8V20.1Z" fill="#a7a9ac"/>
      <path id="Path_199" data-name="Path 199" d="M37.729,38.906c-.215-.14-.438-.272-.64-.43-1.276-1.013-2.548-2.035-3.819-3.052-.083-.066-.167-.127-.25-.193H20.536A3.608,3.608,0,0,1,16.9,32.364a7.734,7.734,0,0,1-.088-1.885.882.882,0,0,1,.952-.776.92.92,0,0,1,.873.868c.013.276,0,.557,0,.833a1.854,1.854,0,0,0,1.986,1.973q6.229,0,12.453,0a1.64,1.64,0,0,1,1.1.395c.868.71,1.75,1.4,2.627,2.1.057.048.123.088.21.158.009-.105.018-.189.018-.267v-15.1a1.852,1.852,0,0,0-1.846-2,.924.924,0,1,1,.079-1.846,3.7,3.7,0,0,1,3.613,3.508c0,.123,0,.25,0,.373q0,8.524.009,17.053a1.1,1.1,0,0,1-.7,1.158h-.46Z" transform="translate(-9.435 -9.443)" fill="#a7a9ac"/>
    </g>
    <path id="Path_200" data-name="Path 200" d="M18.994,14.459H13.561a.922.922,0,0,1-.93-1.241.893.893,0,0,1,.8-.605,2.525,2.525,0,0,1,.259,0H24.348a1.7,1.7,0,0,1,.452.044.9.9,0,0,1,.658.987.917.917,0,0,1-.868.811c-.342.013-.688,0-1.035,0H18.985Z" transform="translate(-7.064 -7.077)" fill="#a7a9ac"/>
    <path id="Path_201" data-name="Path 201" d="M17.167,22.854c-1.206,0-2.412,0-3.617,0a.917.917,0,0,1-.9-1.258.887.887,0,0,1,.868-.588c.671,0,1.342,0,2.013,0H20.7a2.127,2.127,0,0,1,.373.022.923.923,0,0,1-.2,1.824c-1.237.009-2.469,0-3.705,0Z" transform="translate(-7.07 -11.793)" fill="#a7a9ac"/>
  </g>
</svg>
