<svg xmlns="http://www.w3.org/2000/svg" width="32.001" height="32" viewBox="0 0 32.001 32">
  <g id="Group_424" data-name="Group 424" transform="translate(0.001)">
    <path id="Path_72" data-name="Path 72" d="M26.45,32H5.579a1.175,1.175,0,0,0-.175-.055A6.174,6.174,0,0,1,.014,25.9C0,20.117-.016,14.338.024,8.559A5.931,5.931,0,0,1,3.3,3.184,6.132,6.132,0,0,1,6.4,2.45H7.38c0-.439,0-.833,0-1.223a1.253,1.253,0,0,1,2.505-.01c.015.4,0,.8,0,1.213H22.128c0-.379-.015-.744,0-1.1a1.762,1.762,0,0,1,.125-.6,1.231,1.231,0,0,1,1.362-.7,1.244,1.244,0,0,1,1.013,1.188c.01.4,0,.8,0,1.243.444,0,.848-.01,1.253,0a6.181,6.181,0,0,1,5.959,4.786c.06.25.1.5.155.754V26.5a1.175,1.175,0,0,0-.055.175,6.1,6.1,0,0,1-4.422,5.08c-.349.115-.724.165-1.083.245Zm3.059-19.633H2.52V25.672A3.682,3.682,0,0,0,6.312,29.49q9.7.007,19.4,0a3.913,3.913,0,0,0,.868-.085,3.667,3.667,0,0,0,2.925-3.638v-13.4ZM24.648,5.016V7.321a1.258,1.258,0,1,1-2.51-.015V5H9.891V5.37c0,.679,0,1.352,0,2.031a1.253,1.253,0,0,1-2.505.015c-.01-.8,0-1.6,0-2.43-.489,0-.958-.03-1.417,0-2.331.19-3.823,2.156-3.394,4.816H29.549a12.042,12.042,0,0,0-.155-1.971c-.539-2.221-2.43-3.139-4.751-2.82Z" transform="translate(0)" fill="#a7a9ac"/>
    <path id="Path_73" data-name="Path 73" d="M29.555,34.562c-.394,0-.794,0-1.188,0a1.253,1.253,0,1,1,.015-2.505c.8,0,1.6,0,2.405,0a1.255,1.255,0,1,1,.02,2.51c-.414.01-.833,0-1.248,0Z" transform="translate(-13.571 -16.056)" fill="#a7a9ac"/>
    <path id="Path_74" data-name="Path 74" d="M44.365,46.818c.414,0,.833,0,1.248,0a1.253,1.253,0,0,1,.01,2.505q-1.25.022-2.5,0a1.253,1.253,0,0,1,.02-2.505c.4,0,.813,0,1.218,0Z" transform="translate(-20.98 -23.452)" fill="#a7a9ac"/>
    <path id="Path_75" data-name="Path 75" d="M29.57,46.818c.4,0,.813,0,1.218,0a1.255,1.255,0,1,1,0,2.51c-.813.01-1.622.01-2.435,0a1.253,1.253,0,1,1,0-2.505c.4,0,.813,0,1.218,0Z" transform="translate(-13.566 -23.452)" fill="#a7a9ac"/>
    <path id="Path_76" data-name="Path 76" d="M14.805,46.816c.414,0,.833-.01,1.248,0a1.253,1.253,0,0,1,.01,2.505q-1.25.022-2.5,0a1.253,1.253,0,0,1,0-2.505C13.972,46.806,14.391,46.816,14.805,46.816Z" transform="translate(-6.172 -23.449)" fill="#a7a9ac"/>
    <path id="Path_77" data-name="Path 77" d="M14.8,34.56c-.4,0-.813,0-1.218,0a1.253,1.253,0,1,1,.015-2.505c.813,0,1.622-.01,2.435,0a1.253,1.253,0,0,1,.01,2.505c-.414.01-.833,0-1.248,0Z" transform="translate(-6.172 -16.054)" fill="#a7a9ac"/>
    <path id="Path_78" data-name="Path 78" d="M44.37,32.043c.4,0,.813,0,1.218,0a1.253,1.253,0,1,1,0,2.505c-.813.01-1.622.01-2.435,0a1.255,1.255,0,1,1,0-2.51c.4,0,.813,0,1.218,0Z" transform="translate(-20.98 -16.048)" fill="#a7a9ac"/>
  </g>
</svg>
