<svg width="24" height="24" viewBox="0 0 24 24" fill="none" xmlns="http://www.w3.org/2000/svg">
<path d="M12 23.9997C10.3802 23.9997 8.80878 23.6824 7.32894 23.0565C5.90003 22.4522 4.61662 21.587 3.51483 20.4849C2.41304 19.3831 1.54782 18.0997 0.943242 16.6708C0.317341 15.1912 0 13.6198 0 12C0 10.3802 0.317341 8.80878 0.943242 7.32894C1.54757 5.90003 2.41279 4.61662 3.51483 3.51483C4.61662 2.41304 5.90003 1.54782 7.32894 0.943242C8.80853 0.317341 10.3802 0 12 0C13.6198 0 15.1912 0.317341 16.6711 0.943242C18.1 1.54757 19.3834 2.41279 20.4852 3.51483C21.587 4.61662 22.4522 5.90003 23.0568 7.32894C23.6827 8.80878 24 10.3802 24 12C24 13.6198 23.6827 15.1912 23.0568 16.6711C22.4524 18.1 21.5872 19.3834 20.4852 20.4852C19.3834 21.587 18.1 22.4522 16.6711 23.0568C15.1912 23.6827 13.6198 24 12 24V23.9997ZM12 0.915898C10.5034 0.915898 9.05187 1.20891 7.68567 1.78664C6.36588 2.34481 5.18056 3.14406 4.16231 4.16231C3.14406 5.18056 2.34506 6.36588 1.78664 7.68567C1.20865 9.05187 0.915898 10.5034 0.915898 12C0.915898 13.4966 1.20891 14.9481 1.78664 16.3143C2.34481 17.6341 3.14406 18.8194 4.16231 19.8377C5.18056 20.8559 6.36588 21.6549 7.68567 22.2134C9.05187 22.7913 10.5034 23.0841 12 23.0841C13.4966 23.0841 14.9481 22.7911 16.3143 22.2134C17.6341 21.6552 18.8194 20.8559 19.8377 19.8377C20.8559 18.8194 21.6549 17.6341 22.2134 16.3143C22.7913 14.9481 23.0841 13.4966 23.0841 12C23.0841 10.5034 22.7911 9.05187 22.2134 7.68567C21.6552 6.36588 20.8559 5.18056 19.8377 4.16231C18.8194 3.14406 17.6341 2.34506 16.3143 1.78664C14.9481 1.20865 13.4966 0.915898 12 0.915898Z" fill="#AAAAAA"/>
<path d="M17.0233 6.97647H6.97656V17.0233H17.0233V6.97647Z" fill="#AAAAAA"/>
</svg>
