<svg width="23" height="24" viewBox="0 0 23 24" fill="none" xmlns="http://www.w3.org/2000/svg">
<path d="M11.1725 24.0001C9.66446 24.0001 8.20125 23.7085 6.82337 23.1335C5.49284 22.5782 4.29801 21.7831 3.27224 20.7708C2.24624 19.7583 1.44083 18.5792 0.878164 17.2663C0.295442 15.9066 0 14.4626 0 12.9744C0 11.4862 0.295442 10.0422 0.878164 8.68243C1.44083 7.36937 2.24648 6.19046 3.27224 5.17794C4.29825 4.16541 5.49307 3.37058 6.82337 2.8153C8.20101 2.24023 9.66423 1.94867 11.1725 1.94867C12.6807 1.94867 14.1437 2.24023 15.5215 2.8153C16.8521 3.37058 18.0469 4.16564 19.0727 5.17794C20.0987 6.19046 20.9041 7.3696 21.4667 8.68243C22.0495 10.042 22.3449 11.486 22.3449 12.9744C22.3449 14.4628 22.0495 15.9066 21.4667 17.2663C20.9041 18.5794 20.0984 19.7583 19.0727 20.7708C18.0467 21.7834 16.8518 22.5782 15.5215 23.1335C14.1439 23.7085 12.6807 24.0001 11.1725 24.0001ZM11.1725 2.79022C9.77919 2.79022 8.42767 3.05946 7.15566 3.59034C5.92679 4.10328 4.82314 4.83759 3.87525 5.77303C2.92737 6.70846 2.18328 7.79762 1.66352 9.01035C1.12557 10.2656 0.852747 11.5992 0.852747 12.9744C0.852747 14.3496 1.12557 15.6831 1.66352 16.9384C2.18328 18.1512 2.92737 19.2403 3.87525 20.1757C4.82314 21.1112 5.92679 21.8455 7.15566 22.3584C8.42767 22.8893 9.77896 23.1586 11.1725 23.1586C12.5659 23.1586 13.9172 22.8893 15.1892 22.3584C16.4181 21.8455 17.5218 21.1112 18.4697 20.1757C19.4175 19.2403 20.1616 18.1512 20.6814 16.9384C21.2193 15.6831 21.4922 14.3496 21.4922 12.9744C21.4922 11.5992 21.2193 10.2656 20.6814 9.01035C20.1616 7.79762 19.4175 6.70846 18.4697 5.77303C17.5218 4.83759 16.4181 4.10328 15.1892 3.59034C13.9172 3.05946 12.5659 2.79022 11.1725 2.79022Z" fill="#A7A7A7"/>
<path d="M7.70308 18.0969C7.60724 18.0969 7.51117 18.0607 7.43795 17.9885C7.29152 17.844 7.29152 17.6097 7.43795 17.4652L10.8592 14.0889V7.27364C10.8592 7.06907 11.0269 6.90361 11.2342 6.90361C11.4415 6.90361 11.6091 7.06907 11.6091 7.27364V14.2421C11.6091 14.3404 11.5695 14.4345 11.4993 14.5038L7.96821 17.9885C7.89499 18.0607 7.79892 18.0969 7.70308 18.0969Z" fill="#A7A7A7"/>
<path d="M20.5335 4.12216C20.4376 4.12216 20.3416 4.08604 20.2683 4.01378C18.6738 2.44022 16.6794 1.30389 14.5006 0.727441C14.3007 0.674743 14.182 0.471548 14.2354 0.274335C14.2905 0.077123 14.4947 -0.0390873 14.6955 0.0126895C17.0005 0.622276 19.1113 1.82511 20.7988 3.49049C20.9453 3.635 20.9453 3.86926 20.7988 4.01378C20.7256 4.08604 20.6295 4.12216 20.5337 4.12216H20.5335Z" fill="#A7A7A7"/>
<path d="M1.80855 4.12216C1.71271 4.12216 1.61664 4.08603 1.54342 4.01377C1.39698 3.86925 1.39698 3.63499 1.54342 3.49048C3.23096 1.8251 5.34173 0.622267 7.64673 0.0126802C7.8517 -0.039787 8.05247 0.0766534 8.1068 0.274326C8.1602 0.471539 8.04151 0.674734 7.84167 0.727432C5.66282 1.30388 3.66841 2.44021 2.07391 4.01377C2.00069 4.08603 1.90462 4.12216 1.80878 4.12216H1.80855Z" fill="#A7A7A7"/>
</svg>
