<svg xmlns="http://www.w3.org/2000/svg" width="24.844" height="17.399" viewBox="0 0 24.844 17.399">
  <g id="Group_73" data-name="Group 73" transform="translate(0.01 0.003)">
    <path id="Path_19" data-name="Path 19" d="M-.009,115.841c.048-.1.089-.2.144-.3a1.249,1.249,0,0,1,1.063-.659c.089-.006.178,0,.266,0q10.95,0,21.9,0a2.219,2.219,0,0,1,.576.059,1.241,1.241,0,0,1-.141,2.416,2.846,2.846,0,0,1-.458.029q-10.877,0-21.756.009a1.471,1.471,0,0,1-1.6-.971v-.582Z" transform="translate(0 -107.435)" fill="#fff"/>
    <path id="Path_20" data-name="Path 20" d="M105.035,0q3.989,0,7.978,0a1.234,1.234,0,0,1,1.292.951,1.245,1.245,0,0,1-1.134,1.538c-.056,0-.113,0-.17,0H97.044A1.246,1.246,0,1,1,96.863.007C97.282-.01,97.7,0,98.123,0h6.911Z" transform="translate(-89.508 0)" fill="#fff"/>
    <path id="Path_21" data-name="Path 21" d="M179.207,232.457q-2.765,0-5.53,0a1.23,1.23,0,0,1-1.284-1.077,1.247,1.247,0,0,1,1.143-1.41c.049,0,.1,0,.145,0h11.061a1.243,1.243,0,0,1,1.265.926,1.229,1.229,0,0,1-1.148,1.559c-.792.018-1.585.006-2.377.006h-3.275Z" transform="translate(-161.217 -215.064)" fill="#fff"/>
  </g>
</svg>
