<svg xmlns="http://www.w3.org/2000/svg" width="29" height="29" viewBox="0 0 29 29">
  <path id="Union_5" data-name="Union 5" d="M4.247,24.753A14.5,14.5,0,1,1,24.753,4.247,14.5,14.5,0,1,1,4.247,24.753ZM2,14.5A12.5,12.5,0,1,0,14.5,2,12.515,12.515,0,0,0,2,14.5Zm15.424,4.35c-.88-.866-1.75-1.75-2.623-2.623l-.234-.234-.22.22-2.569,2.569a1.051,1.051,0,0,1-.967.334,1.013,1.013,0,0,1-.591-1.644,2.576,2.576,0,0,1,.227-.24l2.462-2.462.216-.216-.206-.207L10.3,11.722a.99.99,0,0,1-.175-1.234,1,1,0,0,1,1.41-.351,2.113,2.113,0,0,1,.329.275l2.462,2.462.24.241.22-.22,2.569-2.569a1.017,1.017,0,1,1,1.471,1.4c-.45.471-.922.922-1.382,1.382L16.2,14.352l-.2.2.223.224L18.7,17.257a1.757,1.757,0,0,1,.323.42.994.994,0,0,1-.3,1.251,1.031,1.031,0,0,1-.615.206A.967.967,0,0,1,17.424,18.85Z" fill="#fff"/>
</svg>
