<svg xmlns="http://www.w3.org/2000/svg" width="34" height="34" viewBox="0 0 34 34">
  <g id="Group_424" data-name="Group 424" transform="translate(-308 -490)">
    <g id="Rectangle_94" data-name="Rectangle 94" transform="translate(308 490)" fill="#fff" stroke="#0cae00" stroke-width="1">
      <rect width="34" height="34" rx="5" stroke="none"/>
      <rect x="0.5" y="0.5" width="33" height="33" rx="4.5" fill="none"/>
    </g>
    <path id="Path_195" data-name="Path 195" d="M4.493,10.544a2.6,2.6,0,0,1-.223-.178Q2.647,8.754,1.024,7.146A.831.831,0,0,1,.757,6.34a.814.814,0,0,1,1.35-.424c.186.171.361.357.539.539a1.133,1.133,0,0,1,.119.171c2.193-1.7,4.35-3.372,6.524-5.056-.056-.059-.1-.108-.149-.156A.82.82,0,1,1,10.3.25c.55.535,1.093,1.082,1.639,1.621q2,1.98,3.989,3.959a.861.861,0,0,1,.3.673.822.822,0,0,1-1.357.591c-.067-.056-.13-.119-.208-.19-1.673,2.164-3.338,4.32-5.026,6.506.219.208.442.416.654.628a.779.779,0,0,1,.216.788.815.815,0,0,1-1.376.368c-.494-.483-.981-.978-1.472-1.465-.621-.621-1.242-1.238-1.863-1.859-.045-.045-.089-.086-.145-.138-.056.052-.108.1-.156.145Q3.47,13.9,1.455,15.927a.9.9,0,0,1-.595.3.8.8,0,0,1-.792-.457.8.8,0,0,1,.108-.892,1.66,1.66,0,0,1,.16-.164l3.974-3.974a1.964,1.964,0,0,1,.164-.134c0-.026.007-.048.011-.074ZM4.08,7.719c1.476,1.487,2.948,2.963,4.42,4.446,1.68-2.123,3.372-4.257,5.041-6.368L10.493,2.748C8.355,4.406,6.2,6.076,4.08,7.719Z" transform="translate(317.331 499.304)" fill="#0cae00"/>
  </g>
</svg>
