<svg xmlns="http://www.w3.org/2000/svg" width="7.756" height="12.037" viewBox="0 0 7.756 12.037">
  <path id="Path_209" data-name="Path 209" d="M6.035,5.573l.887-1.036Q8.694,2.47,10.466.4a.873.873,0,0,1,.825-.353.852.852,0,0,1,.534,1.408c-.356.434-.728.854-1.094,1.278Q8.746,5.052,6.757,7.373a.979.979,0,0,1-.5.353.872.872,0,0,1-.929-.317c-.469-.547-.939-1.1-1.408-1.644Q2.087,3.614.242,1.46A.853.853,0,0,1,.055.567.822.822,0,0,1,.754.01a.826.826,0,0,1,.78.314Q2.558,1.518,3.579,2.713,4.734,4.057,5.887,5.405c.042.052.087.1.149.168Z" transform="translate(7.757 0) rotate(90)" fill="#666"/>
</svg>
