<svg id="Group_3" data-name="Group 3" xmlns="http://www.w3.org/2000/svg" width="185" height="38.079" viewBox="0 0 185 38.079">
  <path id="Path_1" data-name="Path 1" d="M29.346,23.744a9.046,9.046,0,0,1,.944-.152,9.72,9.72,0,0,1,1.044-.05,8.859,8.859,0,0,1,1.013.05c.292.034.6.084.91.152a1.907,1.907,0,0,1,.186.488c.056.214.109.438.152.674s.084.466.118.693.062.416.084.575A7.944,7.944,0,0,1,34.6,25.16a5.754,5.754,0,0,1,1.1-.91,6.037,6.037,0,0,1,1.4-.658,5.547,5.547,0,0,1,1.721-.252,5.8,5.8,0,0,1,4.466,1.618q1.5,1.617,1.5,5.091V41.174a14.3,14.3,0,0,1-4.789,0V31.332a5.748,5.748,0,0,0-.556-2.8,2.038,2.038,0,0,0-1.938-.978,4.419,4.419,0,0,0-1.18.168,2.478,2.478,0,0,0-1.1.658,3.514,3.514,0,0,0-.792,1.367,7.164,7.164,0,0,0-.3,2.292v9.135a14.3,14.3,0,0,1-4.789,0V23.744h0Z" transform="translate(-20.227 -16.091)" fill="#a7a9ac" fill-rule="evenodd"/>
  <path id="Path_2" data-name="Path 2" d="M86.641,16.981H84.448l-.168-.674L90.585,8.25h.776v5.091H95.44a7.679,7.679,0,0,1,.134.91c.022.27.034.55.034.842,0,.314-.009.618-.034.91a9.575,9.575,0,0,1-.134.978H91.362v6.842a6.892,6.892,0,0,0,.168,1.687,2.526,2.526,0,0,0,.488,1.013,1.61,1.61,0,0,0,.792.506,4.069,4.069,0,0,0,1.112.134,5.853,5.853,0,0,0,.994-.084c.326-.056.612-.106.86-.152a6.548,6.548,0,0,1,.339,1.332,8.46,8.46,0,0,1,.1,1.23c0,.248-.006.457-.016.624s-.028.332-.05.488a13.666,13.666,0,0,1-3.2.37,6.867,6.867,0,0,1-4.687-1.432Q86.645,28.1,86.644,24.87V16.981h0Z" transform="translate(-58.103 -5.688)" fill="#a7a9ac" fill-rule="evenodd"/>
  <path id="Path_3" data-name="Path 3" d="M131.018,33.932a3.667,3.667,0,0,0,1.416,2.932,5.708,5.708,0,0,0,3.37.91,13,13,0,0,0,2.342-.221,13.26,13.26,0,0,0,2.277-.624,7.772,7.772,0,0,1,.64,1.618,8.246,8.246,0,0,1,.3,2.022,16.422,16.422,0,0,1-5.932,1.013,11.471,11.471,0,0,1-4.162-.674,7.383,7.383,0,0,1-2.833-1.87,7.525,7.525,0,0,1-1.618-2.848,11.917,11.917,0,0,1-.522-3.606,11.649,11.649,0,0,1,.54-3.606,8.411,8.411,0,0,1,1.6-2.932,7.574,7.574,0,0,1,2.631-1.972,8.614,8.614,0,0,1,3.659-.724,7.8,7.8,0,0,1,3.236.64,7.125,7.125,0,0,1,2.41,1.752,7.347,7.347,0,0,1,1.5,2.646,10.39,10.39,0,0,1,.506,3.286c0,.429-.016.848-.05,1.264s-.071.749-.118.994H131.024Zm6.845-3.339a4.24,4.24,0,0,0-.895-2.612,2.839,2.839,0,0,0-2.311-.994,3.321,3.321,0,0,0-2.562.944,4.441,4.441,0,0,0-1.044,2.665h6.811Z" transform="translate(-87.072 -16.098)" fill="#a7a9ac" fill-rule="evenodd"/>
  <path id="Path_4" data-name="Path 4" d="M187.07.972a14.66,14.66,0,0,1,2.395-.2,14.281,14.281,0,0,1,2.361.2v17.7a9.8,9.8,0,0,0,.118,1.687,2.475,2.475,0,0,0,.37.994,1.289,1.289,0,0,0,.658.488,3.23,3.23,0,0,0,1.013.137,5.9,5.9,0,0,0,.59-.034,5.034,5.034,0,0,0,.624-.1,10.331,10.331,0,0,1,.37,2.7v.488a1.952,1.952,0,0,1-.068.488,6.2,6.2,0,0,1-1.3.236c-.506.047-.972.068-1.4.068a5.947,5.947,0,0,1-4.165-1.432q-1.565-1.435-1.568-4.668V.972Z" transform="translate(-128.967 -0.531)" fill="#a7a9ac" fill-rule="evenodd"/>
  <path id="Path_5" data-name="Path 5" d="M219.53.972a14.661,14.661,0,0,1,2.395-.2,14.282,14.282,0,0,1,2.361.2v17.7a9.8,9.8,0,0,0,.118,1.687,2.475,2.475,0,0,0,.37.994,1.289,1.289,0,0,0,.659.488,3.229,3.229,0,0,0,1.012.137,5.9,5.9,0,0,0,.59-.034,5.032,5.032,0,0,0,.624-.1,10.329,10.329,0,0,1,.37,2.7v.488a1.952,1.952,0,0,1-.068.488,6.2,6.2,0,0,1-1.3.236c-.506.047-.972.068-1.4.068a5.946,5.946,0,0,1-4.165-1.432q-1.565-1.435-1.569-4.668V.972Z" transform="translate(-151.345 -0.531)" fill="#a7a9ac" fill-rule="evenodd"/>
  <path id="Path_6" data-name="Path 6" d="M285.19,23.466a8.951,8.951,0,0,1,1.466-.2c.46-.022.848-.034,1.162-.034.45,0,.888.012,1.314.034a6.775,6.775,0,0,1,1.214.168l2.8,12.877,3.236-12.877a12.177,12.177,0,0,1,2.292-.2c.584.022,1.068.043,1.451.068a6.322,6.322,0,0,1,1.013.134L304.3,36.076l2.764-12.644c.382-.068.742-.118,1.078-.152s.721-.05,1.146-.05c.314,0,.693.012,1.131.034a9.683,9.683,0,0,1,1.466.2l-5.429,17.4a10.907,10.907,0,0,1-1.3.134c-.46.022-.848.034-1.162.034-.339,0-.714-.012-1.131-.034a6.727,6.727,0,0,1-1.2-.168L298.505,29.3l-3.271,11.563A12.019,12.019,0,0,1,293.9,41c-.46.022-.848.034-1.162.034s-.68-.012-1.1-.034a6.726,6.726,0,0,1-1.2-.168L285.19,23.466Z" transform="translate(-196.611 -16.015)" fill="#1c1f66" fill-rule="evenodd"/>
  <path id="Path_7" data-name="Path 7" d="M437.05,23.432c.339-.068.658-.118.96-.152a8.934,8.934,0,0,1,.994-.05A7,7,0,0,1,440,23.3q.489.07.96.168a1.906,1.906,0,0,1,.186.488c.056.214.106.438.152.674s.084.472.118.708.062.432.084.59a8.71,8.71,0,0,1,1.82-1.87,4.314,4.314,0,0,1,2.7-.826c.224,0,.484.012.776.034a2.744,2.744,0,0,1,.64.1,6.688,6.688,0,0,1,.1.776c.022.292.034.6.034.91,0,.382-.019.8-.05,1.249a8.988,8.988,0,0,1-.186,1.28,4.777,4.777,0,0,0-.826-.068h-.556a7.96,7.96,0,0,0-1.28.118,2.915,2.915,0,0,0-1.348.624,3.726,3.726,0,0,0-1.062,1.516,7.552,7.552,0,0,0-.422,2.833V40.9a10.677,10.677,0,0,1-1.214.134c-.4.022-.8.034-1.18.034s-.77-.012-1.162-.034-.8-.068-1.23-.134V23.432h0Z" transform="translate(-301.304 -16.015)" fill="#1c1f66" fill-rule="evenodd"/>
  <path id="Path_8" data-name="Path 8" d="M477,.212a13.677,13.677,0,0,1,2.361-.2,14.3,14.3,0,0,1,2.395.2V24.855a14.267,14.267,0,0,1-2.395.2,13.677,13.677,0,0,1-2.361-.2V.212Zm5.429,15.508,4.314-8.293a17.653,17.653,0,0,1,2.665-.2,14.858,14.858,0,0,1,2.494.2l-4.451,8.057,5.193,9.374a18.571,18.571,0,0,1-2.662.2,16.592,16.592,0,0,1-2.494-.2l-5.056-9.138h0Zm10.619,8.731L500.9,11.1h-6.675a8.136,8.136,0,0,1-.137-.978c-.022-.314-.034-.631-.034-.944,0-.292.012-.578.034-.86a6.743,6.743,0,0,1,.137-.895h13.722l.168.4-7.992,13.349h7.417a7.534,7.534,0,0,1,.134.978c.022.314.034.631.034.944,0,.292-.012.578-.034.86a7.188,7.188,0,0,1-.134.895H493.315l-.27-.4h0Z" transform="translate(-328.846 -0.007)" fill="#1c1f66" fill-rule="evenodd"/>
  <path id="Path_9" data-name="Path 9" d="M4.788,98.771a1.538,1.538,0,0,1,.134.332,1.822,1.822,0,0,1,.065.407,3.5,3.5,0,0,1-1.28.217,2.332,2.332,0,0,1-1.829-.686,2.685,2.685,0,0,1-.618-1.854,3.193,3.193,0,0,1,.152-1.006,2.331,2.331,0,0,1,.45-.808,2.137,2.137,0,0,1,.745-.54,2.508,2.508,0,0,1,1.034-.2,4.656,4.656,0,0,1,.7.047,2.724,2.724,0,0,1,.578.152,2,2,0,0,1-.043.376,1.671,1.671,0,0,1-.118.376A3.208,3.208,0,0,0,3.7,95.423a1.268,1.268,0,0,0-1.09.485,2.1,2.1,0,0,0-.36,1.28,1.874,1.874,0,0,0,.407,1.332,1.482,1.482,0,0,0,1.118.422,3.493,3.493,0,0,0,.528-.037,2.241,2.241,0,0,0,.488-.134Zm2.187-4.022c.068-.012.137-.022.2-.028s.13-.009.2-.009.14,0,.208.009a1.536,1.536,0,0,1,.189.028c.019.1.037.221.056.376a3.383,3.383,0,0,1,.028.394,1.958,1.958,0,0,1,.528-.559,1.388,1.388,0,0,1,.839-.236,1.325,1.325,0,0,1,.155.006,1.293,1.293,0,0,1,.137.016,1.563,1.563,0,0,1,.028.18c.006.062.009.13.009.2a2.1,2.1,0,0,1-.016.236c-.009.081-.022.161-.034.236a.644.644,0,0,0-.155-.019H9.217a1.683,1.683,0,0,0-.488.071.983.983,0,0,0-.416.252,1.275,1.275,0,0,0-.3.494,2.535,2.535,0,0,0-.109.808v2.42a2.184,2.184,0,0,1-.233.028q-.126.009-.233.009c-.071,0-.146,0-.233-.009s-.165-.016-.242-.028V94.755h0Zm4.985,2.665a1.588,1.588,0,0,0,.413,1.168,1.631,1.631,0,0,0,1.162.37,3.467,3.467,0,0,0,1.28-.236,1.484,1.484,0,0,1,.124.345,2.255,2.255,0,0,1,.056.4,3.048,3.048,0,0,1-.686.2,4.83,4.83,0,0,1-.829.065,3.119,3.119,0,0,1-1.14-.186,2,2,0,0,1-1.233-1.32,3.36,3.36,0,0,1-.143-1.009A3.605,3.605,0,0,1,11.1,96.2a2.321,2.321,0,0,1,.422-.817,2.051,2.051,0,0,1,.717-.55,2.357,2.357,0,0,1,1.019-.2,2.109,2.109,0,0,1,.882.171,1.827,1.827,0,0,1,.637.469,2,2,0,0,1,.388.711,2.877,2.877,0,0,1,.134.9q0,.135-.009.28t-.019.252H11.96Zm2.41-.7a1.813,1.813,0,0,0-.071-.506,1.31,1.31,0,0,0-.208-.422,1,1,0,0,0-.351-.289,1.117,1.117,0,0,0-.506-.109,1.129,1.129,0,0,0-.888.351,1.734,1.734,0,0,0-.376.978h2.4ZM20,97.33c-.1-.012-.214-.025-.36-.037s-.27-.019-.37-.019a1.551,1.551,0,0,0-.9.217.76.76,0,0,0-.307.665.808.808,0,0,0,.106.447.68.68,0,0,0,.261.245.93.93,0,0,0,.345.106c.127.012.245.019.36.019.146,0,.3-.009.45-.025A2.771,2.771,0,0,0,20,98.877V97.33h0Zm0-.919a.921.921,0,0,0-.286-.776,1.336,1.336,0,0,0-.826-.217,3.561,3.561,0,0,0-.621.053,4.841,4.841,0,0,0-.565.137,1.468,1.468,0,0,1-.18-.749,4.444,4.444,0,0,1,.711-.161,5.251,5.251,0,0,1,.749-.056,2.12,2.12,0,0,1,1.441.432,1.744,1.744,0,0,1,.494,1.379V99.5c-.221.05-.491.1-.808.155a5.885,5.885,0,0,1-.969.081,3.833,3.833,0,0,1-.839-.084,1.7,1.7,0,0,1-.637-.276,1.3,1.3,0,0,1-.4-.485,1.6,1.6,0,0,1-.143-.711,1.5,1.5,0,0,1,.165-.717,1.519,1.519,0,0,1,.45-.512,2.019,2.019,0,0,1,.655-.3,3.022,3.022,0,0,1,.776-.1c.2,0,.37.006.5.016s.239.022.326.034v-.18h0Zm3.41-.91h-.739l-.037-.134,1.631-1.82h.075v1.205H25.57a1.606,1.606,0,0,1,.037.36c0,.068,0,.137-.009.2s-.016.127-.028.189H24.337v2.221a4.848,4.848,0,0,0,.034.637.91.91,0,0,0,.115.367.38.38,0,0,0,.217.171,1.211,1.211,0,0,0,.345.043,1.886,1.886,0,0,0,.3-.025c.1-.016.18-.034.258-.053a1.516,1.516,0,0,1,.081.388c.009.134.016.248.016.351a3.119,3.119,0,0,1-.4.071,4.045,4.045,0,0,1-.447.025,1.588,1.588,0,0,1-1.068-.332,1.388,1.388,0,0,1-.385-1.1V95.5h0Zm4.395-.009h-.618a1.179,1.179,0,0,1-.028-.177q-.009-.1-.009-.2c0-.065,0-.127.009-.2a1.325,1.325,0,0,1,.028-.177h1.537v4.867a2.175,2.175,0,0,1-.233.028q-.126.009-.233.009t-.224-.009a2.281,2.281,0,0,1-.233-.028V95.488h0ZM27.6,93.681a1.927,1.927,0,0,1-.025-.245c0-.09-.006-.168-.006-.236s0-.149.006-.236a1.622,1.622,0,0,1,.025-.236c.081-.012.171-.022.267-.028s.177-.009.245-.009.152,0,.245.009a2.55,2.55,0,0,1,.255.028,1.67,1.67,0,0,1,.025.236c0,.09.006.168.006.236s0,.149-.006.236a1.869,1.869,0,0,1-.025.245q-.112.019-.252.028c-.093.006-.171.009-.242.009s-.162,0-.255-.009-.183-.016-.267-.028h0Zm2.954,1.072c.09-.012.18-.022.276-.028s.18-.009.255-.009.171,0,.27.009a2.212,2.212,0,0,1,.252.028l1.329,4.013,1.339-4.013a2.25,2.25,0,0,1,.236-.028c.09-.006.174-.009.255-.009s.149,0,.236.009.177.016.267.028l-1.9,4.867c-.081.012-.165.022-.245.028s-.158.009-.227.009-.143,0-.224-.009-.155-.016-.233-.028l-1.888-4.867Zm6.814.739h-.618a1.181,1.181,0,0,1-.028-.177q-.009-.1-.009-.2c0-.065,0-.127.009-.2a1.326,1.326,0,0,1,.028-.177h1.537v4.867a2.179,2.179,0,0,1-.233.028q-.126.009-.233.009t-.224-.009a2.281,2.281,0,0,1-.233-.028V95.488h0Zm-.208-1.811a1.928,1.928,0,0,1-.025-.245c0-.09-.006-.168-.006-.236s0-.149.006-.236a1.623,1.623,0,0,1,.025-.236c.081-.012.171-.022.267-.028s.177-.009.245-.009.152,0,.245.009a2.55,2.55,0,0,1,.255.028,1.671,1.671,0,0,1,.025.236c0,.09.006.168.006.236s0,.149-.006.236a1.869,1.869,0,0,1-.025.245q-.112.019-.252.028c-.093.006-.171.009-.242.009s-.162,0-.255-.009-.183-.016-.267-.028h0Zm3.733,1.82H40.15l-.037-.134,1.631-1.82h.075v1.205h1.233a1.605,1.605,0,0,1,.037.36c0,.068,0,.137-.009.2s-.016.127-.028.189H41.818v2.221a4.847,4.847,0,0,0,.034.637.91.91,0,0,0,.115.367.38.38,0,0,0,.217.171,1.211,1.211,0,0,0,.345.043,1.886,1.886,0,0,0,.3-.025c.1-.016.18-.034.255-.053a1.517,1.517,0,0,1,.081.388c.009.134.016.248.016.351a3.117,3.117,0,0,1-.4.071,4.045,4.045,0,0,1-.447.025,1.588,1.588,0,0,1-1.068-.332,1.388,1.388,0,0,1-.385-1.1V95.5h0Zm5.771,4.128a1.322,1.322,0,0,0-.155.006c-.053,0-.106.006-.155.006s-.13,0-.2-.006a1.151,1.151,0,0,1-.171-.016l-1.612-4.867a2.213,2.213,0,0,1,.255-.025c.09,0,.171-.006.245-.006s.174,0,.276.006a1.721,1.721,0,0,1,.255.025l1.348,4.525,1.395-4.525a3.412,3.412,0,0,1,.466-.028c.068,0,.149,0,.236.006a2.586,2.586,0,0,1,.267.025l-1.888,5.852a4.526,4.526,0,0,1-.276.655,1.517,1.517,0,0,1-.323.426,1.026,1.026,0,0,1-.4.227,1.841,1.841,0,0,1-.516.065,2.853,2.853,0,0,1-.432-.034,3.014,3.014,0,0,1-.376-.081,1.809,1.809,0,0,1,.037-.388,1.639,1.639,0,0,1,.115-.342,2.321,2.321,0,0,0,.233.062,1.478,1.478,0,0,0,.317.034,1.14,1.14,0,0,0,.233-.025.5.5,0,0,0,.2-.1.74.74,0,0,0,.177-.2,1.854,1.854,0,0,0,.155-.36l.3-.919h0Zm13.79-4.137h-.618a1.18,1.18,0,0,1-.028-.177q-.009-.1-.009-.2c0-.065,0-.127.009-.2a1.325,1.325,0,0,1,.028-.177H61.37v4.867a2.179,2.179,0,0,1-.233.028q-.126.009-.233.009t-.224-.009a2.282,2.282,0,0,1-.233-.028V95.488h0Zm-.208-1.811a1.927,1.927,0,0,1-.025-.245c0-.09-.006-.168-.006-.236s0-.149.006-.236a1.62,1.62,0,0,1,.025-.236c.081-.012.171-.022.267-.028s.177-.009.245-.009.152,0,.245.009a2.55,2.55,0,0,1,.255.028,1.669,1.669,0,0,1,.025.236c0,.09.006.168.006.236s0,.149-.006.236a1.868,1.868,0,0,1-.025.245q-.112.019-.252.028c-.093.006-.171.009-.242.009s-.162,0-.255-.009-.183-.016-.267-.028h0ZM63.8,94.752q.1-.019.2-.028t.2-.009a1.925,1.925,0,0,1,.2.009q.089.009.2.028c.019.1.037.224.056.385a3.619,3.619,0,0,1,.028.4,1.825,1.825,0,0,1,.242-.323,1.87,1.87,0,0,1,.335-.289,1.681,1.681,0,0,1,.438-.208,1.761,1.761,0,0,1,.54-.081,1.509,1.509,0,0,1,1.233.478,2.167,2.167,0,0,1,.4,1.419v3.084a2.249,2.249,0,0,1-.236.028c-.09.006-.168.009-.236.009s-.146,0-.233-.009-.162-.016-.233-.028V96.8a1.831,1.831,0,0,0-.208-.991.738.738,0,0,0-.665-.317,1.307,1.307,0,0,0-.5.1,1.078,1.078,0,0,0-.416.3,1.443,1.443,0,0,0-.289.516,2.4,2.4,0,0,0-.109.764v2.466a2.185,2.185,0,0,1-.233.028q-.126.009-.233.009c-.071,0-.149,0-.236-.009a2.153,2.153,0,0,1-.236-.028V94.759h0Zm6.38,0q.1-.019.205-.028t.2-.009a1.926,1.926,0,0,1,.2.009q.089.009.2.028c.019.1.037.224.056.385a3.62,3.62,0,0,1,.028.4,1.824,1.824,0,0,1,.242-.323,1.87,1.87,0,0,1,.335-.289,1.709,1.709,0,0,1,.435-.208,1.762,1.762,0,0,1,.54-.081,1.509,1.509,0,0,1,1.233.478,2.167,2.167,0,0,1,.4,1.419v3.084a2.249,2.249,0,0,1-.236.028c-.09.006-.168.009-.236.009s-.146,0-.233-.009-.162-.016-.233-.028V96.8a1.831,1.831,0,0,0-.208-.991.738.738,0,0,0-.665-.317,1.307,1.307,0,0,0-.5.1,1.078,1.078,0,0,0-.416.3,1.443,1.443,0,0,0-.289.516,2.4,2.4,0,0,0-.109.764v2.466a2.184,2.184,0,0,1-.233.028q-.126.009-.233.009c-.071,0-.149,0-.236-.009a2.153,2.153,0,0,1-.236-.028V94.759h0Zm8.352,4.979a2.38,2.38,0,0,1-1-.2A1.954,1.954,0,0,1,76.819,99a2.251,2.251,0,0,1-.422-.808,3.488,3.488,0,0,1-.137-1.006,3.6,3.6,0,0,1,.137-1.006,2.277,2.277,0,0,1,.422-.808,2.033,2.033,0,0,1,.711-.54,2.6,2.6,0,0,1,1.994,0,2.033,2.033,0,0,1,.711.54,2.252,2.252,0,0,1,.422.808,3.488,3.488,0,0,1,.137,1.006,3.6,3.6,0,0,1-.137,1.006,2.278,2.278,0,0,1-.422.808,1.989,1.989,0,0,1-.711.537,2.38,2.38,0,0,1-1,.2Zm0-.749a1.081,1.081,0,0,0,.969-.475,2.384,2.384,0,0,0,.314-1.32,2.354,2.354,0,0,0-.314-1.314,1.08,1.08,0,0,0-.969-.469,1.065,1.065,0,0,0-.963.469,2.39,2.39,0,0,0-.307,1.314,2.42,2.42,0,0,0,.307,1.32,1.063,1.063,0,0,0,.963.475Zm3.609-4.23c.09-.012.18-.022.276-.028s.18-.009.255-.009.171,0,.27.009a2.208,2.208,0,0,1,.252.028l1.329,4.013,1.339-4.013a2.248,2.248,0,0,1,.236-.028c.09-.006.174-.009.255-.009s.149,0,.236.009.177.016.267.028l-1.9,4.867c-.081.012-.165.022-.245.028s-.158.009-.227.009-.143,0-.224-.009-.155-.016-.233-.028l-1.888-4.867Zm9.1,2.581c-.1-.012-.214-.025-.36-.037s-.27-.019-.37-.019a1.551,1.551,0,0,0-.9.217.76.76,0,0,0-.308.665.808.808,0,0,0,.106.447.68.68,0,0,0,.261.245.93.93,0,0,0,.345.106c.124.012.245.019.36.019.146,0,.3-.009.45-.025a2.771,2.771,0,0,0,.413-.071V97.333Zm0-.919a.921.921,0,0,0-.286-.776,1.336,1.336,0,0,0-.826-.217,3.563,3.563,0,0,0-.621.053,4.841,4.841,0,0,0-.565.137,1.468,1.468,0,0,1-.18-.749,4.443,4.443,0,0,1,.711-.161,5.251,5.251,0,0,1,.749-.056,2.12,2.12,0,0,1,1.441.432,1.744,1.744,0,0,1,.494,1.379V99.5c-.221.05-.491.1-.808.155a5.875,5.875,0,0,1-.966.081,3.833,3.833,0,0,1-.839-.084,1.7,1.7,0,0,1-.637-.276,1.3,1.3,0,0,1-.4-.485,1.6,1.6,0,0,1-.143-.711,1.5,1.5,0,0,1,.165-.717,1.519,1.519,0,0,1,.45-.512,2.019,2.019,0,0,1,.655-.3,3.022,3.022,0,0,1,.776-.1c.2,0,.37.006.5.016s.239.022.326.034v-.18h0Zm3.41-.91h-.739l-.037-.134L95.5,93.55h.075v1.205h1.233a1.6,1.6,0,0,1,.037.36c0,.068,0,.137-.009.2s-.016.127-.028.189H95.575v2.221a4.852,4.852,0,0,0,.034.637.91.91,0,0,0,.115.366.38.38,0,0,0,.217.171,1.21,1.21,0,0,0,.345.043,1.887,1.887,0,0,0,.3-.025c.1-.016.18-.034.255-.053a1.515,1.515,0,0,1,.081.388c.009.134.016.248.016.351a3.11,3.11,0,0,1-.4.071,4.041,4.041,0,0,1-.447.025,1.588,1.588,0,0,1-1.068-.332,1.388,1.388,0,0,1-.385-1.1V95.507h0Zm4.395-.009h-.618a1.179,1.179,0,0,1-.028-.177q-.009-.1-.009-.2c0-.065,0-.127.009-.2a1.324,1.324,0,0,1,.028-.177h1.537v4.867a2.183,2.183,0,0,1-.233.028q-.126.009-.233.009t-.224-.009a2.285,2.285,0,0,1-.233-.028V95.492h0Zm-.208-1.811a1.93,1.93,0,0,1-.025-.245c0-.09-.006-.168-.006-.236s0-.149.006-.236a1.626,1.626,0,0,1,.025-.236c.081-.012.171-.022.267-.028s.177-.009.245-.009.152,0,.245.009a2.553,2.553,0,0,1,.255.028,1.669,1.669,0,0,1,.025.236c0,.09.006.168.006.236s0,.149-.006.236a1.867,1.867,0,0,1-.025.245q-.112.019-.252.028c-.093.006-.171.009-.242.009s-.162,0-.255-.009-.183-.016-.267-.028h0Zm5.526,6.05a2.379,2.379,0,0,1-1-.2,1.954,1.954,0,0,1-.711-.537,2.251,2.251,0,0,1-.422-.808,3.489,3.489,0,0,1-.137-1.006,3.6,3.6,0,0,1,.137-1.006,2.277,2.277,0,0,1,.422-.808,2.033,2.033,0,0,1,.711-.54,2.6,2.6,0,0,1,1.994,0,2.033,2.033,0,0,1,.711.54,2.252,2.252,0,0,1,.422.808,3.489,3.489,0,0,1,.137,1.006,3.6,3.6,0,0,1-.137,1.006,2.278,2.278,0,0,1-.422.808,1.989,1.989,0,0,1-.711.537,2.379,2.379,0,0,1-1,.2Zm0-.749a1.081,1.081,0,0,0,.969-.475,2.384,2.384,0,0,0,.314-1.32,2.354,2.354,0,0,0-.314-1.314,1.08,1.08,0,0,0-.969-.469,1.065,1.065,0,0,0-.963.469,2.39,2.39,0,0,0-.307,1.314,2.42,2.42,0,0,0,.307,1.32,1.067,1.067,0,0,0,.963.475Zm4.395-4.23q.1-.019.2-.028t.2-.009a1.922,1.922,0,0,1,.2.009q.089.009.2.028c.019.1.037.224.056.385a3.623,3.623,0,0,1,.028.4,1.825,1.825,0,0,1,.242-.323,1.871,1.871,0,0,1,.335-.289,1.679,1.679,0,0,1,.438-.208,1.761,1.761,0,0,1,.54-.081,1.509,1.509,0,0,1,1.233.478,2.167,2.167,0,0,1,.4,1.419v3.084a2.247,2.247,0,0,1-.236.028c-.09.006-.168.009-.236.009s-.146,0-.233-.009-.161-.016-.233-.028V96.8a1.831,1.831,0,0,0-.208-.991.738.738,0,0,0-.665-.317,1.307,1.307,0,0,0-.5.1,1.078,1.078,0,0,0-.416.3,1.443,1.443,0,0,0-.289.516,2.4,2.4,0,0,0-.109.764v2.466a2.179,2.179,0,0,1-.233.028q-.126.009-.233.009c-.071,0-.149,0-.236-.009a2.148,2.148,0,0,1-.236-.028V94.762h0Zm15.812.749h-.739l-.037-.134,1.631-1.82h.075v1.205h1.233a1.605,1.605,0,0,1,.037.36c0,.068,0,.137-.009.2s-.016.127-.028.189H125.5v2.221a4.849,4.849,0,0,0,.034.637.909.909,0,0,0,.115.366.38.38,0,0,0,.217.171,1.21,1.21,0,0,0,.345.043,1.888,1.888,0,0,0,.3-.025c.1-.016.18-.034.255-.053a1.516,1.516,0,0,1,.081.388c.009.134.016.248.016.351a3.11,3.11,0,0,1-.4.071,4.04,4.04,0,0,1-.447.025,1.588,1.588,0,0,1-1.068-.332,1.388,1.388,0,0,1-.385-1.1V95.507h0Zm4.814,1.916a1.588,1.588,0,0,0,.413,1.168,1.64,1.64,0,0,0,1.162.37,3.467,3.467,0,0,0,1.28-.236,1.485,1.485,0,0,1,.124.345,2.253,2.253,0,0,1,.056.4,3.048,3.048,0,0,1-.686.2,4.829,4.829,0,0,1-.829.065,3.09,3.09,0,0,1-1.137-.186,2,2,0,0,1-1.233-1.32,3.36,3.36,0,0,1-.143-1.009,3.605,3.605,0,0,1,.137-1.009,2.32,2.32,0,0,1,.422-.817,2.05,2.05,0,0,1,.717-.55,2.357,2.357,0,0,1,1.019-.205,2.109,2.109,0,0,1,.882.171,1.827,1.827,0,0,1,.637.469,1.994,1.994,0,0,1,.388.711,2.877,2.877,0,0,1,.134.9q0,.135-.009.28t-.019.252h-3.311Zm2.41-.7a1.813,1.813,0,0,0-.071-.506,1.31,1.31,0,0,0-.208-.422,1,1,0,0,0-.351-.289,1.116,1.116,0,0,0-.506-.109,1.128,1.128,0,0,0-.888.351,1.734,1.734,0,0,0-.376.978h2.4Z" transform="translate(-0.869 -63.901)" fill="#a7a9ac"/>
  <path id="Path_10" data-name="Path 10" d="M253.186,98.627a1.535,1.535,0,0,1,.134.332,1.824,1.824,0,0,1,.065.407,3.5,3.5,0,0,1-1.28.217,2.332,2.332,0,0,1-1.829-.686,2.685,2.685,0,0,1-.618-1.854,3.193,3.193,0,0,1,.152-1.006,2.331,2.331,0,0,1,.45-.808,2.136,2.136,0,0,1,.745-.54,2.508,2.508,0,0,1,1.034-.2,4.656,4.656,0,0,1,.7.047,2.725,2.725,0,0,1,.578.152,2,2,0,0,1-.043.376,1.67,1.67,0,0,1-.118.376,3.208,3.208,0,0,0-1.062-.161,1.268,1.268,0,0,0-1.09.485,2.1,2.1,0,0,0-.36,1.28,1.874,1.874,0,0,0,.407,1.332,1.482,1.482,0,0,0,1.118.422,3.493,3.493,0,0,0,.528-.037,2.241,2.241,0,0,0,.488-.134Zm2.177-6.109a2.177,2.177,0,0,1,.233-.028c.087-.006.161-.009.233-.009a2.137,2.137,0,0,1,.236.009c.087.009.168.016.236.028v2.826a2.437,2.437,0,0,1,.214-.286,1.449,1.449,0,0,1,.314-.28,1.644,1.644,0,0,1,.426-.208,1.711,1.711,0,0,1,.537-.081,1.531,1.531,0,0,1,1.239.478,2.149,2.149,0,0,1,.4,1.419v3.084a2.187,2.187,0,0,1-.233.028q-.126.009-.233.009c-.071,0-.146,0-.233-.009s-.162-.016-.233-.028V96.645a1.737,1.737,0,0,0-.224-.991.775.775,0,0,0-.677-.317,1.4,1.4,0,0,0-.494.09,1.054,1.054,0,0,0-.416.286,1.4,1.4,0,0,0-.286.506,2.45,2.45,0,0,0-.106.758v2.494a2.252,2.252,0,0,1-.236.028c-.09.006-.168.009-.236.009s-.14,0-.227-.009a2.251,2.251,0,0,1-.236-.028V92.517h0Zm6.389,2.087q.1-.019.2-.028t.2-.009a1.923,1.923,0,0,1,.2.009q.089.009.2.028c.019.1.037.224.056.385a3.64,3.64,0,0,1,.028.4,1.821,1.821,0,0,1,.242-.323,1.871,1.871,0,0,1,.335-.289,1.709,1.709,0,0,1,.435-.208,1.761,1.761,0,0,1,.54-.081,1.509,1.509,0,0,1,1.233.478,2.167,2.167,0,0,1,.4,1.419v3.084a2.246,2.246,0,0,1-.236.028c-.09.006-.168.009-.236.009s-.146,0-.233-.009-.162-.016-.233-.028V96.648a1.831,1.831,0,0,0-.208-.991.738.738,0,0,0-.665-.317,1.307,1.307,0,0,0-.5.1,1.078,1.078,0,0,0-.416.3,1.442,1.442,0,0,0-.289.516,2.394,2.394,0,0,0-.109.764v2.466a2.179,2.179,0,0,1-.233.028q-.126.009-.233.009c-.071,0-.149,0-.236-.009a2.149,2.149,0,0,1-.236-.028V94.611h0Zm8.352,4.979a2.38,2.38,0,0,1-1-.2,1.954,1.954,0,0,1-.711-.537,2.252,2.252,0,0,1-.422-.808,3.489,3.489,0,0,1-.137-1.006,3.6,3.6,0,0,1,.137-1.006,2.279,2.279,0,0,1,.422-.808,2.033,2.033,0,0,1,.711-.54,2.6,2.6,0,0,1,1.994,0,2.033,2.033,0,0,1,.711.54,2.251,2.251,0,0,1,.422.808,3.487,3.487,0,0,1,.137,1.006,3.6,3.6,0,0,1-.137,1.006,2.277,2.277,0,0,1-.422.808,1.988,1.988,0,0,1-.711.537,2.379,2.379,0,0,1-1,.2Zm0-.749a1.081,1.081,0,0,0,.969-.475,2.384,2.384,0,0,0,.314-1.32,2.354,2.354,0,0,0-.314-1.314,1.08,1.08,0,0,0-.969-.469,1.065,1.065,0,0,0-.963.469,2.39,2.39,0,0,0-.308,1.314,2.42,2.42,0,0,0,.308,1.32,1.063,1.063,0,0,0,.963.475Zm4.376-6.318a2.178,2.178,0,0,1,.233-.028c.087-.006.161-.009.233-.009a2.084,2.084,0,0,1,.233.009q.126.009.233.028V98a1.463,1.463,0,0,0,.047.416.551.551,0,0,0,.127.233.384.384,0,0,0,.189.106,1.093,1.093,0,0,0,.233.025q.084,0,.2-.009a1.324,1.324,0,0,0,.186-.028,2.936,2.936,0,0,1,.087.721,1.269,1.269,0,0,1-.323.062c-.127.009-.242.016-.351.016a1.929,1.929,0,0,1-.512-.065,1.089,1.089,0,0,1-.416-.217,1.044,1.044,0,0,1-.286-.407,1.715,1.715,0,0,1-.106-.637v-5.69h0Zm5.715,7.066a2.38,2.38,0,0,1-1-.2,1.954,1.954,0,0,1-.711-.537,2.252,2.252,0,0,1-.422-.808,3.487,3.487,0,0,1-.137-1.006,3.6,3.6,0,0,1,.137-1.006,2.278,2.278,0,0,1,.422-.808,2.033,2.033,0,0,1,.711-.54,2.6,2.6,0,0,1,1.994,0,2.033,2.033,0,0,1,.711.54,2.252,2.252,0,0,1,.422.808,3.488,3.488,0,0,1,.137,1.006,3.6,3.6,0,0,1-.137,1.006,2.278,2.278,0,0,1-.422.808,1.989,1.989,0,0,1-.711.537,2.379,2.379,0,0,1-1,.2Zm0-.749a1.081,1.081,0,0,0,.969-.475,2.384,2.384,0,0,0,.314-1.32,2.354,2.354,0,0,0-.314-1.314,1.08,1.08,0,0,0-.969-.469,1.065,1.065,0,0,0-.963.469,2.39,2.39,0,0,0-.308,1.314,2.42,2.42,0,0,0,.308,1.32,1.063,1.063,0,0,0,.963.475Zm6.957.009a1.87,1.87,0,0,1,1.224.36,1.2,1.2,0,0,1,.379.938,1.266,1.266,0,0,1-.2.7,1.8,1.8,0,0,1-.55.531,2.8,2.8,0,0,1-.829.342,4.383,4.383,0,0,1-1.037.118,2.969,2.969,0,0,1-1.491-.3,1.031,1.031,0,0,1-.513-.957,1.207,1.207,0,0,1,.208-.7,1.51,1.51,0,0,1,.54-.488,1.149,1.149,0,0,1-.317-.307.779.779,0,0,1-.127-.46,1.156,1.156,0,0,1,.155-.606,1.672,1.672,0,0,1,.422-.457,1.638,1.638,0,0,1-.5-.565,1.587,1.587,0,0,1-.189-.783,1.685,1.685,0,0,1,.134-.674,1.605,1.605,0,0,1,.385-.547,1.829,1.829,0,0,1,.621-.367,2.448,2.448,0,0,1,.845-.134,2.245,2.245,0,0,1,.773.124,2.1,2.1,0,0,1,.593.314,1.517,1.517,0,0,1,.512-.252,2.445,2.445,0,0,1,.711-.1,1.966,1.966,0,0,1,.037.4c0,.068,0,.143-.009.217s-.016.152-.028.227h-.854a1.388,1.388,0,0,1,.162.351,1.563,1.563,0,0,1,.056.438,1.659,1.659,0,0,1-.143.7,1.563,1.563,0,0,1-.4.537,1.851,1.851,0,0,1-.621.342,2.542,2.542,0,0,1-.786.118,2.586,2.586,0,0,1-.7-.087.894.894,0,0,0-.261.233.533.533,0,0,0-.127.335.406.406,0,0,0,.124.3.822.822,0,0,0,.55.137l1.261.019h0Zm-1.28.749a.79.79,0,0,0-.64.227.82.82,0,0,0-.214.568.633.633,0,0,0,.084.342.606.606,0,0,0,.242.214,1.231,1.231,0,0,0,.37.115,3.107,3.107,0,0,0,.469.034,2.348,2.348,0,0,0,1.186-.252.728.728,0,0,0,.425-.631.53.53,0,0,0-.18-.435,1.093,1.093,0,0,0-.665-.161L285.87,99.6h0Zm.438-2.373a.95.95,0,0,0,.758-.286,1.07,1.07,0,0,0,.245-.73,1.117,1.117,0,0,0-.245-.745.941.941,0,0,0-.758-.289.93.93,0,0,0-.755.289,1.121,1.121,0,0,0-.242.745,1.073,1.073,0,0,0,.242.73.939.939,0,0,0,.755.286Zm6.038,2.258a1.321,1.321,0,0,0-.155.006c-.053,0-.106.006-.155.006s-.13,0-.2-.006a1.152,1.152,0,0,1-.171-.016L290.057,94.6a2.208,2.208,0,0,1,.255-.025c.09,0,.171-.006.245-.006s.174,0,.276.006a1.718,1.718,0,0,1,.255.025l1.348,4.525,1.395-4.525a3.412,3.412,0,0,1,.466-.028c.068,0,.149,0,.236.006a2.591,2.591,0,0,1,.267.025l-1.889,5.852a4.524,4.524,0,0,1-.276.655,1.517,1.517,0,0,1-.323.426,1.026,1.026,0,0,1-.4.227,1.841,1.841,0,0,1-.516.065,2.858,2.858,0,0,1-.432-.034,3.017,3.017,0,0,1-.376-.081,1.81,1.81,0,0,1,.037-.388,1.639,1.639,0,0,1,.115-.342,2.317,2.317,0,0,0,.233.062,1.478,1.478,0,0,0,.317.034,1.138,1.138,0,0,0,.233-.025.515.515,0,0,0,.205-.1.74.74,0,0,0,.177-.2,1.852,1.852,0,0,0,.155-.36l.3-.919h0ZM168.22,97.627a1.176,1.176,0,0,1,.1-.478,1.156,1.156,0,0,1,.261-.388,1.187,1.187,0,0,1,.388-.261,1.229,1.229,0,0,1,.478-.1,1.151,1.151,0,0,1,.475.1,1.207,1.207,0,0,1,.385.261,1.187,1.187,0,0,1,.261.388,1.229,1.229,0,0,1,.1.478,1.175,1.175,0,0,1-.1.478,1.156,1.156,0,0,1-.261.388,1.209,1.209,0,0,1-.86.357,1.176,1.176,0,0,1-.478-.1,1.155,1.155,0,0,1-.388-.261,1.187,1.187,0,0,1-.261-.388,1.23,1.23,0,0,1-.1-.478Zm64.216,0a1.175,1.175,0,0,1,.1-.478,1.156,1.156,0,0,1,.261-.388,1.187,1.187,0,0,1,.388-.261,1.229,1.229,0,0,1,.478-.1,1.15,1.15,0,0,1,.475.1,1.207,1.207,0,0,1,.385.261,1.187,1.187,0,0,1,.261.388,1.228,1.228,0,0,1,.1.478,1.175,1.175,0,0,1-.1.478,1.155,1.155,0,0,1-.261.388,1.209,1.209,0,0,1-.86.357,1.176,1.176,0,0,1-.478-.1,1.155,1.155,0,0,1-.388-.261,1.187,1.187,0,0,1-.261-.388,1.23,1.23,0,0,1-.1-.478Z" transform="translate(-115.972 -63.756)" fill="#a7a9ac"/>
  <path id="Path_11" data-name="Path 11" d="M1.8,24.64H6.477V42.071a14.511,14.511,0,0,1-2.361.2,14.106,14.106,0,0,1-2.326-.2V29.116H1.8V24.64h0Z" transform="translate(-1.234 -16.987)" fill="#a7a9ac"/>
  <path id="Path_12" data-name="Path 12" d="M0,0H5.8L2.9,5.466,0,0Z" fill="#1c1f66" fill-rule="evenodd"/>
  <path id="Path_13" data-name="Path 13" d="M253.669,24.64h4.678V42.071a14.511,14.511,0,0,1-2.361.2,14.106,14.106,0,0,1-2.326-.2V29.116h.009V24.64Z" transform="translate(-174.874 -16.987)" fill="#a7a9ac"/>
  <path id="Path_14" data-name="Path 14" d="M251.87,0h5.8l-2.9,5.466L251.87,0Z" transform="translate(-173.64)" fill="#1c1f66" fill-rule="evenodd"/>
  <path id="Path_15" data-name="Path 15" d="M379.786,20.88a9.092,9.092,0,0,1,2.323.3l-1.432,2.867a6.063,6.063,0,0,0-.895-.068,5.865,5.865,0,0,0-4.109,10.088v.006h0a5.9,5.9,0,0,0,9.837-5.653l2.771-1.59a8.873,8.873,0,0,1,.525,3.025,9.023,9.023,0,1,1-9.023-8.973h0Z" transform="translate(-255.604 -14.395)" fill="#a7a9ac" fill-rule="evenodd"/>
  <path id="Path_16" data-name="Path 16" d="M389.955,35.53a4.516,4.516,0,0,1,1.205.165l-.677,1.419a2.955,2.955,0,0,0-.528-.047,2.885,2.885,0,1,0,2.9,2.885,2.949,2.949,0,0,0-.1-.764l1.37-.773a4.355,4.355,0,0,1,.276,1.537,4.445,4.445,0,1,1-4.445-4.423h0Z" transform="translate(-265.772 -24.495)" fill="#1c1f66" fill-rule="evenodd"/>
  <path id="Path_17" data-name="Path 17" d="M402.219,23.54a8.9,8.9,0,0,1,4.153,3.87l-8.532,4.9,4.379-8.771h0Z" transform="translate(-274.273 -16.229)" fill="#1c1f66" fill-rule="evenodd"/>
  <path id="Path_18" data-name="Path 18" d="M581.7,10.184c.112-.012.224-.025.329-.031s.224-.012.348-.012a1.851,1.851,0,0,1,.429.047,1.027,1.027,0,0,1,.335.137.638.638,0,0,1,.22.242.74.74,0,0,1,.081.351.731.731,0,0,1-.143.472.95.95,0,0,1-.314.264l.683,1.034a1.119,1.119,0,0,1-.165.016c-.05,0-.1,0-.146,0a1.633,1.633,0,0,1-.255-.019l-.742-1.159.13-.059a1.174,1.174,0,0,0,.295-.193.391.391,0,0,0,.14-.311.345.345,0,0,0-.137-.292.581.581,0,0,0-.357-.106c-.034,0-.071,0-.112,0a.675.675,0,0,0-.13.016v2.1a1.325,1.325,0,0,1-.242.019,1.578,1.578,0,0,1-.255-.019V10.184h0Zm.8,3.292a2.044,2.044,0,0,0,.814-.155,1.858,1.858,0,0,0,.609-.422,1.833,1.833,0,0,0,.385-.631,2.243,2.243,0,0,0,.134-.786,2.209,2.209,0,0,0-.134-.78,1.833,1.833,0,0,0-.385-.631,1.813,1.813,0,0,0-.609-.422,1.991,1.991,0,0,0-.814-.155,2.039,2.039,0,0,0-.811.155,1.8,1.8,0,0,0-.609.422,1.874,1.874,0,0,0-.382.631,2.221,2.221,0,0,0-.134.78,2.256,2.256,0,0,0,.134.786,1.826,1.826,0,0,0,.382.631,1.754,1.754,0,0,0,.609.422,1.987,1.987,0,0,0,.811.155Zm0,.422a2.518,2.518,0,0,1-.985-.186,2.223,2.223,0,0,1-1.252-1.27,2.7,2.7,0,0,1,0-1.923,2.217,2.217,0,0,1,1.252-1.273,2.529,2.529,0,0,1,.985-.186,2.573,2.573,0,0,1,.984.183,2.238,2.238,0,0,1,.761.506,2.322,2.322,0,0,1,.491.767,2.706,2.706,0,0,1,0,1.926,2.277,2.277,0,0,1-.491.764,2.238,2.238,0,0,1-.761.506,2.528,2.528,0,0,1-.984.186h0Z" transform="translate(-399.917 -6.246)" fill="#231f20"/>
</svg>
