<svg xmlns="http://www.w3.org/2000/svg" width="18.183" height="19.397" viewBox="0 0 18.183 19.397">
  <path id="Path_237" data-name="Path 237" d="M14.346,19.392c-.138-.035-.279-.067-.417-.1a3.393,3.393,0,0,1-2.544-2.835,3.229,3.229,0,0,1,.094-1.345c.012-.035.016-.071.028-.126Q8.841,13.622,6.183,12.26a3.42,3.42,0,1,1-.22-4.246q2.8-1.687,5.611-3.377a3.433,3.433,0,1,1,.594.983Q9.378,7.3,6.565,8.993a3.245,3.245,0,0,1,.094,2.214c1.785.916,3.566,1.824,5.363,2.744.051-.059.1-.114.149-.169a3.294,3.294,0,0,1,2.886-1.2,3.411,3.411,0,0,1,.771,6.637c-.212.071-.436.114-.653.169h-.834Z" transform="translate(0.008 0.005)" fill="#ffa1a1"/>
</svg>
