<svg xmlns="http://www.w3.org/2000/svg" width="9.188" height="10.34" viewBox="0 0 9.188 10.34">
  <path id="Path_1338" data-name="Path 1338" d="M15.7,5.179V8.733a1.561,1.561,0,0,1-1.107,1.531,1.709,1.709,0,0,1-.461.074c-2.012,0-4.025.005-6.043,0A1.574,1.574,0,0,1,6.51,8.765V1.578A1.577,1.577,0,0,1,8.093,0h5.99A1.57,1.57,0,0,1,15.7,1.615V5.179Zm-.869-.011V1.631a.716.716,0,0,0-.763-.768H8.146a.718.718,0,0,0-.773.773V8.7a.723.723,0,0,0,.773.773h5.9a.969.969,0,0,0,.175-.011.709.709,0,0,0,.6-.741V5.169Z" transform="translate(-6.51)" fill="#fff"/>
</svg>
