<svg xmlns="http://www.w3.org/2000/svg" width="19.548" height="20.561" viewBox="0 0 19.548 20.561">
  <path id="Path_225" data-name="Path 225" d="M2.038,4.532H1.321c-.212,0-.422.006-.634-.006a.757.757,0,0,1-.692-.682.743.743,0,0,1,.554-.795,1.587,1.587,0,0,1,.37-.035q2.4,0,4.812-.006H6V2.633a6.791,6.791,0,0,1,.039-.959A1.984,1.984,0,0,1,8,.01C9.174,0,10.345,0,11.52.01a2,2,0,0,1,2.008,2.044V3h.283c1.6,0,3.206,0,4.812.01a1.387,1.387,0,0,1,.415.051.755.755,0,0,1,.5.814.74.74,0,0,1-.676.64c-.36.019-.721.006-1.078.01H17.5c-.026.331-.048.64-.068.949q-.188,2.94-.37,5.877c-.084,1.365-.164,2.732-.251,4.1-.055.843-.084,1.69-.187,2.526a3.015,3.015,0,0,1-2.61,2.546,5.507,5.507,0,0,1-.608.035q-3.683,0-7.367,0a3.061,3.061,0,0,1-3.106-2.691c-.071-.5-.077-1.014-.109-1.519q-.135-2.047-.27-4.1c-.071-1.062-.135-2.121-.2-3.183Q2.223,7.1,2.09,5.137c-.013-.193-.026-.386-.039-.608Zm1.593.045c0,.171-.006.331,0,.492.019.373.051.75.074,1.123.1,1.732.2,3.466.3,5.2q.179,3.08.367,6.16a1.473,1.473,0,0,0,1.02,1.384,1.993,1.993,0,0,0,.692.1c2.449.006,4.9,0,7.344,0a3.2,3.2,0,0,0,.351-.019,1.548,1.548,0,0,0,1.377-1.455q.183-2.94.37-5.877.212-3.394.422-6.791c.006-.1,0-.2,0-.322H3.632Zm3.885-1.6h4.493V2.234c0-.537-.119-.653-.666-.657H8.672c-.235,0-.47-.006-.7,0a.433.433,0,0,0-.451.467c-.006.306,0,.608,0,.93Z" transform="translate(0.008)" fill="#fff"/>
</svg>
