<svg xmlns="http://www.w3.org/2000/svg" width="35.879" height="35.877" viewBox="0 0 35.879 35.877">
  <path id="Union_1" data-name="Union 1" d="M-1966.345,43.212a17.51,17.51,0,0,1-12.922-7.582,17.21,17.21,0,0,1-3.183-12.067,17.334,17.334,0,0,1,8.6-13.608,17.215,17.215,0,0,1,10.1-2.484,17.7,17.7,0,0,1,9.813,3.547c.38.285.76.58,1.134.869l1.692,1.692c.042.071.081.138.128.2.58.807,1.222,1.572,1.736,2.417a17.555,17.555,0,0,1,2.558,10.109,17.493,17.493,0,0,1-3.47,9.8c-.288.392-.59.77-.883,1.158l-1.682,1.682c-.076.047-.161.094-.232.147-.435.33-.851.689-1.3,1a17.305,17.305,0,0,1-10.073,3.232A18.851,18.851,0,0,1-1966.345,43.212Zm12.479-7.111a15.142,15.142,0,0,0-.072-21.392,15.145,15.145,0,0,0-21.42-.053,15.15,15.15,0,0,0,.071,21.421l.005,0A15.144,15.144,0,0,0-1953.866,36.1Zm-6.542-4.615c-1.268-1.249-2.522-2.523-3.78-3.781l-.347-.347.01.011-.317.317-3.7,3.7a1.508,1.508,0,0,1-1.392.481,1.459,1.459,0,0,1-.852-2.368,3.592,3.592,0,0,1,.328-.347l3.548-3.547.311-.312-.3-.3-3.781-3.78a1.428,1.428,0,0,1-.252-1.779,1.443,1.443,0,0,1,2.031-.5,3.017,3.017,0,0,1,.476.4l3.547,3.548.347.347.317-.317,3.7-3.7a1.474,1.474,0,0,1,1.8-.318,1.463,1.463,0,0,1,.317,2.339c-.649.679-1.328,1.327-1.992,1.992L-1962.172,25l-.292.292.321.322,3.573,3.573a2.473,2.473,0,0,1,.465.6,1.433,1.433,0,0,1-.426,1.8,1.49,1.49,0,0,1-.887.3A1.392,1.392,0,0,1-1960.408,31.486Z" transform="translate(1982.553 -7.443)" fill="#4bae00"/>
</svg>
