<svg id="Group_78" data-name="Group 78" xmlns="http://www.w3.org/2000/svg" width="14.008" height="9.64" viewBox="0 0 14.008 9.64">
  <path id="Path_57" data-name="Path 57" d="M191.821,41.811l-4.587-2.9q-.06-.037-.134-.089c.04-.03.065-.055.094-.074q2.278-1.5,4.557-3c.025-.015.05-.025.069-.04Z" transform="translate(-177.813 -33.928)" fill="#1c1f66"/>
  <path id="Path_58" data-name="Path 58" d="M.5.755A.855.855,0,0,1,1.4,0H13.545A.855.855,0,0,1,14.4.556c.025.06.035.119.06.194q-3.492,2.3-6.989,4.6Q3.99,3.05.5.755Z" transform="translate(-0.475)" fill="#1c1f66"/>
  <path id="Path_59" data-name="Path 59" d="M14.359,112.58a.869.869,0,0,1-.913.745H1.313A.87.87,0,0,1,.4,112.58q2.74-1.735,5.5-3.48c.04.025.084.05.124.079.352.228.7.457,1.047.695a.5.5,0,0,0,.62,0c.382-.258.774-.511,1.171-.774Q11.614,110.842,14.359,112.58Z" transform="translate(-0.38 -103.684)" fill="#1c1f66"/>
  <path id="Path_60" data-name="Path 60" d="M0,35.8l4.726,3.112C3.147,39.915,1.579,40.9,0,41.9Z" transform="translate(0 -34.023)" fill="#1c1f66"/>
</svg>
