<svg xmlns="http://www.w3.org/2000/svg" width="42" height="30" viewBox="0 0 42 30">
  <g id="Group_424" data-name="Group 424" transform="translate(0 0)">
    <path id="Path_215" data-name="Path 215" d="M0,2.307c.037-.11.073-.229.11-.339a2.765,2.765,0,0,1,5.411.787A2.79,2.79,0,0,1,3.122,5.5,2.76,2.76,0,0,1,.128,3.6C.092,3.488.046,3.387,0,3.278V2.316Z" transform="translate(0 0)" fill="#a7a9ac"/>
    <path id="Path_216" data-name="Path 216" d="M0,30.072c.046-.11.092-.22.128-.33A2.755,2.755,0,1,1,.11,31.381c-.037-.11-.073-.229-.11-.339v-.961Z" transform="translate(0 -3.35)" fill="#a7a9ac"/>
    <path id="Path_217" data-name="Path 217" d="M0,16.19c.037-.11.082-.22.119-.33a2.774,2.774,0,0,1,3.1-1.913,2.767,2.767,0,0,1,0,5.456,2.776,2.776,0,0,1-3.1-1.913c-.037-.11-.082-.22-.119-.33V16.2Z" transform="translate(0 -1.675)" fill="#a7a9ac"/>
    <path id="Path_218" data-name="Path 218" d="M26.211,18.8H12.7a2.187,2.187,0,0,1-1.9-.851,2.043,2.043,0,0,1,1.364-3.232,3.815,3.815,0,0,1,.558-.037H39.752a2.083,2.083,0,0,1,2.27,1.675,2.05,2.05,0,0,1-1.657,2.408,4.722,4.722,0,0,1-.723.046H26.211Z" transform="translate(-0.063 -1.74)" fill="#a7a9ac"/>
    <path id="Path_219" data-name="Path 219" d="M26.258,4.7H12.671a2.253,2.253,0,0,1-1.5-.458A2.059,2.059,0,0,1,12.342.59c.146-.009.293,0,.439,0H39.67a3.569,3.569,0,0,1,.989.119,2.045,2.045,0,0,1-.586,3.983c-.4.018-.806,0-1.208,0H26.248Z" transform="translate(-0.063 -0.049)" fill="#a7a9ac"/>
    <path id="Path_220" data-name="Path 220" d="M26.248,28.77H39.871a2.059,2.059,0,1,1,.256,4.111H12.634A2.054,2.054,0,0,1,10.611,31.7a2.027,2.027,0,0,1,1.813-2.921c2.655-.027,5.3,0,7.956-.009h5.868Z" transform="translate(-0.063 -3.43)" fill="#a7a9ac"/>
  </g>
</svg>
