<svg id="Group_434" data-name="Group 434" xmlns="http://www.w3.org/2000/svg" width="17.728" height="17.712" viewBox="0 0 17.728 17.712">
  <path id="Path_223" data-name="Path 223" d="M0,5.652a4.049,4.049,0,0,1,.116-.393A1.859,1.859,0,0,1,1.793,4.016c.085-.006.173-.006.258-.006H9.32a2.079,2.079,0,0,1,.242.009A.628.628,0,0,1,9.54,5.271c-.075.006-.151,0-.226,0H2.045a1.442,1.442,0,0,0-.308.028.6.6,0,0,0-.462.538c-.006.075-.006.151-.006.223V18.407a2.357,2.357,0,0,0,.009.258.611.611,0,0,0,.525.519,2.052,2.052,0,0,0,.242.009h11.1a2.078,2.078,0,0,0,.242-.009.611.611,0,0,0,.528-.538,2.058,2.058,0,0,0,.006-.242V12.38a1.321,1.321,0,0,1,.022-.274.625.625,0,0,1,1.22-.035,1.3,1.3,0,0,1,.028.293v6.093a1.9,1.9,0,0,1-1.614,1.982.192.192,0,0,0-.044.022H1.661a.884.884,0,0,0-.1-.031A1.878,1.878,0,0,1,.145,19.291,3.584,3.584,0,0,1,0,18.809Z" transform="translate(0 -2.749)" fill="#a7a9ac"/>
  <path id="Path_224" data-name="Path 224" d="M26.013,2.52a2.459,2.459,0,0,1-.786,1.692Q22.1,7.331,18.983,10.452c-.645.645-1.286,1.293-1.938,1.931a1.19,1.19,0,0,1-.431.271c-1.2.409-2.4.805-3.6,1.2a.694.694,0,0,1-.676-.069.647.647,0,0,1-.2-.78c.264-.8.532-1.595.8-2.394.135-.406.258-.812.409-1.211a1.241,1.241,0,0,1,.277-.447C16.351,6.225,19.087,3.5,21.808.764A2.456,2.456,0,0,1,25.063.494,2.487,2.487,0,0,1,26.013,2.52ZM13.727,12.277a.713.713,0,0,0,.094-.025c.758-.255,1.519-.506,2.277-.764a.546.546,0,0,0,.192-.135q4.015-4.01,8.027-8.027a1.843,1.843,0,0,0,.2-.22,1.1,1.1,0,0,0,.126-1.161,1.093,1.093,0,0,0-.953-.67,1.208,1.208,0,0,0-1,.415Q18.779,5.6,14.863,9.5a1.818,1.818,0,0,0-.472.761c-.2.664-.434,1.321-.664,2.007Z" transform="translate(-8.286 0)" fill="#a7a9ac"/>
</svg>
