<svg xmlns="http://www.w3.org/2000/svg" width="108.819" height="106.755" viewBox="0 0 108.819 106.755">
  <g id="Group_137" data-name="Group 137" transform="translate(-0.002 0.01)">
    <g id="Layer_1" data-name="Layer 1" transform="translate(0.002 -0.01)">
      <g id="Group_136" data-name="Group 136" transform="translate(0 0)">
        <path id="Path_215" data-name="Path 215" d="M42.848,411.579a14.779,14.779,0,0,1,11.719-11.407L144.19,383.32l3.427,18.228a11.013,11.013,0,0,1-8.788,12.858l-78.8,14.817q-.581.109-1.158.171A14.788,14.788,0,0,1,42.849,411.58Z" transform="translate(-38.99 -351.518)" fill="#ff5656"/>
        <path id="Path_216" data-name="Path 216" d="M5.158,762.724l6.528,4.462,12.92-25.651c-5.557-3.805-11.115-7.591-14.163-9.609a14.624,14.624,0,0,1-4.285-4.3,14.286,14.286,0,0,1-2.3-7.448c-.018.115-.337,2.224-.786,5.337-.959,6.619-2.507,17.772-3,23.946C-.671,758.624,5.158,762.724,5.158,762.724Z" transform="translate(-0.002 -660.431)" fill="#3b3a4a"/>
        <g id="Group_132" data-name="Group 132" transform="translate(14.485 40.368)">
          <path id="Path_217" data-name="Path 217" d="M179.906,689.541l-1.724-6.395-1.206.227.035,6.713-2.325.438-.085-16.261,3.641-.687a2.99,2.99,0,0,1,2.66.557,3.349,3.349,0,0,1,1,2.637l.009,1.789a4.982,4.982,0,0,1-.407,2.053,4.187,4.187,0,0,1-1.177,1.57l1.99,6.9Zm-2.943-8.49,1.206-.227a1.686,1.686,0,0,0,1.05-.593,1.822,1.822,0,0,0,.367-1.185l-.01-1.882a1.321,1.321,0,0,0-.379-1.044,1.2,1.2,0,0,0-1.054-.2l-1.206.227.026,4.9Z" transform="translate(-174.6 -657.985)" fill="#bd4b22"/>
          <path id="Path_218" data-name="Path 218" d="M282.99,648.584l6.6-1.244.012,2.323-4.277.806.024,4.53,3.4-.641.012,2.323-3.4.641.025,4.762,4.277-.806.012,2.323-6.6,1.244-.085-16.261Z" transform="translate(-273.998 -634.001)" fill="#bd4b22"/>
          <path id="Path_219" data-name="Path 219" d="M378.4,648.8a3.276,3.276,0,0,1-1.024-2.6l-.047-9.013a4.594,4.594,0,0,1,.994-2.978,4.257,4.257,0,0,1,2.627-1.565,2.981,2.981,0,0,1,2.637.572,3.277,3.277,0,0,1,1.024,2.6l.01,1.9-2.281.43-.01-1.9a1.368,1.368,0,0,0-.378-1.045,1.059,1.059,0,0,0-.967-.236,1.53,1.53,0,0,0-.963.6,1.887,1.887,0,0,0-.367,1.186l.047,9.013a1.367,1.367,0,0,0,.378,1.044,1.056,1.056,0,0,0,.967.236,1.533,1.533,0,0,0,.963-.6,1.885,1.885,0,0,0,.367-1.185l-.012-2.323,2.281-.43.012,2.323a4.593,4.593,0,0,1-.995,2.978,4.256,4.256,0,0,1-2.627,1.565,2.98,2.98,0,0,1-2.637-.573Z" transform="translate(-360.51 -620.454)" fill="#bd4b22"/>
          <path id="Path_220" data-name="Path 220" d="M483.912,628.663a3.321,3.321,0,0,1-1.046-2.651l-.046-8.874a4.66,4.66,0,0,1,1.016-3.041,4.379,4.379,0,0,1,2.692-1.589,3.078,3.078,0,0,1,2.7.572,3.322,3.322,0,0,1,1.046,2.652l.046,8.874a4.655,4.655,0,0,1-1.016,3.04,4.381,4.381,0,0,1-2.692,1.589,3.077,3.077,0,0,1-2.7-.572Zm3.72-2.364a2,2,0,0,0,.367-1.255l-.046-8.874a1.467,1.467,0,0,0-.379-1.114,1.133,1.133,0,0,0-1.033-.224,1.617,1.617,0,0,0-1.029.612,2,2,0,0,0-.367,1.255l.046,8.874a1.464,1.464,0,0,0,.379,1.114,1.13,1.13,0,0,0,1.033.224A1.617,1.617,0,0,0,487.632,626.3Z" transform="translate(-457.248 -601.984)" fill="#bd4b22"/>
          <path id="Path_221" data-name="Path 221" d="M604.722,579.631l.086,16.261-2.325.438-.058-11.15-2.113,11.56-1.623.306-2.23-10.741.058,11.15-2.281.43-.085-16.261,3.29-.621,2.072,10,1.876-10.748,3.333-.629Z" transform="translate(-559.343 -571.909)" fill="#bd4b22"/>
          <path id="Path_222" data-name="Path 222" d="M745.64,561.344l6.6-1.245.012,2.323-4.277.806.024,4.53,3.4-.641.012,2.323-3.4.641.025,4.762,4.277-.806.013,2.323-6.6,1.244-.085-16.261Z" transform="translate(-698.265 -553.999)" fill="#bd4b22"/>
          <path id="Path_223" data-name="Path 223" d="M842.121,540.642l2.566-.484,3.018,10.36-.057-10.918,2.281-.43.086,16.261-2.456.463-3.125-9.828.055,10.407-2.281.43-.085-16.261Z" transform="translate(-786.74 -534.806)" fill="#bd4b22"/>
          <path id="Path_224" data-name="Path 224" d="M960.3,526.113l3.641-.686a2.991,2.991,0,0,1,2.66.557,3.348,3.348,0,0,1,1,2.637l.045,8.5a4.657,4.657,0,0,1-.972,3.008,4.251,4.251,0,0,1-2.648,1.557l-3.641.686Zm3.6,13.272a1.69,1.69,0,0,0,1.051-.593,1.826,1.826,0,0,0,.367-1.185l-.045-8.595a1.321,1.321,0,0,0-.379-1.045,1.2,1.2,0,0,0-1.055-.2l-1.206.227.061,11.615Z" transform="translate(-895.116 -522.126)" fill="#bd4b22"/>
          <path id="Path_225" data-name="Path 225" d="M1069.49,500.275l6.6-1.245.012,2.323-4.277.806.024,4.53,3.4-.641.013,2.323-3.4.641.025,4.762,4.277-.806.013,2.323-6.6,1.245-.085-16.261Z" transform="translate(-995.247 -497.996)" fill="#bd4b22"/>
          <path id="Path_226" data-name="Path 226" d="M1165.98,487.333l3.641-.686a2.99,2.99,0,0,1,2.66.557,3.348,3.348,0,0,1,1,2.637l.045,8.5a4.658,4.658,0,0,1-.972,3.008,4.252,4.252,0,0,1-2.648,1.557l-3.641.686Zm3.6,13.272a1.687,1.687,0,0,0,1.05-.593,1.827,1.827,0,0,0,.367-1.186l-.045-8.595a1.321,1.321,0,0,0-.379-1.045,1.2,1.2,0,0,0-1.054-.2l-1.206.227.061,11.615,1.206-.227Z" transform="translate(-1083.732 -486.563)" fill="#bd4b22"/>
        </g>
        <g id="Group_133" data-name="Group 133" transform="translate(13.754 39.031)">
          <path id="Path_227" data-name="Path 227" d="M171.1,673.431l-1.724-6.395-1.206.227.035,6.713-2.325.438-.085-16.261,3.641-.687a2.99,2.99,0,0,1,2.66.557,3.348,3.348,0,0,1,1,2.637l.009,1.789a4.982,4.982,0,0,1-.407,2.053,4.2,4.2,0,0,1-1.177,1.57l1.99,6.9Zm-2.943-8.49,1.206-.227a1.69,1.69,0,0,0,1.051-.593,1.827,1.827,0,0,0,.367-1.186l-.01-1.882a1.321,1.321,0,0,0-.379-1.045,1.2,1.2,0,0,0-1.054-.2l-1.206.227Z" transform="translate(-165.79 -641.875)" fill="#fff"/>
          <path id="Path_228" data-name="Path 228" d="M274.18,632.484l6.6-1.244.012,2.323-4.277.806.024,4.53,3.4-.641.012,2.323-3.4.641.025,4.762,4.277-.806.012,2.323-6.6,1.244-.085-16.261Z" transform="translate(-265.188 -617.901)" fill="#fff"/>
          <path id="Path_229" data-name="Path 229" d="M369.6,632.7a3.276,3.276,0,0,1-1.024-2.6l-.047-9.013a4.593,4.593,0,0,1,.994-2.978,4.257,4.257,0,0,1,2.627-1.565,2.981,2.981,0,0,1,2.637.572,3.277,3.277,0,0,1,1.024,2.6l.01,1.9-2.281.43-.01-1.9a1.367,1.367,0,0,0-.378-1.044,1.059,1.059,0,0,0-.967-.237,1.531,1.531,0,0,0-.963.6,1.886,1.886,0,0,0-.367,1.185l.047,9.013a1.367,1.367,0,0,0,.378,1.044,1.056,1.056,0,0,0,.967.236,1.532,1.532,0,0,0,.963-.6,1.885,1.885,0,0,0,.367-1.186l-.012-2.323,2.281-.43.012,2.323a4.592,4.592,0,0,1-.995,2.977,4.255,4.255,0,0,1-2.627,1.565,2.98,2.98,0,0,1-2.637-.572Z" transform="translate(-351.709 -604.353)" fill="#fff"/>
          <path id="Path_230" data-name="Path 230" d="M475.1,612.572a3.321,3.321,0,0,1-1.046-2.651l-.046-8.874a4.66,4.66,0,0,1,1.016-3.04,4.382,4.382,0,0,1,2.692-1.589,3.078,3.078,0,0,1,2.7.572,3.321,3.321,0,0,1,1.046,2.651l.046,8.874a4.659,4.659,0,0,1-1.016,3.04,4.381,4.381,0,0,1-2.692,1.589A3.076,3.076,0,0,1,475.1,612.572Zm3.72-2.364a2,2,0,0,0,.367-1.255l-.046-8.874a1.467,1.467,0,0,0-.379-1.114,1.133,1.133,0,0,0-1.033-.224,1.616,1.616,0,0,0-1.029.612,2,2,0,0,0-.367,1.255l.046,8.874a1.464,1.464,0,0,0,.379,1.114,1.13,1.13,0,0,0,1.033.224A1.616,1.616,0,0,0,478.822,610.208Z" transform="translate(-448.438 -585.892)" fill="#fff"/>
          <path id="Path_231" data-name="Path 231" d="M595.922,563.521l.085,16.261-2.325.438-.058-11.15-2.113,11.56-1.623.306-2.23-10.741.058,11.15-2.281.43-.086-16.261,3.29-.621,2.072,10,1.876-10.748,3.333-.629Z" transform="translate(-550.542 -555.799)" fill="#fff"/>
          <path id="Path_232" data-name="Path 232" d="M736.83,545.235l6.6-1.245.012,2.323-4.277.806.024,4.53,3.4-.641.013,2.323-3.4.641.025,4.762,4.277-.806.012,2.323-6.6,1.245-.085-16.261Z" transform="translate(-689.455 -537.889)" fill="#fff"/>
          <path id="Path_233" data-name="Path 233" d="M833.33,524.532l2.566-.484,3.018,10.36-.057-10.918,2.281-.43.085,16.261-2.457.463-3.125-9.828.055,10.407-2.281.43Z" transform="translate(-777.949 -518.696)" fill="#fff"/>
          <path id="Path_234" data-name="Path 234" d="M951.5,510l3.641-.687a2.99,2.99,0,0,1,2.66.557,3.351,3.351,0,0,1,1,2.637l.045,8.5a4.662,4.662,0,0,1-.972,3.008,4.252,4.252,0,0,1-2.648,1.557l-3.641.687L951.5,510Zm3.6,13.273a1.686,1.686,0,0,0,1.05-.593,1.827,1.827,0,0,0,.367-1.186l-.045-8.6a1.323,1.323,0,0,0-.378-1.044,1.2,1.2,0,0,0-1.054-.2l-1.206.227L953.9,523.5Z" transform="translate(-886.315 -506.016)" fill="#fff"/>
          <path id="Path_235" data-name="Path 235" d="M1060.68,484.174l6.6-1.244.012,2.323-4.277.806.024,4.53,3.4-.641.013,2.323-3.4.641.025,4.762,4.277-.806.012,2.323-6.6,1.244-.085-16.261Z" transform="translate(-986.437 -481.895)" fill="#fff"/>
          <path id="Path_236" data-name="Path 236" d="M1157.18,471.224l3.641-.687a2.99,2.99,0,0,1,2.66.557,3.349,3.349,0,0,1,1,2.637l.045,8.5a4.662,4.662,0,0,1-.972,3.008,4.252,4.252,0,0,1-2.648,1.557l-3.641.687Zm3.6,13.273a1.687,1.687,0,0,0,1.05-.593,1.822,1.822,0,0,0,.367-1.185l-.045-8.595a1.32,1.32,0,0,0-.379-1.045,1.2,1.2,0,0,0-1.054-.2l-1.206.227.061,11.615,1.206-.227Z" transform="translate(-1074.931 -470.453)" fill="#fff"/>
        </g>
        <g id="Group_134" data-name="Group 134" transform="translate(73.699 11.456)">
          <path id="Path_237" data-name="Path 237" d="M922.27,153.286l8.191-15.206L933.113,142Z" transform="translate(-919.455 -138.08)" fill="#ff5656"/>
          <path id="Path_238" data-name="Path 238" d="M933.62,304.2l12.2-3.29.377,4.589Z" transform="translate(-929.863 -287.401)" fill="#ff5656"/>
          <path id="Path_239" data-name="Path 239" d="M889.838,184.465l-1.5-9.3,3.431.076Z" transform="translate(-888.34 -172.093)" fill="#ff5656"/>
        </g>
        <g id="Group_135" data-name="Group 135" transform="translate(13.67 26.201)">
          <path id="Path_240" data-name="Path 240" d="M178.081,339.072,165.75,328.58l-.98,4.33Z" transform="translate(-164.77 -327.521)" fill="#ff5656"/>
          <path id="Path_241" data-name="Path 241" d="M191.694,475.68l-11.774,1.279,1.234,4.136Z" transform="translate(-178.663 -462.417)" fill="#ff5656"/>
          <path id="Path_242" data-name="Path 242" d="M274.1,324.437l-1.858-8.627-2.969,1.234Z" transform="translate(-260.6 -315.81)" fill="#ff5656"/>
        </g>
        <path id="Path_243" data-name="Path 243" d="M389.744,25.565a4.939,4.939,0,0,0-1.332-5.912c-.366-.3-.568-.457-.482-1.507a5.913,5.913,0,0,0-1.622-4.627,6.454,6.454,0,0,0-4.906-1.95,14.048,14.048,0,0,0-2.136.217,9.474,9.474,0,0,0-1.065.263c-1.434.447-2.854.942-4.228,1.421l-.305.107c.032-.365.066-.728.1-1.087.071-.748.144-1.522.2-2.293a10.886,10.886,0,0,0-.616-4.71,10.9,10.9,0,0,0-2.615-3.968A5.369,5.369,0,0,0,368.863.288a4.635,4.635,0,0,0-2.521-.213,5.3,5.3,0,0,0-.94.27,5.318,5.318,0,0,0-3.173,2.87,5.943,5.943,0,0,0,.043,4.3,4.506,4.506,0,0,1-.7,4.514,23.213,23.213,0,0,0-4.7,11.775c0,.043-.008.078-.012.107a4.336,4.336,0,0,0-.494.394,4.043,4.043,0,0,0-.955.069,5.741,5.741,0,0,0-.777.207c-1.682.565-3.208,1.087-4.668,1.595a3.893,3.893,0,0,0-2.389,1.953,3.978,3.978,0,0,0-.02,3.028c.645,1.9,1.3,3.825,1.941,5.69l.748,2.193q.383,1.125.768,2.252c.645,1.892,1.312,3.848,1.971,5.771a4.16,4.16,0,0,0,1.285,1.965,3.424,3.424,0,0,0,2.87.66,5.888,5.888,0,0,0,.76-.2c1.61-.538,3.207-1.083,4.746-1.62a4.251,4.251,0,0,0,1.741-1.069,4.488,4.488,0,0,0,.848-.079c.086-.017.175-.035.263-.056l.378-.091c.449-.109.873-.212,1.3-.3a93.726,93.726,0,0,0,14.857-4.151c1.565-.62,3.412-1.38,5.242-2.3a5.478,5.478,0,0,0,2.983-5.732c-.032-.295-.08-.557-.123-.786-.03-.165-.07-.389-.072-.469,0-.172,0-.279.005-.345a9.793,9.793,0,0,0,.792-1.924,5.14,5.14,0,0,0-.181-3.379,7.877,7.877,0,0,0-.928-1.609Zm-27.175,18.71a.137.137,0,0,1,0,.017c0,.027,0,.055.007.08s0,.032,0,.047,0,.023,0,.035a.382.382,0,0,1,0,.044.332.332,0,0,1-.006.051v0a.366.366,0,0,1-.008.041.077.077,0,0,1,0,.02.293.293,0,0,1-.014.048c0,.01-.007.02-.01.029s-.008.022-.013.032a.031.031,0,0,1,0,.009.1.1,0,0,1-.01.022.58.58,0,0,1-.051.084l-.012.017-.021.027a.91.91,0,0,1-.228.191.14.14,0,0,1-.023.015c-.038.023-.078.044-.121.065l-.042.021-.082.037c-.057.023-.118.046-.182.069l-.27.094q-2.216.772-4.442,1.515a3.212,3.212,0,0,1-.4.108c-.569.107-.818-.119-1.059-.821q-1.373-4.008-2.739-8.018-1.345-3.94-2.688-7.88c-.31-.912-.179-1.2.716-1.513q2.155-.749,4.319-1.477l.322-.109a3.2,3.2,0,0,1,.41-.112.955.955,0,0,1,.533.022.165.165,0,0,1,.033.014l.032.016c.011.006.022.011.032.017a.167.167,0,0,1,.02.013l.017.012a.371.371,0,0,1,.043.034.256.256,0,0,1,.027.024.32.32,0,0,1,.024.023.037.037,0,0,1,.008.007c.012.012.023.025.034.039a.413.413,0,0,1,.03.037c.012.015.022.03.032.046s.018.027.027.041a1.434,1.434,0,0,1,.089.163c.01.019.018.04.027.06.036.081.071.172.1.27q2.718,7.947,5.426,15.9a2.484,2.484,0,0,1,.106.4c0,.023.007.046.01.068Zm25.573-16.053c.459,1.108-.079,2.153-.6,3.169a3.233,3.233,0,0,0-.223,1.454,15.071,15.071,0,0,0,.212,1.537,2.766,2.766,0,0,1-1.5,2.983c-1.629.823-3.32,1.53-5.018,2.2a91.375,91.375,0,0,1-14.428,4.02c-.436.095-.871.2-1.3.3a4.942,4.942,0,0,0-.238-.972c-1.751-5.139-3.577-10.489-5.427-15.9a4.808,4.808,0,0,0-.658-1.308,2.829,2.829,0,0,0,.635-1.669,20.639,20.639,0,0,1,4.187-10.405,7.225,7.225,0,0,0,1.079-7.006c-.663-1.942-.14-3.085,1.527-3.731a2.681,2.681,0,0,1,.458-.133,2.139,2.139,0,0,1,1.973.7,7.852,7.852,0,0,1,2.423,6.507c-.144,1.8-.346,3.587-.469,5.383-.09,1.312.3,1.8,1.331,1.607a4.408,4.408,0,0,0,.584-.158c2.11-.713,4.2-1.485,6.326-2.147a6.567,6.567,0,0,1,.756-.186A11.494,11.494,0,0,1,381.5,14.3a3.411,3.411,0,0,1,3.7,3.616,3.978,3.978,0,0,0,1.493,3.864,2.243,2.243,0,0,1,.5,2.789c-.208.5-.4,1.013-.558,1.411a12.677,12.677,0,0,1,1.51,2.237Z" transform="translate(-318.447 0.01)" fill="#ff5656"/>
        <path id="Path_244" data-name="Path 244" d="M409.046,351.289c0,.023.008.046.01.068a.144.144,0,0,1,0,.017c0,.027,0,.055.007.08s0,.032,0,.047,0,.023,0,.035a.409.409,0,0,1,0,.045.344.344,0,0,1-.006.051v0a.366.366,0,0,1-.007.041.079.079,0,0,1-.005.02.318.318,0,0,1-.014.048c0,.01-.007.02-.01.029s-.008.022-.013.032a.03.03,0,0,1,0,.009.107.107,0,0,1-.01.022.577.577,0,0,1-.051.084l-.012.017-.021.027a.911.911,0,0,1-.228.191.141.141,0,0,1-.023.015c-.038.023-.078.044-.121.065l-.042.021-.082.036c-.057.023-.118.046-.182.069l-.27.094q-2.216.772-4.442,1.515a3.224,3.224,0,0,1-.4.108c-.569.107-.818-.119-1.059-.821q-1.373-4.008-2.739-8.018-1.345-3.94-2.688-7.88c-.31-.912-.179-1.2.716-1.513q2.154-.749,4.319-1.477l.322-.109a3.2,3.2,0,0,1,.41-.112.955.955,0,0,1,.533.022.165.165,0,0,1,.033.014l.032.016c.011.006.022.011.032.017a.168.168,0,0,1,.02.013l.017.012a.468.468,0,0,1,.044.034.25.25,0,0,1,.027.024.215.215,0,0,1,.024.023.035.035,0,0,1,.008.008.512.512,0,0,1,.034.039.41.41,0,0,1,.03.036c.012.015.022.03.032.046s.018.027.027.041a1.423,1.423,0,0,1,.089.163c.01.019.018.04.027.06.036.081.071.172.1.27q2.718,7.947,5.426,15.9a2.477,2.477,0,0,1,.106.4Z" transform="translate(-363.588 -306.399)" fill="#bd4b22"/>
        <path id="Path_245" data-name="Path 245" d="M533.732,66.61c.459,1.108-.079,2.153-.6,3.169a3.232,3.232,0,0,0-.223,1.454,15.079,15.079,0,0,0,.212,1.537,2.767,2.767,0,0,1-1.5,2.983c-1.629.823-3.32,1.53-5.018,2.2a91.376,91.376,0,0,1-14.428,4.02c-.436.095-.871.2-1.3.3a4.935,4.935,0,0,0-.238-.972c-1.75-5.139-3.576-10.489-5.427-15.9a4.805,4.805,0,0,0-.658-1.308,2.829,2.829,0,0,0,.635-1.669,20.639,20.639,0,0,1,4.187-10.405,7.225,7.225,0,0,0,1.079-7.006c-.663-1.942-.14-3.085,1.527-3.731a2.682,2.682,0,0,1,.458-.133,2.139,2.139,0,0,1,1.973.7,7.852,7.852,0,0,1,2.423,6.507c-.144,1.8-.346,3.587-.469,5.383-.09,1.312.3,1.8,1.331,1.607a4.4,4.4,0,0,0,.584-.158c2.11-.713,4.2-1.485,6.326-2.147a6.569,6.569,0,0,1,.756-.186,11.494,11.494,0,0,1,1.726-.172,3.411,3.411,0,0,1,3.7,3.616,3.979,3.979,0,0,0,1.492,3.864,2.243,2.243,0,0,1,.5,2.789c-.208.5-.4,1.013-.558,1.411a12.685,12.685,0,0,1,1.51,2.237Z" transform="translate(-462.691 -37.705)" fill="#bd4b22"/>
        <path id="Path_246" data-name="Path 246" d="M391.816,336.17c0,.023.007.046.01.068a.136.136,0,0,1,0,.017c0,.027,0,.055.007.08s0,.032,0,.047,0,.023,0,.035a.376.376,0,0,1,0,.044.332.332,0,0,1-.006.051v0a.376.376,0,0,1-.007.041.079.079,0,0,1-.005.02.29.29,0,0,1-.014.048.3.3,0,0,1-.01.029c0,.011-.008.022-.013.032a.031.031,0,0,1,0,.009.1.1,0,0,1-.01.022.578.578,0,0,1-.051.084l-.012.017-.021.027a.909.909,0,0,1-.228.191.136.136,0,0,1-.023.015c-.038.023-.078.044-.121.065l-.042.021-.082.036c-.057.023-.118.046-.182.069l-.27.094q-2.216.772-4.442,1.515a3.214,3.214,0,0,1-.4.108c-.569.107-.818-.119-1.059-.821q-1.373-4.008-2.739-8.018-1.345-3.94-2.688-7.88c-.31-.912-.179-1.2.716-1.513q2.155-.749,4.319-1.477l.322-.109a3.194,3.194,0,0,1,.41-.112.955.955,0,0,1,.533.022.166.166,0,0,1,.033.014l.032.016c.011.006.022.011.032.017a.172.172,0,0,1,.02.013l.017.012a.371.371,0,0,1,.043.034.26.26,0,0,1,.027.024.215.215,0,0,1,.024.023.036.036,0,0,1,.008.007.506.506,0,0,1,.034.039.417.417,0,0,1,.03.036c.012.015.022.03.032.046s.018.027.027.041a1.43,1.43,0,0,1,.089.163c.01.019.018.04.027.06.037.081.071.172.1.27q2.718,7.947,5.426,15.9a2.481,2.481,0,0,1,.106.4Z" transform="translate(-347.787 -292.533)" fill="#fff"/>
        <path id="Path_247" data-name="Path 247" d="M516.493,51.49c.459,1.108-.079,2.153-.6,3.169a3.233,3.233,0,0,0-.223,1.454,15.079,15.079,0,0,0,.212,1.537,2.766,2.766,0,0,1-1.5,2.983c-1.629.823-3.32,1.53-5.018,2.2a91.38,91.38,0,0,1-14.428,4.02c-.436.095-.871.2-1.3.3a4.944,4.944,0,0,0-.238-.972c-1.751-5.139-3.577-10.489-5.427-15.9a4.805,4.805,0,0,0-.658-1.308,2.829,2.829,0,0,0,.635-1.669A20.639,20.639,0,0,1,492.133,36.9a7.225,7.225,0,0,0,1.079-7.006c-.663-1.942-.14-3.085,1.527-3.731a2.68,2.68,0,0,1,.458-.133,2.139,2.139,0,0,1,1.973.7,7.852,7.852,0,0,1,2.423,6.507c-.144,1.8-.346,3.587-.469,5.383-.09,1.312.3,1.8,1.331,1.607a4.409,4.409,0,0,0,.584-.158c2.11-.713,4.2-1.485,6.326-2.147a6.57,6.57,0,0,1,.756-.186,11.494,11.494,0,0,1,1.726-.172,3.411,3.411,0,0,1,3.7,3.616,3.977,3.977,0,0,0,1.493,3.864,2.243,2.243,0,0,1,.5,2.789c-.208.5-.4,1.013-.558,1.411a12.674,12.674,0,0,1,1.51,2.237Z" transform="translate(-446.881 -23.839)" fill="#fff"/>
      </g>
    </g>
  </g>
</svg>
