<?xml version="1.0" encoding="utf-8"?>
<!-- Generator: Adobe Illustrator 27.0.0, SVG Export Plug-In . SVG Version: 6.00 Build 0)  -->
<svg version="1.1" id="Layer_1" xmlns="http://www.w3.org/2000/svg" xmlns:xlink="http://www.w3.org/1999/xlink" x="0px" y="0px"
	 viewBox="0 0 23 24" style="enable-background:new 0 0 23 24;" xml:space="preserve">
<style type="text/css">
	.st0{fill:#A7A7A7;}
</style>
<g id="_x30_6">
	<path class="st0" d="M19.6,23.3c-0.4,0-0.8-0.4-0.8-0.8V11.2h-4.8c-0.4,0-0.8-0.4-0.8-0.8s0.4-0.8,0.8-0.8h5.6
		c0.4,0,0.8,0.4,0.8,0.8v12.1C20.4,22.9,20,23.3,19.6,23.3z"/>
	<path class="st0" d="M6.7,23.3c-0.4,0-0.8-0.4-0.8-0.8v-7.2c0-0.4,0.4-0.8,0.8-0.8s0.8,0.4,0.8,0.8v7.2C7.5,22.9,7.1,23.3,6.7,23.3
		z"/>
	<path class="st0" d="M22,21.7c-0.4,0-0.8-0.4-0.8-0.8V8.8h-6.4c-0.4,0-0.8-0.4-0.8-0.8s0.4-0.8,0.8-0.8H22c0.4,0,0.8,0.4,0.8,0.8
		v12.9C22.8,21.3,22.4,21.7,22,21.7z"/>
	<path class="st0" d="M16.3,14.4h-4.8c-0.4,0-0.8-0.4-0.8-0.8s0.4-0.8,0.8-0.8h4.8c0.4,0,0.8,0.4,0.8,0.8S16.8,14.4,16.3,14.4z"/>
	<path class="st0" d="M16.3,17.6H9.9c-0.4,0-0.8-0.4-0.8-0.8S9.4,16,9.9,16h6.4c0.4,0,0.8,0.4,0.8,0.8S16.8,17.6,16.3,17.6z"/>
	<path class="st0" d="M16.3,20.9H9.9c-0.4,0-0.8-0.4-0.8-0.8s0.4-0.8,0.8-0.8h6.4c0.4,0,0.8,0.4,0.8,0.8S16.8,20.9,16.3,20.9z"/>
	<path class="st0" d="M6.7,13.6c-3.6,0-6.4-2.9-6.4-6.4c0-0.4,0.4-0.8,0.8-0.8s0.8,0.4,0.8,0.8C1.8,9.8,4,12,6.7,12s4.8-2.2,4.8-4.8
		S9.3,2.3,6.7,2.3c-1.6,0-3.1,0.8-4,2.1C2.4,4.8,1.9,4.9,1.6,4.6C1.2,4.4,1.1,3.8,1.4,3.5c1.2-1.7,3.2-2.8,5.3-2.8
		c3.6,0,6.4,2.9,6.4,6.4S10.2,13.6,6.7,13.6z"/>
	<path class="st0" d="M6.7,8H4.2C3.8,8,3.4,7.6,3.4,7.2s0.4-0.8,0.8-0.8h1.6V4.8c0-0.4,0.4-0.8,0.8-0.8s0.8,0.4,0.8,0.8v2.4
		C7.5,7.6,7.1,8,6.7,8z"/>
	<path class="st0" d="M3.4,4.8H1.8C1.4,4.8,1,4.4,1,3.9V2.3c0-0.4,0.4-0.8,0.8-0.8s0.8,0.4,0.8,0.8v0.8h0.8c0.4,0,0.8,0.4,0.8,0.8
		S3.9,4.8,3.4,4.8z"/>
</g>
</svg>
