<svg id="Group_522" data-name="Group 522" xmlns="http://www.w3.org/2000/svg" width="16.507" height="17.363" viewBox="0 0 16.507 17.363">
  <path id="Path_225" data-name="Path 225" d="M1.72,3.827H1.114c-.179,0-.356.005-.535-.005a.639.639,0,0,1-.584-.576.627.627,0,0,1,.467-.671,1.34,1.34,0,0,1,.313-.03q2.03,0,4.063-.005h.228V2.223a5.735,5.735,0,0,1,.033-.81A1.675,1.675,0,0,1,6.754.008C7.746,0,8.735,0,9.727.008a1.693,1.693,0,0,1,1.7,1.726v.8h.239c1.353,0,2.707,0,4.063.008a1.171,1.171,0,0,1,.351.043.638.638,0,0,1,.419.688.625.625,0,0,1-.571.541c-.3.016-.609.005-.91.008h-.234c-.022.28-.041.541-.057.8q-.159,2.483-.313,4.963c-.071,1.152-.139,2.307-.212,3.46-.046.712-.071,1.427-.158,2.133a2.546,2.546,0,0,1-2.2,2.15,4.65,4.65,0,0,1-.514.03q-3.111,0-6.221,0a2.585,2.585,0,0,1-2.623-2.272c-.06-.424-.065-.856-.092-1.283q-.114-1.729-.228-3.46c-.06-.9-.114-1.791-.171-2.688Q1.876,6,1.764,4.338c-.011-.163-.022-.326-.033-.514Zm1.345.038c0,.144-.005.28,0,.416.016.315.043.633.063.949.084,1.462.166,2.927.253,4.392q.151,2.6.31,5.2a1.244,1.244,0,0,0,.862,1.169,1.683,1.683,0,0,0,.584.084c2.068.005,4.137,0,6.2,0a2.706,2.706,0,0,0,.3-.016A1.307,1.307,0,0,0,12.8,14.834q.155-2.483.313-4.963.179-2.866.356-5.735c.005-.082,0-.166,0-.272H3.065Zm3.28-1.348H10.14V1.886c0-.454-.1-.552-.563-.554H7.322c-.2,0-.4-.005-.6,0a.366.366,0,0,0-.38.394c-.005.258,0,.514,0,.785Z" transform="translate(0.008)" fill="#707070"/>
  <path id="Path_226" data-name="Path 226" d="M18.667,25.856V22.492a.629.629,0,0,1,.682-.655.636.636,0,0,1,.592.565c0,.038,0,.079,0,.12v6.653a.713.713,0,0,1-.022.215.637.637,0,0,1-1.256-.166c0-1.011,0-2.019,0-3.03Z" transform="translate(-13.59 -15.901)" fill="#707070"/>
  <path id="Path_227" data-name="Path 227" d="M27.994,25.83V22.5a.63.63,0,0,1,.688-.669.636.636,0,0,1,.587.571c0,.038,0,.079,0,.12v6.653a.648.648,0,0,1-.59.693.637.637,0,0,1-.688-.633c-.005-.522,0-1.044,0-1.563v-1.84Z" transform="translate(-20.382 -15.899)" fill="#707070"/>
  <path id="Path_228" data-name="Path 228" d="M38.617,25.877V29.2a.64.64,0,0,1-1.277.073V22.526a.64.64,0,1,1,1.277-.033c0,.647,0,1.294,0,1.941V25.88Z" transform="translate(-27.19 -15.903)" fill="#707070"/>
</svg>
