<svg xmlns="http://www.w3.org/2000/svg" width="52" height="52" viewBox="0 0 52 52">
  <g id="Group_67" data-name="Group 67" transform="translate(-68 -906)">
    <rect id="Rectangle_52" data-name="Rectangle 52" width="52" height="52" rx="12" transform="translate(68 906)" fill="#a7a9ac"/>
    <path id="Path_104" data-name="Path 104" d="M2.583,20.725c-.148-.037-.3-.072-.447-.111A2.954,2.954,0,0,1,.007,17.627,9.391,9.391,0,0,1,.6,14.648,8.822,8.822,0,0,1,5.476,9.68c.044-.017.085-.037.155-.068a5.291,5.291,0,0,1-2.1-5.107A5.049,5.049,0,0,1,5.441,1.184a5.283,5.283,0,0,1,7.145.438,5.133,5.133,0,0,1,1.477,4.133A5.264,5.264,0,0,1,11.919,9.6c.344.166.678.309.994.482A8.726,8.726,0,0,1,16.7,14.058a8.826,8.826,0,0,1,.85,3.713,2.935,2.935,0,0,1-2.467,2.92.665.665,0,0,0-.111.037H2.583Zm6.19-1.595h3.035c.9,0,1.806,0,2.711,0a1.325,1.325,0,0,0,1.421-1.29,6.793,6.793,0,0,0-.338-2.229,7.166,7.166,0,0,0-7.938-4.885,7.178,7.178,0,0,0-5.7,4.857,6.85,6.85,0,0,0-.349,2.266,1.257,1.257,0,0,0,.49.978,1.465,1.465,0,0,0,.983.3H8.773Zm0-10.1A3.715,3.715,0,1,0,5.058,5.3,3.727,3.727,0,0,0,8.771,9.028Z" transform="translate(84.997 920.033)" fill="#fff"/>
  </g>
</svg>
