<svg width="34" height="30" viewBox="0 0 34 30" fill="none" xmlns="http://www.w3.org/2000/svg">
<path fill-rule="evenodd" clip-rule="evenodd" d="M0.3 9.2L9.7 0L23.2 0.200001V7.9L21.3 9.8L20.3 8.8V3.00001L11.2 2.9V10.8L3.2 10.7L3 25.7L15.7 25.9L18.6 28.8L0 28.7L0.3 9.2ZM4.8 8.8L9.1 4.60001V8.89999L4.8 8.8Z" fill="#808080"/>
<path fill-rule="evenodd" clip-rule="evenodd" d="M31.6002 1.59961L21.2002 11.7996L18.6002 9.09961L16.7002 10.9996L21.2002 15.5996L33.5002 3.49961L31.6002 1.59961Z" fill="#808080"/>
<path fill-rule="evenodd" clip-rule="evenodd" d="M31.6002 8.3999L21.2002 18.6999L18.6002 15.9999L16.7002 17.8999L21.2002 22.3999L33.5002 10.2999L31.6002 8.3999Z" fill="#1C1F66"/>
<path fill-rule="evenodd" clip-rule="evenodd" d="M31.6002 15.2998L21.2002 25.4998L18.6002 22.7998L16.7002 24.6998L21.2002 29.2998L33.5002 17.1998L31.6002 15.2998Z" fill="#808080"/>
</svg>
